{"glyphs":{"0":{"ha":1099,"x_min":0,"x_max":0,"o":"m 1133 446 b 897 892 1133 625 1039 828 l 201 892 b -35 446 60 828 -35 625 b 201 0 -35 268 60 64 l 897 0 b 1133 446 1039 64 1133 268 z m 549 182 b 275 453 401 182 275 286 b 549 722 275 619 401 722 b 824 453 697 722 824 619 b 549 182 824 286 697 182 z "},"1":{"ha":503,"x_min":0,"x_max":0,"o":"m -12 892 b 115 747 75 885 115 836 l 115 114 b -12 0 115 64 71 14 l 517 0 b 388 114 432 14 388 64 l 388 1069 z "},"2":{"ha":781,"x_min":0,"x_max":0,"o":"m 813 704 b 754 892 813 790 779 865 l 24 892 b -37 768 -11 863 -37 819 b 58 621 -37 693 8 643 b 322 769 131 725 208 769 b 478 622 408 769 478 701 b 354 408 478 539 433 485 l 54 119 b -83 0 -11 56 -56 19 l 781 0 l 781 347 b 653 229 765 288 738 229 l 481 229 b 813 704 642 340 813 494 z "},"3":{"ha":810,"x_min":0,"x_max":0,"o":"m 726 778 b 810 892 765 842 786 872 l 0 892 l 0 544 b 129 663 15 604 43 663 l 371 663 l 207 399 b 257 404 225 403 242 404 b 532 133 417 404 532 276 b 257 -137 532 -21 406 -137 b 35 -17 171 -137 86 -97 b -133 -182 -57 -18 -133 -96 b -72 -318 -133 -254 -100 -294 l 608 -318 b 842 106 721 -253 842 -100 b 579 535 842 322 713 471 z "},"4":{"ha":1072,"x_min":0,"x_max":0,"o":"m -36 0 l 582 0 l 582 -206 b 454 -318 582 -254 538 -304 l 982 -318 b 854 -206 899 -304 854 -254 l 854 0 l 1072 0 l 1072 347 b 943 229 1057 288 1028 229 l 854 229 l 854 1133 z m 421 229 l 582 438 l 582 229 z "},"5":{"ha":981,"x_min":0,"x_max":0,"o":"m 454 -136 b 229 -17 361 -136 279 -103 b 63 -182 138 -18 63 -96 b 124 -318 63 -254 96 -294 l 801 -318 b 1038 128 943 -254 1038 -51 b 810 569 1038 301 946 501 l 810 892 l -12 892 b 113 769 63 879 113 838 b 111 746 113 763 113 753 l 39 293 b 431 413 169 363 301 413 b 728 133 615 413 728 301 b 454 -136 728 -33 601 -136 z m 681 663 b 800 574 751 663 782 622 l 388 574 l 397 663 z "},"6":{"ha":1056,"x_min":0,"x_max":0,"o":"m 567 876 b 378 842 500 876 439 867 b 922 1133 444 975 646 1100 l 358 1133 b -35 486 190 1044 -35 829 b 157 0 -35 281 58 111 l 949 0 b 1089 357 1010 49 1089 201 b 567 876 1089 656 843 876 z m 522 186 b 296 408 400 186 296 271 b 522 632 296 547 400 632 b 749 408 643 632 749 547 b 522 186 749 271 643 186 z "},"7":{"ha":831,"x_min":0,"x_max":0,"o":"m 331 1 b 354 81 331 18 333 44 l 763 778 b 844 892 800 842 824 872 l 0 892 l 0 544 b 129 663 15 604 43 663 l 407 663 l 29 65 b -111 -94 -22 -17 -62 -69 l 414 -94 b 331 1 364 -82 331 -43 z "},"8":{"ha":992,"x_min":0,"x_max":0,"o":"m 879 656 b 746 892 879 754 825 843 l 246 892 b 113 656 165 843 113 754 b 204 449 113 574 147 500 b -19 72 71 376 -19 235 b 242 -319 -19 -103 88 -254 l 749 -319 b 1011 72 903 -254 1011 -103 b 788 449 1011 235 919 376 b 879 656 843 500 879 574 z m 286 113 b 496 324 286 229 379 324 b 707 113 613 324 707 229 b 496 -97 707 -6 613 -97 b 286 113 379 -97 286 -6 z m 363 636 b 496 772 363 710 422 772 b 631 636 572 772 631 710 b 496 501 631 564 572 501 b 363 636 422 501 363 564 z "},"9":{"ha":1056,"x_min":0,"x_max":0,"o":"m 488 15 b 676 50 556 15 617 25 b 132 -240 610 -83 408 -208 l 697 -240 b 1089 406 865 -153 1089 63 b 899 892 1089 611 996 781 l 106 892 b -35 535 46 843 -35 690 b 488 15 -35 238 211 15 z m 536 267 b 310 489 414 267 310 351 b 536 713 310 626 414 713 b 763 489 657 713 763 626 b 536 267 763 351 657 267 z "},"\u0017":{"ha":411,"x_min":0,"x_max":0,"o":""}," ":{"ha":411,"x_min":0,"x_max":0,"o":""},"!":{"ha":372,"x_min":0,"x_max":0,"o":"m 14 171 b 185 0 14 75 89 0 b 357 171 281 0 357 75 b 185 343 357 267 281 343 b 14 171 89 343 14 267 z m 75 382 l 296 382 b 350 642 299 490 301 561 b 414 806 388 704 414 750 b 385 892 414 835 404 865 l -14 892 b -43 806 -33 865 -43 835 b 21 642 -43 750 -17 704 b 75 382 69 561 72 490 z "},"\"":{"ha":614,"x_min":0,"x_max":0,"o":"m 85 547 l 257 547 l 296 892 l 46 892 z m 363 547 l 535 547 l 574 892 l 324 892 z "},"#":{"ha":1013,"x_min":0,"x_max":0,"o":"m 86 697 l 86 544 l 242 544 l 204 365 l 24 365 l 24 213 l 172 213 l 126 0 l 304 0 l 350 213 l 554 213 l 508 0 l 686 0 l 733 213 l 926 213 l 926 365 l 764 365 l 803 544 l 990 544 l 990 697 l 836 697 l 878 892 l 700 892 l 657 697 l 454 697 l 496 892 l 317 892 l 275 697 z m 421 544 l 625 544 l 586 365 l 382 365 z "},"$":{"ha":883,"x_min":0,"x_max":0,"o":"m 299 -171 l 408 -171 l 408 0 l 489 0 l 489 -171 l 599 -171 l 599 0 l 849 0 b 940 229 890 47 940 122 b 729 549 940 376 885 481 b 347 614 653 582 429 596 b 283 692 304 624 283 651 b 400 768 283 754 346 768 b 832 622 565 768 733 707 b 929 768 885 638 929 704 b 869 892 929 819 904 860 l 599 892 l 599 1069 l 489 1069 l 489 892 l 408 892 l 408 1069 l 299 1069 l 299 892 l 22 892 b -37 704 -3 865 -37 790 b 78 468 -37 621 0 528 b 507 351 164 401 322 364 b 604 264 572 346 604 311 b 332 163 604 176 515 163 b 28 251 165 163 99 197 b -50 118 -11 225 -50 179 b -3 0 -50 61 -26 24 l 299 0 z "},"%":{"ha":1153,"x_min":0,"x_max":0,"o":"m 106 0 l 292 0 l 465 267 b 599 0 465 149 518 36 l 975 0 b 1107 247 1054 36 1107 149 b 974 494 1107 346 1054 457 l 614 494 l 872 892 l 686 892 l 517 629 b 382 890 517 742 463 854 l 8 890 b -126 643 -72 854 -126 742 b 8 396 -126 546 -72 432 l 363 396 z m 786 114 b 647 250 711 114 647 165 b 786 389 647 335 711 389 b 926 250 863 389 926 335 b 786 114 926 165 863 114 z m 194 510 b 56 646 119 510 56 563 b 194 785 56 732 119 785 b 335 646 271 785 335 732 b 194 510 335 563 271 510 z "},"&":{"ha":1056,"x_min":0,"x_max":0,"o":"m 553 0 b 653 88 592 24 625 54 l 733 -17 b 744 -49 740 -28 744 -39 b 703 -94 744 -69 728 -87 l 1114 -94 b 1042 -35 1086 -82 1074 -71 l 793 251 l 1064 571 b 1133 638 1103 617 1115 628 l 956 638 b 747 533 865 638 810 604 l 646 417 l 547 531 b 793 757 706 563 793 664 b 733 892 793 807 772 856 l 246 892 b 176 757 199 860 176 825 b 243 618 176 699 203 667 b -54 290 89 583 -54 471 b 104 0 -54 156 26 43 z m 515 267 b 354 178 482 213 429 178 b 224 308 281 178 224 231 b 375 447 224 394 311 440 z m 439 656 b 393 742 414 676 393 708 b 494 819 393 810 454 819 b 582 744 539 819 582 801 b 439 656 582 693 522 664 z "},"'":{"ha":336,"x_min":0,"x_max":0,"o":"m 85 547 l 257 547 l 296 892 l 46 892 z "},"(":{"ha":707,"x_min":0,"x_max":0,"o":"m 293 407 b 707 1242 293 747 456 1050 b 36 407 322 1158 36 815 b 706 -425 36 -3 322 -343 b 293 407 456 -235 293 67 z "},")":{"ha":707,"x_min":0,"x_max":0,"o":"m 414 407 b 1 -425 414 67 253 -235 b 671 407 385 -343 671 -3 b 0 1242 671 815 385 1158 b 414 407 253 1050 414 747 z "},"*":{"ha":858,"x_min":0,"x_max":0,"o":"m 43 521 l 329 447 l 146 219 l 275 125 l 435 375 l 594 129 l 724 224 l 536 453 l 819 528 l 769 681 l 493 572 l 510 865 l 349 865 l 365 568 l 93 674 z "},"+":{"ha":836,"x_min":0,"x_max":0,"o":"m 342 864 l 342 565 l 43 565 l 43 413 l 342 413 l 342 114 l 494 114 l 494 413 l 794 413 l 794 565 l 494 565 l 494 864 z "},",":{"ha":372,"x_min":0,"x_max":0,"o":"m 14 171 b 164 13 14 79 85 13 b 188 15 172 13 181 14 b 61 -125 163 -54 124 -96 b 86 -126 69 -126 78 -126 b 357 146 256 -126 357 7 b 185 343 357 267 281 343 b 14 171 89 343 14 267 z "},"-":{"ha":425,"x_min":0,"x_max":0,"o":"m 28 375 l 396 375 l 396 604 l 28 604 z "},".":{"ha":372,"x_min":0,"x_max":0,"o":"m 14 171 b 185 0 14 75 89 0 b 357 171 281 0 357 75 b 185 343 357 267 281 343 b 14 171 89 343 14 267 z "},"/":{"ha":696,"x_min":0,"x_max":0,"o":"m 0 -165 l 186 -165 l 696 1022 l 510 1022 z "},":":{"ha":461,"x_min":0,"x_max":0,"o":"m 60 171 b 231 0 60 75 135 0 b 403 171 326 0 403 75 b 231 343 403 267 326 343 b 60 171 135 343 60 267 z m 60 719 b 231 549 60 625 135 549 b 403 719 326 549 403 625 b 231 892 403 815 326 892 b 60 719 135 892 60 815 z "},";":{"ha":461,"x_min":0,"x_max":0,"o":"m 60 719 b 231 549 60 625 135 549 b 403 719 326 549 403 625 b 231 892 403 815 326 892 b 60 719 135 892 60 815 z m 60 171 b 210 13 60 79 131 13 b 233 15 218 13 226 14 b 107 -125 208 -54 169 -96 b 132 -126 115 -126 124 -126 b 403 146 301 -126 403 7 b 231 343 403 267 326 343 b 60 171 135 343 60 267 z "},"<":{"ha":836,"x_min":0,"x_max":0,"o":"m 43 579 l 43 400 l 794 158 l 794 326 l 242 489 l 794 653 l 794 821 z "},"=":{"ha":836,"x_min":0,"x_max":0,"o":"m 43 400 l 43 247 l 794 247 l 794 400 z m 43 732 l 43 579 l 794 579 l 794 732 z "},">":{"ha":836,"x_min":0,"x_max":0,"o":"m 43 821 l 43 653 l 594 489 l 43 326 l 43 158 l 794 400 l 794 579 z "},"?":{"ha":781,"x_min":0,"x_max":0,"o":"m 221 171 b 392 0 221 75 296 0 b 564 171 486 0 564 75 b 392 343 564 267 486 343 b 221 171 296 343 221 267 z m 813 704 b 754 892 813 790 779 865 l 24 892 b -37 768 -11 863 -37 819 b 58 621 -37 693 8 643 b 322 769 131 725 208 769 b 478 622 408 769 478 701 b 353 382 478 539 454 489 l 647 382 b 813 704 751 465 813 576 z "},"@":{"ha":1289,"x_min":0,"x_max":0,"o":"m 672 19 b 824 68 744 19 794 40 b 954 19 844 39 900 19 b 1236 383 1138 19 1236 193 b 926 892 1236 642 1115 815 l 439 892 b 46 306 207 806 46 596 b 464 -318 46 22 190 -224 l 1007 -318 b 1139 -171 1089 -286 1139 -237 b 1072 -49 1139 -118 1113 -76 b 733 -178 1035 -86 915 -178 b 233 324 472 -178 233 -6 b 693 801 233 600 453 801 b 1081 378 926 801 1081 656 b 979 157 1081 218 1024 157 b 931 194 957 157 938 168 l 953 572 b 914 608 950 597 938 608 b 817 576 882 608 843 594 b 675 614 789 594 739 614 b 378 321 525 614 378 504 b 672 19 378 136 508 19 z m 785 378 l 776 239 b 679 192 756 211 714 192 b 550 318 606 192 550 240 b 683 442 550 376 594 442 b 785 378 718 442 760 422 z "},"A":{"ha":1106,"x_min":0,"x_max":0,"o":"m 468 0 b 392 96 418 13 392 50 b 401 144 392 111 394 128 l 401 146 l 703 146 b 713 99 708 129 713 113 b 639 0 713 50 679 14 l 1119 0 b 967 260 1086 33 1064 57 l 549 1133 l 138 247 b -12 0 61 82 28 42 z m 551 540 l 628 350 l 474 350 z "},"B":{"ha":1083,"x_min":0,"x_max":0,"o":"m -76 1069 b 53 956 8 1056 53 1006 l 53 118 b 186 0 85 71 133 24 l 882 0 b 1118 446 1024 64 1118 268 b 882 892 1118 625 1024 828 l 324 892 l 324 956 b 453 1069 324 1006 368 1056 z m 533 182 b 324 272 451 182 375 215 l 324 631 b 533 722 375 689 451 722 b 808 453 682 722 808 619 b 533 182 808 286 682 182 z "},"C":{"ha":946,"x_min":0,"x_max":0,"o":"m 549 182 b 275 453 401 182 275 286 b 549 722 275 619 401 722 b 768 622 629 722 719 688 b 800 618 779 619 790 618 b 940 758 888 618 940 683 b 875 892 940 819 921 868 l 201 892 b -35 446 60 828 -35 625 b 201 0 -35 268 60 64 l 879 0 b 940 136 907 24 940 65 b 774 301 940 224 865 301 b 549 182 724 215 642 182 z "},"D":{"ha":1083,"x_min":0,"x_max":0,"o":"m 631 1069 b 760 956 715 1056 760 1006 l 760 892 l 201 892 b -35 446 60 828 -35 625 b 201 0 -35 268 60 64 l 897 0 b 1031 118 949 24 999 71 l 1031 956 b 1160 1069 1031 1006 1075 1056 z m 549 182 b 275 453 401 182 275 286 b 549 722 275 619 401 722 b 760 631 632 722 708 689 l 760 272 b 549 182 708 215 632 182 z "},"E":{"ha":1099,"x_min":0,"x_max":0,"o":"m 1128 375 b 1133 446 1131 396 1133 421 b 897 892 1133 625 1039 828 l 201 892 b -35 446 60 828 -35 625 b 201 0 -35 268 60 64 l 992 0 b 1093 208 1051 39 1093 124 b 1028 375 1093 267 1076 329 z m 549 182 b 285 375 421 182 329 253 l 813 375 b 549 182 782 260 683 182 z m 549 722 b 779 604 647 722 740 676 l 317 604 b 549 722 367 678 451 722 z "},"F":{"ha":886,"x_min":0,"x_max":0,"o":"m 388 372 l 760 372 b 888 254 844 372 872 314 l 888 892 l -12 892 b 115 779 71 878 115 828 l 115 114 b -12 0 115 64 71 14 l 517 0 b 388 114 432 14 388 64 z m 388 663 l 751 663 b 858 601 808 663 840 636 l 388 601 z "},"G":{"ha":1121,"x_min":0,"x_max":0,"o":"m 1006 779 b 1135 892 1006 828 1050 878 l 201 892 b -35 446 60 828 -35 625 b 201 0 -35 268 60 64 l 456 0 b 306 -165 371 -10 306 -81 b 381 -318 306 -235 335 -283 l 846 -318 b 1004 28 949 -247 1004 -121 z m 733 297 b 514 204 672 236 592 204 b 271 467 376 204 271 306 b 490 711 271 619 367 711 b 733 429 660 711 733 575 z m 601 -117 b 474 0 543 -117 485 -74 l 617 0 b 733 63 664 17 703 39 l 733 22 b 601 -117 733 -54 683 -117 z "},"H":{"ha":1033,"x_min":0,"x_max":0,"o":"m 517 892 b 646 779 601 878 646 828 l 646 604 l 388 604 l 388 779 b 517 892 388 828 432 878 l -12 892 b 115 779 71 878 115 828 l 115 114 b -12 0 115 64 71 14 l 517 0 b 388 114 432 14 388 64 l 388 375 l 646 375 l 646 114 b 517 0 646 64 601 14 l 1046 0 b 918 114 963 14 918 64 l 918 779 b 1046 892 918 828 963 878 z "},"I":{"ha":503,"x_min":0,"x_max":0,"o":"m -12 892 b 115 779 71 878 115 828 l 115 114 b -12 0 115 64 71 14 l 517 0 b 388 114 432 14 388 64 l 388 779 b 517 892 388 828 432 878 z "},"J":{"ha":503,"x_min":0,"x_max":0,"o":"m -12 892 b 115 779 71 878 115 828 l 115 22 b -15 -117 115 -54 67 -117 b -143 0 -74 -117 -132 -75 b -311 -165 -236 -3 -311 -75 b -236 -318 -311 -235 -282 -283 l 229 -318 b 388 28 332 -247 388 -121 l 388 779 b 517 892 388 828 432 878 z "},"K":{"ha":1057,"x_min":0,"x_max":0,"o":"m 611 81 b 651 1 644 43 651 19 b 567 -94 651 -43 617 -82 l 1143 -94 b 964 65 1075 -54 1042 -24 l 625 457 l 876 733 b 1056 892 956 819 982 847 l -12 892 b 115 779 71 878 115 828 l 115 114 b -12 0 115 64 71 14 l 517 0 b 388 114 432 14 388 64 l 388 332 z m 388 779 b 514 890 388 826 431 876 b 594 796 563 878 594 840 b 564 725 594 775 582 749 l 388 535 z "},"L":{"ha":810,"x_min":0,"x_max":0,"o":"m -12 892 b 115 779 71 878 115 828 l 115 114 b -12 0 115 64 71 14 l 810 0 l 810 347 b 681 229 794 288 765 229 l 388 229 l 388 779 b 517 892 388 828 432 878 z "},"M":{"ha":1708,"x_min":0,"x_max":0,"o":"m 1721 0 b 1593 201 1679 42 1649 82 l 1160 1133 l 853 496 l 557 1133 l 115 211 b -12 0 53 82 25 40 l 468 0 b 393 99 426 14 393 50 b 404 146 393 113 397 129 l 554 525 l 857 -239 l 1157 525 l 1307 144 b 1318 96 1314 128 1318 111 b 1242 0 1318 50 1290 13 z "},"N":{"ha":1040,"x_min":0,"x_max":0,"o":"m 517 892 l -12 892 b 115 779 71 878 115 828 l 115 114 b -12 0 115 64 71 14 l 517 0 b 388 114 432 14 388 64 l 388 375 l 924 -240 l 924 779 b 1053 892 924 828 968 878 l 524 892 b 653 779 608 878 653 828 l 653 474 l 388 779 b 517 892 388 828 432 878 z "},"O":{"ha":1099,"x_min":0,"x_max":0,"o":"m 1133 446 b 897 892 1133 625 1039 828 l 201 892 b -35 446 60 828 -35 625 b 201 0 -35 268 60 64 l 897 0 b 1133 446 1039 64 1133 268 z m 549 182 b 275 453 401 182 275 286 b 549 722 275 619 401 722 b 824 453 697 722 824 619 b 549 182 824 286 697 182 z "},"P":{"ha":1083,"x_min":0,"x_max":0,"o":"m 533 710 b 808 440 682 710 808 607 b 533 169 808 272 682 169 b 324 261 451 169 375 203 l 324 619 b 533 710 375 676 451 710 z m 453 -318 b 324 -206 368 -304 324 -254 l 324 0 l 882 0 b 1118 446 1024 64 1118 268 b 882 892 1118 625 1024 828 l 186 892 b 53 774 133 869 85 821 l 53 -206 b -76 -318 53 -254 8 -304 z "},"Q":{"ha":1083,"x_min":0,"x_max":0,"o":"m 549 710 b 760 619 632 710 708 676 l 760 261 b 549 169 708 203 632 169 b 275 440 401 169 275 272 b 549 710 275 607 401 710 z m 1160 -318 b 1031 -206 1075 -304 1031 -254 l 1031 774 b 897 892 999 821 949 869 l 201 892 b -35 446 60 828 -35 625 b 201 0 -35 268 60 64 l 760 0 l 760 -206 b 631 -318 760 -254 715 -304 z "},"R":{"ha":1119,"x_min":0,"x_max":0,"o":"m 675 81 b 715 1 708 43 715 19 b 631 -94 715 -43 681 -82 l 1207 -94 b 1028 65 1139 -54 1108 -22 l 790 325 b 885 556 854 393 885 472 b 640 892 885 696 794 842 l -12 892 b 115 779 71 878 115 828 l 115 114 b -12 0 115 64 71 14 l 517 0 b 388 114 432 14 388 64 l 388 701 l 415 701 b 610 524 531 701 610 625 b 454 329 610 421 550 358 z "},"S":{"ha":883,"x_min":0,"x_max":0,"o":"m 849 0 b 940 229 890 47 940 122 b 729 549 940 376 885 481 b 347 614 653 582 429 596 b 283 692 304 624 283 651 b 400 768 283 754 346 768 b 832 622 565 768 733 707 b 929 768 885 638 929 704 b 869 892 929 819 904 860 l 22 892 b -37 704 -3 865 -37 790 b 78 468 -37 621 0 528 b 507 351 164 401 322 364 b 604 264 572 346 604 311 b 332 163 604 176 515 163 b 28 251 165 163 99 197 b -50 118 -11 225 -50 179 b -3 0 -50 61 -26 24 z "},"T":{"ha":783,"x_min":0,"x_max":0,"o":"m 128 0 l 656 0 b 528 114 572 14 528 64 l 528 663 l 656 663 b 783 544 740 663 768 604 l 783 892 l 0 892 l 0 544 b 129 663 15 604 43 663 l 256 663 l 256 114 b 150 4 256 68 219 24 l 150 6 b 149 4 149 6 149 4 z "},"U":{"ha":1033,"x_min":0,"x_max":0,"o":"m 388 779 b 517 892 388 828 432 878 l -12 892 b 115 779 71 878 115 828 l 115 332 b 319 0 115 167 193 54 l 713 0 b 918 332 839 54 918 167 l 918 779 b 1046 892 918 828 963 878 l 517 892 b 646 779 601 878 646 828 l 646 321 b 517 203 646 271 603 203 b 388 321 431 203 388 271 z "},"V":{"ha":1106,"x_min":0,"x_max":0,"o":"m 639 892 b 715 796 688 879 715 842 b 704 749 715 781 711 764 l 554 382 l 404 747 b 393 794 397 764 393 779 b 468 892 393 842 426 878 l -12 892 b 115 681 25 851 53 810 l 557 -240 l 990 690 b 1119 892 1046 810 1076 850 z "},"W":{"ha":1708,"x_min":0,"x_max":0,"o":"m 1242 892 b 1318 796 1290 879 1318 842 b 1307 749 1318 781 1314 764 l 1157 367 l 857 1132 l 554 367 l 404 747 b 393 794 397 764 393 779 b 468 892 393 842 426 878 l -12 892 b 115 681 25 851 53 810 l 557 -240 l 853 396 l 1160 -240 l 1593 690 b 1721 892 1649 810 1679 850 z "},"X":{"ha":1174,"x_min":0,"x_max":0,"o":"m 388 1 b 429 81 388 32 403 50 l 583 254 l 726 81 b 765 1 758 42 765 18 b 682 -94 765 -43 732 -82 l 1260 -94 b 1082 65 1193 -54 1160 -25 l 761 433 l 1007 733 b 1185 892 1083 821 1113 847 l 625 892 b 710 796 675 879 710 842 b 678 725 710 775 697 749 l 597 625 l 514 725 b 482 796 492 751 482 774 b 565 892 482 842 517 879 l -12 892 b 165 733 53 850 86 821 l 415 436 l 90 65 b -87 -94 10 -22 -21 -50 l 471 -94 b 388 1 422 -82 388 -43 z "},"Y":{"ha":1106,"x_min":0,"x_max":0,"o":"m 639 892 b 715 796 688 879 715 842 b 704 749 715 781 711 764 l 554 367 l 404 747 b 393 794 397 764 393 779 b 468 892 393 842 426 878 l -12 892 b 115 681 25 851 54 810 l 411 60 b 214 -117 340 -83 286 -117 b 86 0 156 -117 97 -75 b -82 -165 -7 -3 -82 -75 b -7 -318 -82 -235 -53 -283 l 456 -318 b 683 32 554 -247 613 -121 l 990 690 b 1119 892 1046 810 1076 850 z "},"Z":{"ha":831,"x_min":0,"x_max":0,"o":"m -25 0 l 831 0 l 831 347 b 703 229 815 288 788 229 l 432 229 l 763 778 b 844 892 801 842 822 872 l 36 892 l 36 544 b 164 663 51 604 79 663 l 407 663 l 64 115 b -25 0 21 47 -1 18 z "},"[":{"ha":406,"x_min":0,"x_max":0,"o":"m 76 -357 l 375 -357 l 375 -251 l 250 -251 l 250 1107 l 375 1107 l 375 1213 l 76 1213 z "},"\\":{"ha":696,"x_min":0,"x_max":0,"o":"m 186 1022 l 0 1022 l 510 -165 l 696 -165 z "},"]":{"ha":406,"x_min":0,"x_max":0,"o":"m 329 1213 l 31 1213 l 31 1107 l 156 1107 l 156 -251 l 31 -251 l 31 -357 l 329 -357 z "},"^":{"ha":836,"x_min":0,"x_max":0,"o":"m 507 892 l 329 892 l 86 142 l 254 142 l 418 693 l 581 142 l 749 142 z "},"_":{"ha":836,"x_min":0,"x_max":0,"o":"m 43 -233 l 794 -233 l 794 -81 l 43 -81 z "},"`":{"ha":489,"x_min":0,"x_max":0,"o":"m 68 1190 l 421 981 l 357 1190 z "},"a":{"ha":1106,"x_min":0,"x_max":0,"o":"m 468 0 b 392 96 418 13 392 50 b 401 144 392 111 394 128 l 401 146 l 703 146 b 713 99 708 129 713 113 b 639 0 713 50 679 14 l 1119 0 b 967 260 1086 33 1064 57 l 549 1133 l 138 247 b -12 0 61 82 28 42 z m 551 540 l 628 350 l 474 350 z "},"b":{"ha":1083,"x_min":0,"x_max":0,"o":"m -76 1069 b 53 956 8 1056 53 1006 l 53 118 b 186 0 85 71 133 24 l 882 0 b 1118 446 1024 64 1118 268 b 882 892 1118 625 1024 828 l 324 892 l 324 956 b 453 1069 324 1006 368 1056 z m 533 182 b 324 272 451 182 375 215 l 324 631 b 533 722 375 689 451 722 b 808 453 682 722 808 619 b 533 182 808 286 682 182 z "},"c":{"ha":946,"x_min":0,"x_max":0,"o":"m 549 182 b 275 453 401 182 275 286 b 549 722 275 619 401 722 b 768 622 629 722 719 688 b 800 618 779 619 790 618 b 940 758 888 618 940 683 b 875 892 940 819 921 868 l 201 892 b -35 446 60 828 -35 625 b 201 0 -35 268 60 64 l 879 0 b 940 136 907 24 940 65 b 774 301 940 224 865 301 b 549 182 724 215 642 182 z "},"d":{"ha":1083,"x_min":0,"x_max":0,"o":"m 631 1069 b 760 956 715 1056 760 1006 l 760 892 l 201 892 b -35 446 60 828 -35 625 b 201 0 -35 268 60 64 l 897 0 b 1031 118 949 24 999 71 l 1031 956 b 1160 1069 1031 1006 1075 1056 z m 549 182 b 275 453 401 182 275 286 b 549 722 275 619 401 722 b 760 631 632 722 708 689 l 760 272 b 549 182 708 215 632 182 z "},"e":{"ha":1099,"x_min":0,"x_max":0,"o":"m 1128 375 b 1133 446 1131 396 1133 421 b 897 892 1133 625 1039 828 l 201 892 b -35 446 60 828 -35 625 b 201 0 -35 268 60 64 l 992 0 b 1093 208 1051 39 1093 124 b 1028 375 1093 267 1076 329 z m 549 182 b 285 375 421 182 329 253 l 813 375 b 549 182 782 260 683 182 z m 549 722 b 779 604 647 722 740 676 l 317 604 b 549 722 367 678 451 722 z "},"f":{"ha":886,"x_min":0,"x_max":0,"o":"m 388 372 l 760 372 b 888 254 844 372 872 314 l 888 892 l -12 892 b 115 779 71 878 115 828 l 115 114 b -12 0 115 64 71 14 l 517 0 b 388 114 432 14 388 64 z m 388 663 l 751 663 b 858 601 808 663 840 636 l 388 601 z "},"g":{"ha":1121,"x_min":0,"x_max":0,"o":"m 1006 779 b 1135 892 1006 828 1050 878 l 201 892 b -35 446 60 828 -35 625 b 201 0 -35 268 60 64 l 456 0 b 306 -165 371 -10 306 -81 b 381 -318 306 -235 335 -283 l 846 -318 b 1004 28 949 -247 1004 -121 z m 733 297 b 514 204 672 236 592 204 b 271 467 376 204 271 306 b 490 711 271 619 367 711 b 733 429 660 711 733 575 z m 601 -117 b 474 0 543 -117 485 -74 l 617 0 b 733 63 664 17 703 39 l 733 22 b 601 -117 733 -54 683 -117 z "},"h":{"ha":1033,"x_min":0,"x_max":0,"o":"m 517 892 b 646 779 601 878 646 828 l 646 604 l 388 604 l 388 779 b 517 892 388 828 432 878 l -12 892 b 115 779 71 878 115 828 l 115 114 b -12 0 115 64 71 14 l 517 0 b 388 114 432 14 388 64 l 388 375 l 646 375 l 646 114 b 517 0 646 64 601 14 l 1046 0 b 918 114 963 14 918 64 l 918 779 b 1046 892 918 828 963 878 z "},"i":{"ha":503,"x_min":0,"x_max":0,"o":"m -12 892 b 115 779 71 878 115 828 l 115 114 b -12 0 115 64 71 14 l 517 0 b 388 114 432 14 388 64 l 388 779 b 517 892 388 828 432 878 z "},"j":{"ha":503,"x_min":0,"x_max":0,"o":"m -12 892 b 115 779 71 878 115 828 l 115 22 b -15 -117 115 -54 67 -117 b -143 0 -74 -117 -132 -75 b -311 -165 -236 -3 -311 -75 b -236 -318 -311 -235 -282 -283 l 229 -318 b 388 28 332 -247 388 -121 l 388 779 b 517 892 388 828 432 878 z "},"k":{"ha":1057,"x_min":0,"x_max":0,"o":"m 611 81 b 651 1 644 43 651 19 b 567 -94 651 -43 617 -82 l 1143 -94 b 964 65 1075 -54 1042 -24 l 625 457 l 876 733 b 1056 892 956 819 982 847 l -12 892 b 115 779 71 878 115 828 l 115 114 b -12 0 115 64 71 14 l 517 0 b 388 114 432 14 388 64 l 388 332 z m 388 779 b 514 890 388 826 431 876 b 594 796 563 878 594 840 b 564 725 594 775 582 749 l 388 535 z "},"l":{"ha":810,"x_min":0,"x_max":0,"o":"m -12 892 b 115 779 71 878 115 828 l 115 114 b -12 0 115 64 71 14 l 810 0 l 810 347 b 681 229 794 288 765 229 l 388 229 l 388 779 b 517 892 388 828 432 878 z "},"m":{"ha":1708,"x_min":0,"x_max":0,"o":"m 1721 0 b 1593 201 1679 42 1649 82 l 1160 1133 l 853 496 l 557 1133 l 115 211 b -12 0 53 82 25 40 l 468 0 b 393 99 426 14 393 50 b 404 146 393 113 397 129 l 554 525 l 857 -239 l 1157 525 l 1307 144 b 1318 96 1314 128 1318 111 b 1242 0 1318 50 1290 13 z "},"n":{"ha":1040,"x_min":0,"x_max":0,"o":"m 517 892 l -12 892 b 115 779 71 878 115 828 l 115 114 b -12 0 115 64 71 14 l 517 0 b 388 114 432 14 388 64 l 388 375 l 924 -240 l 924 779 b 1053 892 924 828 968 878 l 524 892 b 653 779 608 878 653 828 l 653 474 l 388 779 b 517 892 388 828 432 878 z "},"o":{"ha":1099,"x_min":0,"x_max":0,"o":"m 1133 446 b 897 892 1133 625 1039 828 l 201 892 b -35 446 60 828 -35 625 b 201 0 -35 268 60 64 l 897 0 b 1133 446 1039 64 1133 268 z m 549 182 b 275 453 401 182 275 286 b 549 722 275 619 401 722 b 824 453 697 722 824 619 b 549 182 824 286 697 182 z "},"p":{"ha":1083,"x_min":0,"x_max":0,"o":"m 533 710 b 808 440 682 710 808 607 b 533 169 808 272 682 169 b 324 261 451 169 375 203 l 324 619 b 533 710 375 676 451 710 z m 453 -318 b 324 -206 368 -304 324 -254 l 324 0 l 882 0 b 1118 446 1024 64 1118 268 b 882 892 1118 625 1024 828 l 186 892 b 53 774 133 869 85 821 l 53 -206 b -76 -318 53 -254 8 -304 z "},"q":{"ha":1083,"x_min":0,"x_max":0,"o":"m 549 710 b 760 619 632 710 708 676 l 760 261 b 549 169 708 203 632 169 b 275 440 401 169 275 272 b 549 710 275 607 401 710 z m 1160 -318 b 1031 -206 1075 -304 1031 -254 l 1031 774 b 897 892 999 821 949 869 l 201 892 b -35 446 60 828 -35 625 b 201 0 -35 268 60 64 l 760 0 l 760 -206 b 631 -318 760 -254 715 -304 z "},"r":{"ha":1119,"x_min":0,"x_max":0,"o":"m 675 81 b 715 1 708 43 715 19 b 631 -94 715 -43 681 -82 l 1207 -94 b 1028 65 1139 -54 1108 -22 l 790 325 b 885 556 854 393 885 472 b 640 892 885 696 794 842 l -12 892 b 115 779 71 878 115 828 l 115 114 b -12 0 115 64 71 14 l 517 0 b 388 114 432 14 388 64 l 388 701 l 415 701 b 610 524 531 701 610 625 b 454 329 610 421 550 358 z "},"s":{"ha":883,"x_min":0,"x_max":0,"o":"m 849 0 b 940 229 890 47 940 122 b 729 549 940 376 885 481 b 347 614 653 582 429 596 b 283 692 304 624 283 651 b 400 768 283 754 346 768 b 832 622 565 768 733 707 b 929 768 885 638 929 704 b 869 892 929 819 904 860 l 22 892 b -37 704 -3 865 -37 790 b 78 468 -37 621 0 528 b 507 351 164 401 322 364 b 604 264 572 346 604 311 b 332 163 604 176 515 163 b 28 251 165 163 99 197 b -50 118 -11 225 -50 179 b -3 0 -50 61 -26 24 z "},"t":{"ha":783,"x_min":0,"x_max":0,"o":"m 128 0 l 656 0 b 528 114 572 14 528 64 l 528 663 l 656 663 b 783 544 740 663 768 604 l 783 892 l 0 892 l 0 544 b 129 663 15 604 43 663 l 256 663 l 256 114 b 150 4 256 68 219 24 l 150 6 b 149 4 149 6 149 4 z "},"u":{"ha":1033,"x_min":0,"x_max":0,"o":"m 388 779 b 517 892 388 828 432 878 l -12 892 b 115 779 71 878 115 828 l 115 332 b 319 0 115 167 193 54 l 713 0 b 918 332 839 54 918 167 l 918 779 b 1046 892 918 828 963 878 l 517 892 b 646 779 601 878 646 828 l 646 321 b 517 203 646 271 603 203 b 388 321 431 203 388 271 z "},"v":{"ha":1106,"x_min":0,"x_max":0,"o":"m 639 892 b 715 796 688 879 715 842 b 704 749 715 781 711 764 l 554 382 l 404 747 b 393 794 397 764 393 779 b 468 892 393 842 426 878 l -12 892 b 115 681 25 851 53 810 l 557 -240 l 990 690 b 1119 892 1046 810 1076 850 z "},"w":{"ha":1708,"x_min":0,"x_max":0,"o":"m 1242 892 b 1318 796 1290 879 1318 842 b 1307 749 1318 781 1314 764 l 1157 367 l 857 1132 l 554 367 l 404 747 b 393 794 397 764 393 779 b 468 892 393 842 426 878 l -12 892 b 115 681 25 851 53 810 l 557 -240 l 853 396 l 1160 -240 l 1593 690 b 1721 892 1649 810 1679 850 z "},"x":{"ha":1174,"x_min":0,"x_max":0,"o":"m 388 1 b 429 81 388 32 403 50 l 583 254 l 726 81 b 765 1 758 42 765 18 b 682 -94 765 -43 732 -82 l 1260 -94 b 1082 65 1193 -54 1160 -25 l 761 433 l 1007 733 b 1185 892 1083 821 1113 847 l 625 892 b 710 796 675 879 710 842 b 678 725 710 775 697 749 l 597 625 l 514 725 b 482 796 492 751 482 774 b 565 892 482 842 517 879 l -12 892 b 165 733 53 850 86 821 l 415 436 l 90 65 b -87 -94 10 -22 -21 -50 l 471 -94 b 388 1 422 -82 388 -43 z "},"y":{"ha":1106,"x_min":0,"x_max":0,"o":"m 639 892 b 715 796 688 879 715 842 b 704 749 715 781 711 764 l 554 367 l 404 747 b 393 794 397 764 393 779 b 468 892 393 842 426 878 l -12 892 b 115 681 25 851 54 810 l 411 60 b 214 -117 340 -83 286 -117 b 86 0 156 -117 97 -75 b -82 -165 -7 -3 -82 -75 b -7 -318 -82 -235 -53 -283 l 456 -318 b 683 32 554 -247 613 -121 l 990 690 b 1119 892 1046 810 1076 850 z "},"z":{"ha":831,"x_min":0,"x_max":0,"o":"m -25 0 l 831 0 l 831 347 b 703 229 815 288 788 229 l 432 229 l 763 778 b 844 892 801 842 822 872 l 36 892 l 36 544 b 164 663 51 604 79 663 l 407 663 l 64 115 b -25 0 21 47 -1 18 z "},"{":{"ha":440,"x_min":0,"x_max":0,"o":"m 39 464 l 39 351 b 115 276 85 351 115 326 l 115 -160 b 414 -425 115 -328 239 -425 b 289 -262 343 -410 289 -346 l 289 235 b 165 408 289 313 240 382 b 289 581 240 433 289 503 l 289 1078 b 414 1242 289 1161 343 1226 b 115 975 239 1242 115 1143 l 115 539 b 39 464 115 489 85 464 z "},"|":{"ha":482,"x_min":0,"x_max":0,"o":"m 147 -165 l 321 -165 l 321 1022 l 147 1022 z "},"}":{"ha":440,"x_min":0,"x_max":0,"o":"m 401 464 b 325 539 357 464 325 489 l 325 975 b 26 1242 325 1143 203 1242 b 151 1078 99 1226 151 1161 l 151 581 b 275 408 151 503 200 433 b 151 235 200 382 151 313 l 151 -262 b 26 -425 151 -346 99 -410 b 325 -160 203 -425 325 -328 l 325 276 b 401 351 325 326 357 351 z "},"~":{"ha":836,"x_min":0,"x_max":0,"o":"m 589 369 b 794 436 661 369 744 392 l 794 610 b 596 506 754 556 706 506 b 419 568 532 506 481 540 b 251 610 365 593 315 610 b 46 543 178 610 94 588 l 46 371 b 243 475 82 428 133 475 b 589 369 356 475 446 369 z "}," ":{"ha":411,"x_min":0,"x_max":0,"o":""},"¡":{"ha":372,"x_min":0,"x_max":0,"o":"m 357 721 b 186 892 357 817 282 892 b 14 721 90 892 14 817 b 186 549 14 625 90 549 b 357 721 282 549 357 625 z m 296 510 l 75 510 b 21 250 72 401 69 332 b -43 86 -17 188 -43 142 b -14 0 -43 57 -33 26 l 385 0 b 414 86 404 26 414 57 b 350 250 414 142 388 188 b 296 510 301 332 299 401 z "},"¢":{"ha":946,"x_min":0,"x_max":0,"o":"m 471 -171 l 601 -171 l 601 0 l 879 0 b 940 136 907 24 940 65 b 774 301 940 224 865 301 b 601 186 733 232 671 196 l 601 718 b 768 622 667 706 731 674 b 800 618 779 619 790 618 b 940 758 888 618 940 683 b 875 892 940 819 921 868 l 601 892 l 601 1069 l 471 1069 l 471 892 l 201 892 b -35 446 60 828 -35 625 b 201 0 -35 268 60 64 l 471 0 z m 275 453 b 471 713 275 589 360 683 l 471 193 b 275 453 360 222 275 315 z "},"£":{"ha":849,"x_min":0,"x_max":0,"o":"m -4 425 l 122 425 b 206 263 154 374 189 322 b 74 304 163 285 118 304 b -110 108 -33 304 -110 208 b -76 0 -110 71 -100 33 l 331 0 b 364 71 346 21 357 43 b 496 0 400 42 436 19 l 857 0 b 917 138 892 29 917 75 b 749 303 917 222 849 290 b 563 181 719 225 644 181 b 394 228 507 181 447 190 b 438 408 413 285 438 339 b 436 425 438 413 436 419 l 747 425 l 747 525 l 408 525 b 397 586 403 546 397 565 b 561 731 397 693 468 731 b 757 619 646 731 733 703 b 779 618 764 618 772 618 b 915 756 863 618 915 683 b 853 892 915 811 904 860 l 236 892 b 54 624 129 847 54 736 b 71 525 54 588 60 554 l -4 525 z "},"¤":{"ha":999,"x_min":0,"x_max":0,"o":"m 90 224 b 57 143 67 200 57 178 b 163 35 57 83 103 35 b 244 68 193 33 222 47 l 332 153 b 499 115 379 128 435 115 b 664 153 563 115 617 128 l 749 68 b 831 35 771 46 804 35 b 939 143 890 35 939 83 b 906 224 939 176 928 201 l 794 336 b 810 475 803 381 810 426 b 794 617 810 526 803 572 l 906 729 b 939 810 928 751 939 776 b 831 917 939 871 890 917 b 749 883 803 917 769 904 l 664 797 b 499 838 617 824 563 838 b 332 797 435 838 379 824 l 244 883 b 163 917 224 904 190 917 b 57 810 103 917 57 871 b 90 729 57 778 67 750 l 203 617 b 185 475 193 572 185 526 b 203 336 185 426 193 381 z m 386 475 b 499 642 386 599 417 642 b 610 475 578 642 610 599 b 499 310 610 351 578 310 b 386 475 417 310 386 351 z "},"¥":{"ha":1008,"x_min":0,"x_max":0,"o":"m 49 526 l 49 394 l 324 394 l 369 319 l 49 319 l 49 189 l 371 189 l 371 114 b 242 0 371 64 326 14 l 771 0 b 642 114 686 14 642 64 l 642 189 l 964 189 l 964 319 l 642 319 l 686 394 l 964 394 l 964 526 l 764 526 l 900 751 b 1015 892 950 833 976 863 l 581 892 b 650 825 625 883 650 857 b 642 792 650 814 649 803 l 504 536 l 368 792 b 358 824 363 803 358 814 b 426 892 358 857 390 882 l -8 892 b 107 744 25 864 51 835 l 242 526 z "},"¦":{"ha":482,"x_min":0,"x_max":0,"o":"m 147 -165 l 321 -165 l 321 301 l 147 301 z m 321 1022 l 147 1022 l 147 593 l 321 593 z "},"§":{"ha":814,"x_min":0,"x_max":0,"o":"m 764 325 b 324 672 764 639 324 532 b 463 757 324 731 389 757 b 569 735 504 757 531 749 b 661 696 607 719 625 696 b 742 807 722 696 742 763 b 650 892 742 847 703 874 l 268 892 b 81 650 154 857 81 757 b 206 474 81 565 136 504 b 63 269 119 436 63 360 b 522 -100 63 -25 522 56 b 363 -178 522 -175 422 -178 b 157 -121 286 -178 221 -158 b 94 -93 139 -111 117 -93 b 38 -162 49 -93 38 -131 b 174 -318 38 -242 100 -290 l 563 -318 b 749 -56 672 -276 749 -193 b 656 129 749 25 700 93 b 764 325 721 178 764 224 z m 290 288 b 429 368 290 343 347 368 b 554 288 513 368 554 343 b 422 208 554 233 513 208 b 290 288 335 208 290 233 z "},"¨":{"ha":589,"x_min":0,"x_max":0,"o":"m 336 1092 b 433 996 336 1039 379 996 b 532 1092 488 996 532 1039 b 433 1190 532 1147 488 1190 b 336 1092 379 1190 336 1147 z m 56 1092 b 153 996 56 1039 100 996 b 251 1092 208 996 251 1039 b 153 1190 251 1147 208 1190 b 56 1092 100 1190 56 1147 z "},"©":{"ha":1099,"x_min":0,"x_max":0,"o":"m 1133 446 b 897 892 1133 625 1039 828 l 201 892 b -35 446 60 828 -35 625 b 201 0 -35 268 60 64 l 897 0 b 1133 446 1039 64 1133 268 z m 549 63 b 154 453 336 63 154 211 b 549 842 154 693 336 842 b 944 453 763 842 944 693 b 549 63 944 211 763 63 z m 568 318 b 425 460 492 318 425 372 b 568 600 425 547 492 600 b 683 547 610 600 657 582 l 700 547 b 774 619 746 547 774 579 b 569 738 774 707 650 738 b 264 456 396 738 264 629 b 558 172 264 286 392 172 b 774 294 654 172 774 201 b 686 381 774 340 733 379 b 568 318 660 335 617 318 z "},"ª":{"ha":646,"x_min":0,"x_max":0,"o":"m 275 397 b 240 457 254 408 240 435 b 243 476 240 464 240 471 l 394 476 b 396 460 396 471 396 465 b 363 397 396 435 383 413 l 640 397 b 547 547 619 422 596 446 l 317 1031 l 90 540 b -4 397 50 454 29 428 z m 318 718 l 367 588 l 271 588 z "},"«":{"ha":817,"x_min":0,"x_max":0,"o":"m 486 208 l 486 381 l 729 208 l 729 776 l 486 604 l 486 776 l 88 493 z "},"¬":{"ha":836,"x_min":0,"x_max":0,"o":"m 43 565 l 43 413 l 640 413 l 640 0 l 794 0 l 794 565 z "},"®":{"ha":1099,"x_min":0,"x_max":0,"o":"m 1133 446 b 897 892 1133 625 1039 828 l 201 892 b -35 446 60 828 -35 625 b 201 0 -35 268 60 64 l 897 0 b 1133 446 1039 64 1133 268 z m 549 63 b 154 453 336 63 154 211 b 549 842 154 693 336 842 b 944 453 763 842 944 693 b 549 63 944 211 763 63 z m 574 315 b 594 274 592 296 594 283 b 550 224 594 250 576 231 l 851 224 b 758 307 817 244 800 261 l 678 393 b 728 514 711 429 728 471 b 600 689 728 588 681 663 l 258 689 b 326 631 301 682 326 656 l 326 283 b 258 224 326 256 301 231 l 535 224 b 468 283 490 231 468 256 l 468 590 l 482 590 b 585 497 543 590 585 550 b 501 394 585 443 553 410 z "},"¯":{"ha":610,"x_min":0,"x_max":0,"o":"m 44 1046 l 564 1046 l 564 1167 l 44 1167 z "},"°":{"ha":718,"x_min":0,"x_max":0,"o":"m 664 836 b 539 1069 664 931 614 1036 l 178 1069 b 54 836 103 1036 54 931 b 178 603 54 742 103 636 l 539 603 b 664 836 614 636 664 742 z m 358 699 b 215 840 283 699 215 750 b 358 981 215 928 283 981 b 501 840 435 981 501 928 b 358 699 501 750 435 699 z "},"±":{"ha":836,"x_min":0,"x_max":0,"o":"m 342 864 l 342 565 l 43 565 l 43 413 l 342 413 l 342 114 l 494 114 l 494 413 l 794 413 l 794 565 l 494 565 l 494 864 z m 43 -51 l 794 -51 l 794 101 l 43 101 z "},"²":{"ha":468,"x_min":0,"x_max":0,"o":"m 465 782 b 431 890 465 829 444 872 l 31 890 b -7 817 8 872 -7 847 b 54 728 -7 772 24 743 b 193 808 94 786 136 808 b 269 738 238 808 269 775 b 207 629 269 694 246 667 l 46 474 b -49 396 11 440 -19 415 l 449 396 l 449 592 b 388 533 440 563 426 533 l 301 533 b 465 782 385 593 465 674 z "},"³":{"ha":485,"x_min":0,"x_max":0,"o":"m 417 817 b 478 890 436 849 450 867 l 14 890 l 14 690 b 75 751 22 722 35 751 l 208 751 l 115 606 b 160 613 142 613 151 613 b 300 475 240 613 300 547 b 160 338 300 396 236 338 b 43 403 115 338 71 358 b -58 306 -12 401 -58 357 b -19 224 -58 264 -37 239 l 349 224 b 481 461 411 264 481 347 b 343 693 481 574 410 654 z "},"´":{"ha":489,"x_min":0,"x_max":0,"o":"m 131 1190 l 68 981 l 421 1190 z "},"¶":{"ha":1261,"x_min":0,"x_max":0,"o":"m 751 -326 l 751 781 b 874 726 800 779 843 760 l 874 -326 l 1039 -326 l 1039 819 b 957 892 1019 849 989 878 l 247 892 b 103 621 161 854 103 729 b 247 349 103 513 161 388 l 586 349 l 586 -326 z m 458 781 b 586 726 508 781 556 761 l 586 508 b 458 453 556 472 508 453 b 292 617 368 453 292 515 b 458 781 292 718 368 781 z "},"·":{"ha":372,"x_min":0,"x_max":0,"o":"m 14 490 b 185 319 14 394 89 319 b 357 490 281 319 357 394 b 185 663 357 586 281 663 b 14 490 89 663 14 586 z "},"¸":{"ha":536,"x_min":0,"x_max":0,"o":"m 79 -356 l 457 -356 l 269 -39 z "},"¹":{"ha":315,"x_min":0,"x_max":0,"o":"m 8 888 b 75 817 54 883 75 860 l 75 450 b 10 396 75 426 54 403 l 301 396 b 236 450 258 403 236 426 l 236 989 z "},"º":{"ha":642,"x_min":0,"x_max":0,"o":"m 639 644 b 504 892 639 743 585 856 l 131 892 b -4 644 50 856 -4 743 b 131 397 -4 547 50 433 l 506 397 b 639 644 585 433 639 547 z m 317 511 b 178 647 242 511 178 564 b 317 786 178 733 242 786 b 457 647 393 786 457 733 b 317 511 457 564 393 511 z "},"»":{"ha":817,"x_min":0,"x_max":0,"o":"m 729 493 l 331 776 l 331 604 l 88 776 l 88 208 l 331 381 l 331 208 z "},"¼":{"ha":932,"x_min":0,"x_max":0,"o":"m -125 888 b -58 817 -79 883 -58 860 l -58 450 b -124 396 -58 426 -79 403 l 168 396 b 103 450 125 403 103 426 l 103 989 z m -32 0 l 154 0 l 735 892 l 549 892 z m 267 0 l 607 0 l 607 -118 b 543 -172 607 -142 583 -162 l 832 -172 b 768 -118 790 -162 768 -142 l 768 0 l 886 0 l 886 199 b 824 138 876 168 864 138 l 768 138 l 768 639 z m 529 138 l 607 239 l 607 138 z "},"½":{"ha":996,"x_min":0,"x_max":0,"o":"m -125 888 b -58 817 -79 883 -58 860 l -58 450 b -124 396 -58 426 -79 403 l 168 396 b 103 450 125 403 103 426 l 103 989 z m -32 0 l 154 0 l 735 892 l 549 892 z m 950 386 b 915 494 950 433 929 476 l 515 494 b 478 421 493 476 478 451 b 539 332 478 376 508 347 b 678 413 579 390 621 413 b 754 342 722 413 754 379 b 692 233 754 299 731 271 l 531 78 b 436 0 496 44 465 19 l 933 0 l 933 196 b 872 138 925 167 911 138 l 786 138 b 950 386 869 197 950 278 z "},"¾":{"ha":1101,"x_min":0,"x_max":0,"o":"m 349 817 b 410 890 368 849 382 867 l -54 890 l -54 690 b 7 751 -46 722 -33 751 l 140 751 l 47 606 b 92 613 74 613 83 613 b 232 475 172 613 232 547 b 92 338 232 396 168 338 b -25 403 47 338 3 358 b -126 306 -81 401 -126 357 b -87 224 -126 264 -106 239 l 281 224 b 413 461 343 264 413 347 b 275 693 413 574 342 654 z m 204 0 l 390 0 l 971 892 l 785 892 z m 436 0 l 776 0 l 776 -118 b 713 -172 776 -142 753 -162 l 1001 -172 b 938 -118 960 -162 938 -142 l 938 0 l 1056 0 l 1056 199 b 993 138 1046 168 1033 138 l 938 138 l 938 639 z m 699 138 l 776 239 l 776 138 z "},"¿":{"ha":781,"x_min":0,"x_max":0,"o":"m 558 721 b 388 892 558 817 483 892 b 215 721 292 892 215 817 b 388 549 215 625 292 549 b 558 721 483 549 558 625 z m -35 188 b 24 0 -35 101 0 26 l 754 0 b 815 124 790 29 815 72 b 719 271 815 199 771 249 b 456 122 649 167 571 122 b 301 269 371 122 301 192 b 425 510 301 353 325 403 l 131 510 b -35 188 26 426 -35 317 z "},"À":{"ha":1106,"x_min":0,"x_max":0,"o":"m 263 1190 l 508 1044 l 138 247 b -12 0 60 82 28 42 l 468 0 b 392 96 418 13 392 50 b 401 144 392 111 394 128 l 401 146 l 703 146 b 713 99 708 129 713 113 b 639 0 713 50 679 14 l 1119 0 b 967 260 1086 33 1064 57 l 521 1190 z m 551 540 l 628 350 l 474 350 z "},"Á":{"ha":1106,"x_min":0,"x_max":0,"o":"m 576 1190 l 138 247 b -12 0 60 82 28 42 l 468 0 b 392 96 418 13 392 50 b 401 144 392 111 394 128 l 401 146 l 703 146 b 713 99 708 129 713 113 b 639 0 713 50 679 14 l 1119 0 b 967 260 1086 33 1064 57 l 593 1042 l 865 1190 z m 551 540 l 628 350 l 474 350 z "},"Â":{"ha":1106,"x_min":0,"x_max":0,"o":"m 297 981 l 478 981 l 138 247 b -12 0 61 82 28 42 l 468 0 b 392 96 418 13 392 50 b 401 144 392 111 394 128 l 401 146 l 703 146 b 713 99 708 129 713 113 b 639 0 713 50 679 14 l 1119 0 b 967 260 1086 33 1064 57 l 622 981 l 803 981 l 550 1190 z m 551 540 l 628 350 l 474 350 z "},"Ã":{"ha":1106,"x_min":0,"x_max":0,"o":"m 676 990 b 828 1044 731 990 792 1008 l 828 1189 b 683 1103 799 1144 764 1103 b 428 1190 601 1103 535 1190 b 276 1135 374 1190 313 1171 l 276 992 b 422 1078 303 1039 342 1078 b 510 1049 454 1078 481 1064 l 138 247 b -12 0 60 82 26 42 l 468 0 b 392 96 418 13 392 50 b 401 144 392 111 394 128 l 401 146 l 703 146 b 713 99 708 129 713 113 b 639 0 713 50 679 14 l 1119 0 b 967 260 1086 33 1064 57 l 613 999 b 676 990 632 993 654 990 z m 551 540 l 628 350 l 474 350 z "},"Ä":{"ha":1106,"x_min":0,"x_max":0,"o":"m 468 0 b 392 96 418 13 392 50 b 401 144 392 111 394 128 l 401 146 l 703 146 b 713 99 708 129 713 113 b 639 0 713 50 679 14 l 1119 0 b 967 260 1086 33 1064 57 l 549 1133 l 138 247 b -12 0 61 82 28 42 z m 551 540 l 628 350 l 474 350 z m 185 1092 b 282 996 185 1039 228 996 b 379 1092 336 996 379 1039 b 282 1190 379 1147 336 1190 b 185 1092 228 1190 185 1147 z m 717 1092 b 814 996 717 1039 760 996 b 911 1092 868 996 911 1039 b 814 1190 911 1147 868 1190 b 717 1092 760 1190 717 1147 z "},"Å":{"ha":1106,"x_min":0,"x_max":0,"o":"m 732 1054 b 658 1190 732 1108 703 1171 l 447 1190 b 375 1054 404 1171 375 1108 b 449 918 375 999 404 936 l 138 247 b -12 0 61 82 28 42 l 468 0 b 392 96 418 13 392 50 b 401 144 392 111 394 128 l 401 146 l 703 146 b 713 99 708 129 713 113 b 639 0 713 50 679 14 l 1119 0 b 967 260 1086 33 1064 57 l 653 918 b 732 1054 703 936 732 999 z m 551 540 l 628 350 l 474 350 z m 553 974 b 469 1057 508 974 469 1004 b 553 1138 469 1107 508 1138 b 638 1057 597 1138 638 1107 b 553 974 638 1004 597 974 z "},"Æ":{"ha":1757,"x_min":0,"x_max":0,"o":"m 468 0 b 392 96 418 13 392 50 b 401 144 392 111 394 128 l 401 146 l 703 146 b 713 99 708 129 713 113 b 639 0 713 50 679 14 l 1650 0 b 1751 208 1710 39 1751 124 b 1688 375 1751 267 1736 329 l 1786 375 b 1792 446 1789 396 1792 421 b 1556 892 1792 625 1697 828 l 860 892 b 722 769 807 868 761 825 l 549 1133 l 138 247 b -12 0 61 82 28 42 z m 1208 182 b 943 375 1079 182 988 253 l 1472 375 b 1208 182 1442 260 1342 182 z m 1208 722 b 1439 604 1306 722 1399 676 l 976 604 b 1208 722 1026 678 1110 722 z m 551 540 l 628 350 l 474 350 z "},"Ç":{"ha":946,"x_min":0,"x_max":0,"o":"m 549 182 b 275 453 401 182 275 286 b 549 722 275 619 401 722 b 768 622 629 722 719 688 b 800 618 779 619 790 618 b 940 758 888 618 940 683 b 875 892 940 819 921 868 l 201 892 b -35 446 60 828 -35 625 b 201 0 -35 268 60 64 l 879 0 b 940 136 907 24 940 65 b 774 301 940 224 865 301 b 549 182 724 215 642 182 z m 306 -356 l 683 -356 l 496 -39 z "},"È":{"ha":1099,"x_min":0,"x_max":0,"o":"m 1128 375 b 1133 446 1131 396 1133 421 b 897 892 1133 625 1039 828 l 201 892 b -35 446 60 828 -35 625 b 201 0 -35 268 60 64 l 992 0 b 1093 208 1051 39 1093 124 b 1028 375 1093 267 1076 329 z m 549 182 b 285 375 421 182 329 253 l 813 375 b 549 182 782 260 683 182 z m 549 722 b 779 604 647 722 740 676 l 317 604 b 549 722 367 678 451 722 z m 308 1190 l 661 981 l 597 1190 z "},"É":{"ha":1099,"x_min":0,"x_max":0,"o":"m 1128 375 b 1133 446 1131 396 1133 421 b 897 892 1133 625 1039 828 l 201 892 b -35 446 60 828 -35 625 b 201 0 -35 268 60 64 l 992 0 b 1093 208 1051 39 1093 124 b 1028 375 1093 267 1076 329 z m 549 182 b 285 375 421 182 329 253 l 813 375 b 549 182 782 260 683 182 z m 549 722 b 779 604 647 722 740 676 l 317 604 b 549 722 367 678 451 722 z m 499 1190 l 436 981 l 789 1190 z "},"Ê":{"ha":1099,"x_min":0,"x_max":0,"o":"m 1128 375 b 1133 446 1131 396 1133 421 b 897 892 1133 625 1039 828 l 201 892 b -35 446 60 828 -35 625 b 201 0 -35 268 60 64 l 992 0 b 1093 208 1051 39 1093 124 b 1028 375 1093 267 1076 329 z m 549 182 b 285 375 421 182 329 253 l 813 375 b 549 182 782 260 683 182 z m 549 722 b 779 604 647 722 740 676 l 317 604 b 549 722 367 678 451 722 z m 294 981 l 801 981 l 549 1190 z "},"Ë":{"ha":1099,"x_min":0,"x_max":0,"o":"m 1128 375 b 1133 446 1131 396 1133 421 b 897 892 1133 625 1039 828 l 201 892 b -35 446 60 828 -35 625 b 201 0 -35 268 60 64 l 992 0 b 1093 208 1051 39 1093 124 b 1028 375 1093 267 1076 329 z m 549 182 b 285 375 421 182 329 253 l 813 375 b 549 182 782 260 683 182 z m 549 722 b 779 604 647 722 740 676 l 317 604 b 549 722 367 678 451 722 z m 590 1092 b 688 996 590 1039 633 996 b 786 1092 742 996 786 1039 b 688 1190 786 1147 742 1190 b 590 1092 633 1190 590 1147 z m 310 1092 b 407 996 310 1039 354 996 b 506 1092 463 996 506 1039 b 407 1190 506 1147 463 1190 b 310 1092 354 1190 310 1147 z "},"Ì":{"ha":503,"x_min":0,"x_max":0,"o":"m -12 892 b 115 779 71 878 115 828 l 115 114 b -12 0 115 64 71 14 l 517 0 b 388 114 432 14 388 64 l 388 779 b 517 892 388 828 432 878 z m 13 1190 l 365 981 l 301 1190 z "},"Í":{"ha":503,"x_min":0,"x_max":0,"o":"m -12 892 b 115 779 71 878 115 828 l 115 114 b -12 0 115 64 71 14 l 517 0 b 388 114 432 14 388 64 l 388 779 b 517 892 388 828 432 878 z m 201 1190 l 139 981 l 492 1190 z "},"Î":{"ha":503,"x_min":0,"x_max":0,"o":"m -12 892 b 115 779 71 878 115 828 l 115 114 b -12 0 115 64 71 14 l 517 0 b 388 114 432 14 388 64 l 388 779 b 517 892 388 828 432 878 z m -1 981 l 506 981 l 253 1190 z "},"Ï":{"ha":503,"x_min":0,"x_max":0,"o":"m -12 892 b 115 779 71 878 115 828 l 115 114 b -12 0 115 64 71 14 l 517 0 b 388 114 432 14 388 64 l 388 779 b 517 892 388 828 432 878 z m 294 1092 b 392 996 294 1039 338 996 b 490 1092 446 996 490 1039 b 392 1190 490 1147 446 1190 b 294 1092 338 1190 294 1147 z m 14 1092 b 111 996 14 1039 58 996 b 210 1092 167 996 210 1039 b 111 1190 210 1147 167 1190 b 14 1092 58 1190 14 1147 z "},"Ð":{"ha":1083,"x_min":0,"x_max":0,"o":"m 379 989 l 757 989 b 760 957 758 978 760 965 l 760 892 l 201 892 b -35 446 60 828 -35 625 b 201 0 -35 268 60 64 l 897 0 b 1031 118 949 24 999 71 l 1031 956 b 1028 989 1031 965 1029 978 l 1083 989 l 1083 1069 l 1006 1069 b 918 1190 985 1119 953 1168 l 631 1190 b 733 1069 679 1168 714 1119 l 379 1069 z m 549 182 b 275 453 401 182 275 286 b 549 722 275 619 401 722 b 760 631 632 722 708 689 l 760 272 b 549 182 708 215 632 182 z "},"Ñ":{"ha":1040,"x_min":0,"x_max":0,"o":"m 517 892 l -12 892 b 115 779 71 878 115 828 l 115 114 b -12 0 115 64 71 14 l 517 0 b 388 114 432 14 388 64 l 388 375 l 924 -240 l 924 779 b 1053 892 924 828 968 878 l 524 892 b 653 779 608 878 653 828 l 653 474 l 388 779 b 517 892 388 828 432 878 z m 644 990 b 796 1044 697 990 758 1008 l 796 1189 b 650 1103 767 1144 731 1103 b 396 1190 569 1103 501 1190 b 244 1135 340 1190 279 1171 l 244 992 b 389 1078 271 1039 308 1078 b 644 990 472 1078 539 990 z "},"Ò":{"ha":1099,"x_min":0,"x_max":0,"o":"m 1133 446 b 897 892 1133 625 1039 828 l 201 892 b -35 446 60 828 -35 625 b 201 0 -35 268 60 64 l 897 0 b 1133 446 1039 64 1133 268 z m 549 182 b 275 453 401 182 275 286 b 549 722 275 619 401 722 b 824 453 697 722 824 619 b 549 182 824 286 697 182 z m 308 1190 l 661 981 l 597 1190 z "},"Ó":{"ha":1099,"x_min":0,"x_max":0,"o":"m 1133 446 b 897 892 1133 625 1039 828 l 201 892 b -35 446 60 828 -35 625 b 201 0 -35 268 60 64 l 897 0 b 1133 446 1039 64 1133 268 z m 549 182 b 275 453 401 182 275 286 b 549 722 275 619 401 722 b 824 453 697 722 824 619 b 549 182 824 286 697 182 z m 499 1190 l 436 981 l 789 1190 z "},"Ô":{"ha":1099,"x_min":0,"x_max":0,"o":"m 1133 446 b 897 892 1133 625 1039 828 l 201 892 b -35 446 60 828 -35 625 b 201 0 -35 268 60 64 l 897 0 b 1133 446 1039 64 1133 268 z m 549 182 b 275 453 401 182 275 286 b 549 722 275 619 401 722 b 824 453 697 722 824 619 b 549 182 824 286 697 182 z m 294 981 l 801 981 l 549 1190 z "},"Õ":{"ha":1099,"x_min":0,"x_max":0,"o":"m 1133 446 b 897 892 1133 625 1039 828 l 201 892 b -35 446 60 828 -35 625 b 201 0 -35 268 60 64 l 897 0 b 1133 446 1039 64 1133 268 z m 549 182 b 275 453 401 182 275 286 b 549 722 275 619 401 722 b 824 453 697 722 824 619 b 549 182 824 286 697 182 z m 674 990 b 825 1044 726 990 788 1008 l 825 1189 b 679 1103 796 1144 760 1103 b 425 1190 599 1103 531 1190 b 274 1135 369 1190 308 1171 l 274 992 b 418 1078 300 1039 338 1078 b 674 990 501 1078 568 990 z "},"Ö":{"ha":1099,"x_min":0,"x_max":0,"o":"m 1133 446 b 897 892 1133 625 1039 828 l 201 892 b -35 446 60 828 -35 625 b 201 0 -35 268 60 64 l 897 0 b 1133 446 1039 64 1133 268 z m 549 182 b 275 453 401 182 275 286 b 549 722 275 619 401 722 b 824 453 697 722 824 619 b 549 182 824 286 697 182 z m 590 1092 b 688 996 590 1039 633 996 b 786 1092 742 996 786 1039 b 688 1190 786 1147 742 1190 b 590 1092 633 1190 590 1147 z m 310 1092 b 407 996 310 1039 354 996 b 506 1092 463 996 506 1039 b 407 1190 506 1147 463 1190 b 310 1092 354 1190 310 1147 z "},"×":{"ha":836,"x_min":0,"x_max":0,"o":"m 629 808 l 419 597 l 208 808 l 100 700 l 311 489 l 100 278 l 208 169 l 419 381 l 631 169 l 739 278 l 528 489 l 738 700 z "},"Ø":{"ha":1099,"x_min":0,"x_max":0,"o":"m 74 -224 l 260 -224 l 388 0 l 897 0 b 1133 446 1039 64 1133 268 b 897 892 1133 625 1039 828 l 999 1069 l 811 1069 l 710 892 l 201 892 b -35 446 60 828 -35 625 b 201 0 -35 268 60 64 z m 275 453 b 549 722 275 619 401 722 b 610 717 569 722 590 719 l 350 260 b 275 453 303 307 275 372 z m 549 182 b 494 186 531 182 513 183 l 751 640 b 824 453 796 594 824 531 b 549 182 824 286 697 182 z "},"Ù":{"ha":1033,"x_min":0,"x_max":0,"o":"m 388 779 b 517 892 388 828 432 878 l -12 892 b 115 779 71 878 115 828 l 115 332 b 319 0 115 167 193 54 l 713 0 b 918 332 839 54 918 167 l 918 779 b 1046 892 918 828 963 878 l 517 892 b 646 779 601 878 646 828 l 646 321 b 517 203 646 271 603 203 b 388 321 431 203 388 271 z m 276 1190 l 629 981 l 565 1190 z "},"Ú":{"ha":1033,"x_min":0,"x_max":0,"o":"m 388 779 b 517 892 388 828 432 878 l -12 892 b 115 779 71 878 115 828 l 115 332 b 319 0 115 167 193 54 l 713 0 b 918 332 839 54 918 167 l 918 779 b 1046 892 918 828 963 878 l 517 892 b 646 779 601 878 646 828 l 646 321 b 517 203 646 271 603 203 b 388 321 431 203 388 271 z m 467 1190 l 404 981 l 757 1190 z "},"Û":{"ha":1033,"x_min":0,"x_max":0,"o":"m 388 779 b 517 892 388 828 432 878 l -12 892 b 115 779 71 878 115 828 l 115 332 b 319 0 115 167 193 54 l 713 0 b 918 332 839 54 918 167 l 918 779 b 1046 892 918 828 963 878 l 517 892 b 646 779 601 878 646 828 l 646 321 b 517 203 646 271 603 203 b 388 321 431 203 388 271 z m 264 981 l 771 981 l 518 1190 z "},"Ü":{"ha":1033,"x_min":0,"x_max":0,"o":"m 388 779 b 517 892 388 828 432 878 l -12 892 b 115 779 71 878 115 828 l 115 332 b 319 0 115 167 193 54 l 713 0 b 918 332 839 54 918 167 l 918 779 b 1046 892 918 828 963 878 l 517 892 b 646 779 601 878 646 828 l 646 321 b 517 203 646 271 603 203 b 388 321 431 203 388 271 z m 560 1092 b 657 996 560 1039 603 996 b 756 1092 711 996 756 1039 b 657 1190 756 1147 711 1190 b 560 1092 603 1190 560 1147 z m 279 1092 b 376 996 279 1039 324 996 b 475 1092 432 996 475 1039 b 376 1190 475 1147 432 1190 b 279 1092 324 1190 279 1147 z "},"Ý":{"ha":1106,"x_min":0,"x_max":0,"o":"m 639 892 b 715 796 688 879 715 842 b 704 749 715 781 711 764 l 554 367 l 404 747 b 393 794 397 764 393 779 b 468 892 393 842 426 878 l -12 892 b 115 681 25 851 54 810 l 411 60 b 214 -117 340 -83 286 -117 b 86 0 156 -117 97 -75 b -82 -165 -7 -3 -82 -75 b -7 -318 -82 -235 -53 -283 l 456 -318 b 683 32 554 -247 613 -121 l 990 690 b 1119 892 1046 810 1076 850 z m 503 1190 l 440 981 l 793 1190 z "},"Þ":{"ha":1083,"x_min":0,"x_max":0,"o":"m 324 0 l 882 0 b 1118 446 1024 64 1118 268 b 882 892 1118 625 1024 828 l 324 892 l 324 956 b 453 1069 324 1006 368 1056 l -76 1069 b 53 956 8 1056 53 1006 l 53 -206 b -76 -318 53 -254 8 -304 l 453 -318 b 324 -206 368 -304 324 -254 z m 533 182 b 324 272 451 182 375 215 l 324 631 b 533 722 375 689 451 722 b 808 453 682 722 808 619 b 533 182 808 286 682 182 z "},"ß":{"ha":1739,"x_min":0,"x_max":0,"o":"m 1706 0 b 1797 229 1747 47 1797 122 b 1585 549 1797 376 1740 481 b 1204 614 1508 582 1286 596 b 1139 692 1161 624 1139 651 b 1257 768 1139 753 1200 768 b 1689 622 1422 768 1589 707 b 1785 768 1740 638 1785 704 b 1725 892 1785 819 1761 860 l 22 892 b -37 704 -3 865 -37 790 b 78 468 -37 621 0 528 b 507 351 164 401 322 364 b 604 264 572 346 604 311 b 332 163 604 178 518 163 b 28 251 165 163 99 197 b -50 118 -11 225 -50 179 b -3 0 -50 61 -26 24 z m 940 213 b 729 549 940 376 885 481 b 347 614 653 582 429 596 b 283 692 304 624 283 651 b 400 768 283 753 344 768 b 933 468 728 768 736 618 b 1364 351 1021 401 1179 365 b 1460 264 1428 347 1460 311 b 1189 163 1460 178 1375 163 b 940 213 1065 163 996 181 z "},"à":{"ha":1106,"x_min":0,"x_max":0,"o":"m 263 1190 l 508 1044 l 138 247 b -12 0 60 82 28 42 l 468 0 b 392 96 418 13 392 50 b 401 144 392 111 394 128 l 401 146 l 703 146 b 713 99 708 129 713 113 b 639 0 713 50 679 14 l 1119 0 b 967 260 1086 33 1064 57 l 521 1190 z m 551 540 l 628 350 l 474 350 z "},"á":{"ha":1106,"x_min":0,"x_max":0,"o":"m 576 1190 l 138 247 b -12 0 60 82 28 42 l 468 0 b 392 96 418 13 392 50 b 401 144 392 111 394 128 l 401 146 l 703 146 b 713 99 708 129 713 113 b 639 0 713 50 679 14 l 1119 0 b 967 260 1086 33 1064 57 l 593 1042 l 865 1190 z m 551 540 l 628 350 l 474 350 z "},"â":{"ha":1106,"x_min":0,"x_max":0,"o":"m 297 981 l 478 981 l 138 247 b -12 0 61 82 28 42 l 468 0 b 392 96 418 13 392 50 b 401 144 392 111 394 128 l 401 146 l 703 146 b 713 99 708 129 713 113 b 639 0 713 50 679 14 l 1119 0 b 967 260 1086 33 1064 57 l 622 981 l 803 981 l 550 1190 z m 551 540 l 628 350 l 474 350 z "},"ã":{"ha":1106,"x_min":0,"x_max":0,"o":"m 676 990 b 828 1044 731 990 792 1008 l 828 1189 b 683 1103 799 1144 764 1103 b 428 1190 601 1103 535 1190 b 276 1135 374 1190 313 1171 l 276 992 b 422 1078 303 1039 342 1078 b 510 1049 454 1078 481 1064 l 138 247 b -12 0 60 82 26 42 l 468 0 b 392 96 418 13 392 50 b 401 144 392 111 394 128 l 401 146 l 703 146 b 713 99 708 129 713 113 b 639 0 713 50 679 14 l 1119 0 b 967 260 1086 33 1064 57 l 613 999 b 676 990 632 993 654 990 z m 551 540 l 628 350 l 474 350 z "},"ä":{"ha":1106,"x_min":0,"x_max":0,"o":"m 468 0 b 392 96 418 13 392 50 b 401 144 392 111 394 128 l 401 146 l 703 146 b 713 99 708 129 713 113 b 639 0 713 50 679 14 l 1119 0 b 967 260 1086 33 1064 57 l 549 1133 l 138 247 b -12 0 61 82 28 42 z m 551 540 l 628 350 l 474 350 z m 185 1092 b 282 996 185 1039 228 996 b 379 1092 336 996 379 1039 b 282 1190 379 1147 336 1190 b 185 1092 228 1190 185 1147 z m 717 1092 b 814 996 717 1039 760 996 b 911 1092 868 996 911 1039 b 814 1190 911 1147 868 1190 b 717 1092 760 1190 717 1147 z "},"å":{"ha":1106,"x_min":0,"x_max":0,"o":"m 732 1054 b 658 1190 732 1108 703 1171 l 447 1190 b 375 1054 404 1171 375 1108 b 449 918 375 999 404 936 l 138 247 b -12 0 61 82 28 42 l 468 0 b 392 96 418 13 392 50 b 401 144 392 111 394 128 l 401 146 l 703 146 b 713 99 708 129 713 113 b 639 0 713 50 679 14 l 1119 0 b 967 260 1086 33 1064 57 l 653 918 b 732 1054 703 936 732 999 z m 551 540 l 628 350 l 474 350 z m 553 974 b 469 1057 508 974 469 1004 b 553 1138 469 1107 508 1138 b 638 1057 597 1138 638 1107 b 553 974 638 1004 597 974 z "},"æ":{"ha":1757,"x_min":0,"x_max":0,"o":"m 468 0 b 392 96 418 13 392 50 b 401 144 392 111 394 128 l 401 146 l 703 146 b 713 99 708 129 713 113 b 639 0 713 50 679 14 l 1650 0 b 1751 208 1710 39 1751 124 b 1688 375 1751 267 1736 329 l 1786 375 b 1792 446 1789 396 1792 421 b 1556 892 1792 625 1697 828 l 860 892 b 722 769 807 868 761 825 l 549 1133 l 138 247 b -12 0 61 82 28 42 z m 1208 182 b 943 375 1079 182 988 253 l 1472 375 b 1208 182 1442 260 1342 182 z m 1208 722 b 1439 604 1306 722 1399 676 l 976 604 b 1208 722 1026 678 1110 722 z m 551 540 l 628 350 l 474 350 z "},"ç":{"ha":946,"x_min":0,"x_max":0,"o":"m 549 182 b 275 453 401 182 275 286 b 549 722 275 619 401 722 b 768 622 629 722 719 688 b 800 618 779 619 790 618 b 940 758 888 618 940 683 b 875 892 940 819 921 868 l 201 892 b -35 446 60 828 -35 625 b 201 0 -35 268 60 64 l 879 0 b 940 136 907 24 940 65 b 774 301 940 224 865 301 b 549 182 724 215 642 182 z m 306 -356 l 683 -356 l 496 -39 z "},"è":{"ha":1099,"x_min":0,"x_max":0,"o":"m 1128 375 b 1133 446 1131 396 1133 421 b 897 892 1133 625 1039 828 l 201 892 b -35 446 60 828 -35 625 b 201 0 -35 268 60 64 l 992 0 b 1093 208 1051 39 1093 124 b 1028 375 1093 267 1076 329 z m 549 182 b 285 375 421 182 329 253 l 813 375 b 549 182 782 260 683 182 z m 549 722 b 779 604 647 722 740 676 l 317 604 b 549 722 367 678 451 722 z m 308 1190 l 661 981 l 597 1190 z "},"é":{"ha":1099,"x_min":0,"x_max":0,"o":"m 1128 375 b 1133 446 1131 396 1133 421 b 897 892 1133 625 1039 828 l 201 892 b -35 446 60 828 -35 625 b 201 0 -35 268 60 64 l 992 0 b 1093 208 1051 39 1093 124 b 1028 375 1093 267 1076 329 z m 549 182 b 285 375 421 182 329 253 l 813 375 b 549 182 782 260 683 182 z m 549 722 b 779 604 647 722 740 676 l 317 604 b 549 722 367 678 451 722 z m 499 1190 l 436 981 l 789 1190 z "},"ê":{"ha":1099,"x_min":0,"x_max":0,"o":"m 1128 375 b 1133 446 1131 396 1133 421 b 897 892 1133 625 1039 828 l 201 892 b -35 446 60 828 -35 625 b 201 0 -35 268 60 64 l 992 0 b 1093 208 1051 39 1093 124 b 1028 375 1093 267 1076 329 z m 549 182 b 285 375 421 182 329 253 l 813 375 b 549 182 782 260 683 182 z m 549 722 b 779 604 647 722 740 676 l 317 604 b 549 722 367 678 451 722 z m 294 981 l 801 981 l 549 1190 z "},"ë":{"ha":1099,"x_min":0,"x_max":0,"o":"m 1128 375 b 1133 446 1131 396 1133 421 b 897 892 1133 625 1039 828 l 201 892 b -35 446 60 828 -35 625 b 201 0 -35 268 60 64 l 992 0 b 1093 208 1051 39 1093 124 b 1028 375 1093 267 1076 329 z m 549 182 b 285 375 421 182 329 253 l 813 375 b 549 182 782 260 683 182 z m 549 722 b 779 604 647 722 740 676 l 317 604 b 549 722 367 678 451 722 z m 590 1092 b 688 996 590 1039 633 996 b 786 1092 742 996 786 1039 b 688 1190 786 1147 742 1190 b 590 1092 633 1190 590 1147 z m 310 1092 b 407 996 310 1039 354 996 b 506 1092 463 996 506 1039 b 407 1190 506 1147 463 1190 b 310 1092 354 1190 310 1147 z "},"ì":{"ha":503,"x_min":0,"x_max":0,"o":"m -12 892 b 115 779 71 878 115 828 l 115 114 b -12 0 115 64 71 14 l 517 0 b 388 114 432 14 388 64 l 388 779 b 517 892 388 828 432 878 z m 13 1190 l 365 981 l 301 1190 z "},"í":{"ha":503,"x_min":0,"x_max":0,"o":"m -12 892 b 115 779 71 878 115 828 l 115 114 b -12 0 115 64 71 14 l 517 0 b 388 114 432 14 388 64 l 388 779 b 517 892 388 828 432 878 z m 201 1190 l 139 981 l 492 1190 z "},"î":{"ha":503,"x_min":0,"x_max":0,"o":"m -12 892 b 115 779 71 878 115 828 l 115 114 b -12 0 115 64 71 14 l 517 0 b 388 114 432 14 388 64 l 388 779 b 517 892 388 828 432 878 z m -1 981 l 506 981 l 253 1190 z "},"ï":{"ha":503,"x_min":0,"x_max":0,"o":"m -12 892 b 115 779 71 878 115 828 l 115 114 b -12 0 115 64 71 14 l 517 0 b 388 114 432 14 388 64 l 388 779 b 517 892 388 828 432 878 z m 294 1092 b 392 996 294 1039 338 996 b 490 1092 446 996 490 1039 b 392 1190 490 1147 446 1190 b 294 1092 338 1190 294 1147 z m 14 1092 b 111 996 14 1039 58 996 b 210 1092 167 996 210 1039 b 111 1190 210 1147 167 1190 b 14 1092 58 1190 14 1147 z "},"ð":{"ha":1083,"x_min":0,"x_max":0,"o":"m 379 989 l 757 989 b 760 957 758 978 760 965 l 760 892 l 201 892 b -35 446 60 828 -35 625 b 201 0 -35 268 60 64 l 897 0 b 1031 118 949 24 999 71 l 1031 956 b 1028 989 1031 965 1029 978 l 1083 989 l 1083 1069 l 1006 1069 b 918 1190 985 1119 953 1168 l 631 1190 b 733 1069 679 1168 714 1119 l 379 1069 z m 549 182 b 275 453 401 182 275 286 b 549 722 275 619 401 722 b 760 631 632 722 708 689 l 760 272 b 549 182 708 215 632 182 z "},"ñ":{"ha":1040,"x_min":0,"x_max":0,"o":"m 517 892 l -12 892 b 115 779 71 878 115 828 l 115 114 b -12 0 115 64 71 14 l 517 0 b 388 114 432 14 388 64 l 388 375 l 924 -240 l 924 779 b 1053 892 924 828 968 878 l 524 892 b 653 779 608 878 653 828 l 653 474 l 388 779 b 517 892 388 828 432 878 z m 644 990 b 796 1044 697 990 758 1008 l 796 1189 b 650 1103 767 1144 731 1103 b 396 1190 569 1103 501 1190 b 244 1135 340 1190 279 1171 l 244 992 b 389 1078 271 1039 308 1078 b 644 990 472 1078 539 990 z "},"ò":{"ha":1099,"x_min":0,"x_max":0,"o":"m 1133 446 b 897 892 1133 625 1039 828 l 201 892 b -35 446 60 828 -35 625 b 201 0 -35 268 60 64 l 897 0 b 1133 446 1039 64 1133 268 z m 549 182 b 275 453 401 182 275 286 b 549 722 275 619 401 722 b 824 453 697 722 824 619 b 549 182 824 286 697 182 z m 308 1190 l 661 981 l 597 1190 z "},"ó":{"ha":1099,"x_min":0,"x_max":0,"o":"m 1133 446 b 897 892 1133 625 1039 828 l 201 892 b -35 446 60 828 -35 625 b 201 0 -35 268 60 64 l 897 0 b 1133 446 1039 64 1133 268 z m 549 182 b 275 453 401 182 275 286 b 549 722 275 619 401 722 b 824 453 697 722 824 619 b 549 182 824 286 697 182 z m 499 1190 l 436 981 l 789 1190 z "},"ô":{"ha":1099,"x_min":0,"x_max":0,"o":"m 1133 446 b 897 892 1133 625 1039 828 l 201 892 b -35 446 60 828 -35 625 b 201 0 -35 268 60 64 l 897 0 b 1133 446 1039 64 1133 268 z m 549 182 b 275 453 401 182 275 286 b 549 722 275 619 401 722 b 824 453 697 722 824 619 b 549 182 824 286 697 182 z m 294 981 l 801 981 l 549 1190 z "},"õ":{"ha":1099,"x_min":0,"x_max":0,"o":"m 1133 446 b 897 892 1133 625 1039 828 l 201 892 b -35 446 60 828 -35 625 b 201 0 -35 268 60 64 l 897 0 b 1133 446 1039 64 1133 268 z m 549 182 b 275 453 401 182 275 286 b 549 722 275 619 401 722 b 824 453 697 722 824 619 b 549 182 824 286 697 182 z m 674 990 b 825 1044 726 990 788 1008 l 825 1189 b 679 1103 796 1144 760 1103 b 425 1190 599 1103 531 1190 b 274 1135 369 1190 308 1171 l 274 992 b 418 1078 300 1039 338 1078 b 674 990 501 1078 568 990 z "},"ö":{"ha":1099,"x_min":0,"x_max":0,"o":"m 1133 446 b 897 892 1133 625 1039 828 l 201 892 b -35 446 60 828 -35 625 b 201 0 -35 268 60 64 l 897 0 b 1133 446 1039 64 1133 268 z m 549 182 b 275 453 401 182 275 286 b 549 722 275 619 401 722 b 824 453 697 722 824 619 b 549 182 824 286 697 182 z m 590 1092 b 688 996 590 1039 633 996 b 786 1092 742 996 786 1039 b 688 1190 786 1147 742 1190 b 590 1092 633 1190 590 1147 z m 310 1092 b 407 996 310 1039 354 996 b 506 1092 463 996 506 1039 b 407 1190 506 1147 463 1190 b 310 1092 354 1190 310 1147 z "},"÷":{"ha":836,"x_min":0,"x_max":0,"o":"m 43 413 l 794 413 l 794 565 l 43 565 z m 246 808 b 417 638 246 713 321 638 b 589 808 513 638 589 713 b 417 981 589 904 513 981 b 246 808 321 981 246 904 z m 246 171 b 417 0 246 75 321 0 b 589 171 513 0 589 75 b 417 343 589 267 513 343 b 246 171 321 343 246 267 z "},"ø":{"ha":1099,"x_min":0,"x_max":0,"o":"m 74 -224 l 260 -224 l 388 0 l 897 0 b 1133 446 1039 64 1133 268 b 897 892 1133 625 1039 828 l 999 1069 l 811 1069 l 710 892 l 201 892 b -35 446 60 828 -35 625 b 201 0 -35 268 60 64 z m 275 453 b 549 722 275 619 401 722 b 610 717 569 722 590 719 l 350 260 b 275 453 303 307 275 372 z m 549 182 b 494 186 531 182 513 183 l 751 640 b 824 453 796 594 824 531 b 549 182 824 286 697 182 z "},"ù":{"ha":1033,"x_min":0,"x_max":0,"o":"m 388 779 b 517 892 388 828 432 878 l -12 892 b 115 779 71 878 115 828 l 115 332 b 319 0 115 167 193 54 l 713 0 b 918 332 839 54 918 167 l 918 779 b 1046 892 918 828 963 878 l 517 892 b 646 779 601 878 646 828 l 646 321 b 517 203 646 271 603 203 b 388 321 431 203 388 271 z m 276 1190 l 629 981 l 565 1190 z "},"ú":{"ha":1033,"x_min":0,"x_max":0,"o":"m 388 779 b 517 892 388 828 432 878 l -12 892 b 115 779 71 878 115 828 l 115 332 b 319 0 115 167 193 54 l 713 0 b 918 332 839 54 918 167 l 918 779 b 1046 892 918 828 963 878 l 517 892 b 646 779 601 878 646 828 l 646 321 b 517 203 646 271 603 203 b 388 321 431 203 388 271 z m 467 1190 l 404 981 l 757 1190 z "},"û":{"ha":1033,"x_min":0,"x_max":0,"o":"m 388 779 b 517 892 388 828 432 878 l -12 892 b 115 779 71 878 115 828 l 115 332 b 319 0 115 167 193 54 l 713 0 b 918 332 839 54 918 167 l 918 779 b 1046 892 918 828 963 878 l 517 892 b 646 779 601 878 646 828 l 646 321 b 517 203 646 271 603 203 b 388 321 431 203 388 271 z m 264 981 l 771 981 l 518 1190 z "},"ü":{"ha":1033,"x_min":0,"x_max":0,"o":"m 388 779 b 517 892 388 828 432 878 l -12 892 b 115 779 71 878 115 828 l 115 332 b 319 0 115 167 193 54 l 713 0 b 918 332 839 54 918 167 l 918 779 b 1046 892 918 828 963 878 l 517 892 b 646 779 601 878 646 828 l 646 321 b 517 203 646 271 603 203 b 388 321 431 203 388 271 z m 560 1092 b 657 996 560 1039 603 996 b 756 1092 711 996 756 1039 b 657 1190 756 1147 711 1190 b 560 1092 603 1190 560 1147 z m 279 1092 b 376 996 279 1039 324 996 b 475 1092 432 996 475 1039 b 376 1190 475 1147 432 1190 b 279 1092 324 1190 279 1147 z "},"ý":{"ha":1106,"x_min":0,"x_max":0,"o":"m 639 892 b 715 796 688 879 715 842 b 704 749 715 781 711 764 l 554 367 l 404 747 b 393 794 397 764 393 779 b 468 892 393 842 426 878 l -12 892 b 115 681 25 851 54 810 l 411 60 b 214 -117 340 -83 286 -117 b 86 0 156 -117 97 -75 b -82 -165 -7 -3 -82 -75 b -7 -318 -82 -235 -53 -283 l 456 -318 b 683 32 554 -247 613 -121 l 990 690 b 1119 892 1046 810 1076 850 z m 503 1190 l 440 981 l 793 1190 z "},"þ":{"ha":1083,"x_min":0,"x_max":0,"o":"m 324 0 l 882 0 b 1118 446 1024 64 1118 268 b 882 892 1118 625 1024 828 l 324 892 l 324 956 b 453 1069 324 1006 368 1056 l -76 1069 b 53 956 8 1056 53 1006 l 53 -206 b -76 -318 53 -254 8 -304 l 453 -318 b 324 -206 368 -304 324 -254 z m 533 182 b 324 272 451 182 375 215 l 324 631 b 533 722 375 689 451 722 b 808 453 682 722 808 619 b 533 182 808 286 682 182 z "},"ÿ":{"ha":1106,"x_min":0,"x_max":0,"o":"m 639 892 b 715 796 688 879 715 842 b 704 749 715 781 711 764 l 554 367 l 404 747 b 393 794 397 764 393 779 b 468 892 393 842 426 878 l -12 892 b 115 681 25 851 54 810 l 411 60 b 214 -117 340 -83 286 -117 b 86 0 156 -117 97 -75 b -82 -165 -7 -3 -82 -75 b -7 -318 -82 -235 -53 -283 l 456 -318 b 683 32 554 -247 613 -121 l 990 690 b 1119 892 1046 810 1076 850 z m 594 1092 b 692 996 594 1039 638 996 b 790 1092 746 996 790 1039 b 692 1190 790 1147 746 1190 b 594 1092 638 1190 594 1147 z m 314 1092 b 411 996 314 1039 358 996 b 510 1092 467 996 510 1039 b 411 1190 510 1147 467 1190 b 314 1092 358 1190 314 1147 z "},"Ā":{"ha":1106,"x_min":0,"x_max":0,"o":"m 293 1046 l 508 1046 l 138 247 b -12 0 60 82 28 42 l 468 0 b 392 96 418 13 392 50 b 401 144 392 111 394 128 l 401 146 l 703 146 b 713 99 708 129 713 113 b 639 0 713 50 679 14 l 1119 0 b 967 260 1086 33 1064 57 l 590 1046 l 811 1046 l 811 1167 l 293 1167 z m 551 540 l 628 350 l 474 350 z "},"ā":{"ha":1106,"x_min":0,"x_max":0,"o":"m 293 1046 l 508 1046 l 138 247 b -12 0 60 82 28 42 l 468 0 b 392 96 418 13 392 50 b 401 144 392 111 394 128 l 401 146 l 703 146 b 713 99 708 129 713 113 b 639 0 713 50 679 14 l 1119 0 b 967 260 1086 33 1064 57 l 590 1046 l 811 1046 l 811 1167 l 293 1167 z m 551 540 l 628 350 l 474 350 z "},"Ă":{"ha":1106,"x_min":0,"x_max":0,"o":"m 551 1053 b 408 1190 478 1053 410 1103 l 247 1190 b 372 957 247 1096 297 990 l 467 957 l 138 247 b -12 0 61 82 28 42 l 468 0 b 392 96 418 13 392 50 b 401 144 392 111 394 128 l 401 146 l 703 146 b 713 99 708 129 713 113 b 639 0 713 50 679 14 l 1119 0 b 967 260 1086 33 1064 57 l 633 957 l 733 957 b 857 1190 808 990 857 1096 l 696 1190 b 551 1053 693 1103 626 1053 z m 551 540 l 628 350 l 474 350 z "},"ă":{"ha":1106,"x_min":0,"x_max":0,"o":"m 551 1053 b 408 1190 478 1053 410 1103 l 247 1190 b 372 957 247 1096 297 990 l 467 957 l 138 247 b -12 0 61 82 28 42 l 468 0 b 392 96 418 13 392 50 b 401 144 392 111 394 128 l 401 146 l 703 146 b 713 99 708 129 713 113 b 639 0 713 50 679 14 l 1119 0 b 967 260 1086 33 1064 57 l 633 957 l 733 957 b 857 1190 808 990 857 1096 l 696 1190 b 551 1053 693 1103 626 1053 z m 551 540 l 628 350 l 474 350 z "},"Ą":{"ha":1106,"x_min":0,"x_max":0,"o":"m 468 0 b 392 96 418 13 392 50 b 401 144 392 111 394 128 l 401 146 l 703 146 b 713 99 708 129 713 113 b 639 0 713 50 679 14 l 1119 0 b 967 260 1086 33 1064 57 l 549 1133 l 138 247 b -12 0 61 82 28 42 z m 551 540 l 628 350 l 474 350 z m 740 -356 l 1118 -356 l 931 -39 z "},"ą":{"ha":1106,"x_min":0,"x_max":0,"o":"m 468 0 b 392 96 418 13 392 50 b 401 144 392 111 394 128 l 401 146 l 703 146 b 713 99 708 129 713 113 b 639 0 713 50 679 14 l 1119 0 b 967 260 1086 33 1064 57 l 549 1133 l 138 247 b -12 0 61 82 28 42 z m 551 540 l 628 350 l 474 350 z m 740 -356 l 1118 -356 l 931 -39 z "},"Ć":{"ha":946,"x_min":0,"x_max":0,"o":"m 549 182 b 275 453 401 182 275 286 b 549 722 275 619 401 722 b 768 622 629 722 719 688 b 800 618 779 619 790 618 b 940 758 888 618 940 683 b 875 892 940 819 921 868 l 201 892 b -35 446 60 828 -35 625 b 201 0 -35 268 60 64 l 879 0 b 940 136 907 24 940 65 b 774 301 940 224 865 301 b 549 182 724 215 642 182 z m 499 1190 l 436 981 l 789 1190 z "},"ć":{"ha":946,"x_min":0,"x_max":0,"o":"m 549 182 b 275 453 401 182 275 286 b 549 722 275 619 401 722 b 768 622 629 722 719 688 b 800 618 779 619 790 618 b 940 758 888 618 940 683 b 875 892 940 819 921 868 l 201 892 b -35 446 60 828 -35 625 b 201 0 -35 268 60 64 l 879 0 b 940 136 907 24 940 65 b 774 301 940 224 865 301 b 549 182 724 215 642 182 z m 499 1190 l 436 981 l 789 1190 z "},"Ċ":{"ha":946,"x_min":0,"x_max":0,"o":"m 549 182 b 275 453 401 182 275 286 b 549 722 275 619 401 722 b 768 622 629 722 719 688 b 800 618 779 619 790 618 b 940 758 888 618 940 683 b 875 892 940 819 921 868 l 201 892 b -35 446 60 828 -35 625 b 201 0 -35 268 60 64 l 879 0 b 940 136 907 24 940 65 b 774 301 940 224 865 301 b 549 182 724 215 642 182 z m 451 1092 b 549 996 451 1039 494 996 b 646 1092 603 996 646 1039 b 549 1190 646 1147 603 1190 b 451 1092 494 1190 451 1147 z "},"ċ":{"ha":946,"x_min":0,"x_max":0,"o":"m 549 182 b 275 453 401 182 275 286 b 549 722 275 619 401 722 b 768 622 629 722 719 688 b 800 618 779 619 790 618 b 940 758 888 618 940 683 b 875 892 940 819 921 868 l 201 892 b -35 446 60 828 -35 625 b 201 0 -35 268 60 64 l 879 0 b 940 136 907 24 940 65 b 774 301 940 224 865 301 b 549 182 724 215 642 182 z m 451 1092 b 549 996 451 1039 494 996 b 646 1092 603 996 646 1039 b 549 1190 646 1147 603 1190 b 451 1092 494 1190 451 1147 z "},"Č":{"ha":946,"x_min":0,"x_max":0,"o":"m 549 182 b 275 453 401 182 275 286 b 549 722 275 619 401 722 b 768 622 629 722 719 688 b 800 618 779 619 790 618 b 940 758 888 618 940 683 b 875 892 940 819 921 868 l 201 892 b -35 446 60 828 -35 625 b 201 0 -35 268 60 64 l 879 0 b 940 136 907 24 940 65 b 774 301 940 224 865 301 b 549 182 724 215 642 182 z m 801 1190 l 294 1190 l 547 981 z "},"č":{"ha":946,"x_min":0,"x_max":0,"o":"m 549 182 b 275 453 401 182 275 286 b 549 722 275 619 401 722 b 768 622 629 722 719 688 b 800 618 779 619 790 618 b 940 758 888 618 940 683 b 875 892 940 819 921 868 l 201 892 b -35 446 60 828 -35 625 b 201 0 -35 268 60 64 l 879 0 b 940 136 907 24 940 65 b 774 301 940 224 865 301 b 549 182 724 215 642 182 z m 801 1190 l 294 1190 l 547 981 z "},"Ď":{"ha":1083,"x_min":0,"x_max":0,"o":"m 1221 1221 l 843 1221 l 933 1069 l 631 1069 b 760 956 715 1056 760 1006 l 760 892 l 201 892 b -35 446 60 828 -35 625 b 201 0 -35 268 60 64 l 897 0 b 1031 118 949 24 999 71 l 1031 849 b 1051 926 1031 882 1036 899 z m 549 182 b 275 453 401 182 275 286 b 549 722 275 619 401 722 b 760 631 632 722 708 689 l 760 272 b 549 182 708 215 632 182 z "},"ď":{"ha":1083,"x_min":0,"x_max":0,"o":"m 1221 1221 l 843 1221 l 933 1069 l 631 1069 b 760 956 715 1056 760 1006 l 760 892 l 201 892 b -35 446 60 828 -35 625 b 201 0 -35 268 60 64 l 897 0 b 1031 118 949 24 999 71 l 1031 849 b 1051 926 1031 882 1036 899 z m 549 182 b 275 453 401 182 275 286 b 549 722 275 619 401 722 b 760 631 632 722 708 689 l 760 272 b 549 182 708 215 632 182 z "},"Đ":{"ha":1083,"x_min":0,"x_max":0,"o":"m 379 989 l 757 989 b 760 957 758 978 760 965 l 760 892 l 201 892 b -35 446 60 828 -35 625 b 201 0 -35 268 60 64 l 897 0 b 1031 118 949 24 999 71 l 1031 956 b 1028 989 1031 965 1029 978 l 1083 989 l 1083 1069 l 1006 1069 b 918 1190 985 1119 953 1168 l 631 1190 b 733 1069 679 1168 714 1119 l 379 1069 z m 549 182 b 275 453 401 182 275 286 b 549 722 275 619 401 722 b 760 631 632 722 708 689 l 760 272 b 549 182 708 215 632 182 z "},"đ":{"ha":1083,"x_min":0,"x_max":0,"o":"m 379 989 l 757 989 b 760 957 758 978 760 965 l 760 892 l 201 892 b -35 446 60 828 -35 625 b 201 0 -35 268 60 64 l 897 0 b 1031 118 949 24 999 71 l 1031 956 b 1028 989 1031 965 1029 978 l 1083 989 l 1083 1069 l 1006 1069 b 918 1190 985 1119 953 1168 l 631 1190 b 733 1069 679 1168 714 1119 l 379 1069 z m 549 182 b 275 453 401 182 275 286 b 549 722 275 619 401 722 b 760 631 632 722 708 689 l 760 272 b 549 182 708 215 632 182 z "},"Ē":{"ha":1099,"x_min":0,"x_max":0,"o":"m 1128 375 b 1133 446 1131 396 1133 421 b 897 892 1133 625 1039 828 l 201 892 b -35 446 60 828 -35 625 b 201 0 -35 268 60 64 l 992 0 b 1093 208 1051 39 1093 124 b 1028 375 1093 267 1076 329 z m 549 182 b 285 375 421 182 329 253 l 813 375 b 549 182 782 260 683 182 z m 549 722 b 779 604 647 722 740 676 l 317 604 b 549 722 367 678 451 722 z m 289 1046 l 808 1046 l 808 1167 l 289 1167 z "},"ē":{"ha":1099,"x_min":0,"x_max":0,"o":"m 1128 375 b 1133 446 1131 396 1133 421 b 897 892 1133 625 1039 828 l 201 892 b -35 446 60 828 -35 625 b 201 0 -35 268 60 64 l 992 0 b 1093 208 1051 39 1093 124 b 1028 375 1093 267 1076 329 z m 549 182 b 285 375 421 182 329 253 l 813 375 b 549 182 782 260 683 182 z m 549 722 b 779 604 647 722 740 676 l 317 604 b 549 722 367 678 451 722 z m 289 1046 l 808 1046 l 808 1167 l 289 1167 z "},"Ĕ":{"ha":1099,"x_min":0,"x_max":0,"o":"m 1128 375 b 1133 446 1131 396 1133 421 b 897 892 1133 625 1039 828 l 201 892 b -35 446 60 828 -35 625 b 201 0 -35 268 60 64 l 992 0 b 1093 208 1051 39 1093 124 b 1028 375 1093 267 1076 329 z m 549 182 b 285 375 421 182 329 253 l 813 375 b 549 182 782 260 683 182 z m 549 722 b 779 604 647 722 740 676 l 317 604 b 549 722 367 678 451 722 z m 547 1053 b 406 1190 474 1053 407 1103 l 243 1190 b 368 957 243 1096 293 990 l 729 957 b 854 1190 804 990 854 1096 l 692 1190 b 547 1053 689 1103 624 1053 z "},"ĕ":{"ha":1099,"x_min":0,"x_max":0,"o":"m 1128 375 b 1133 446 1131 396 1133 421 b 897 892 1133 625 1039 828 l 201 892 b -35 446 60 828 -35 625 b 201 0 -35 268 60 64 l 992 0 b 1093 208 1051 39 1093 124 b 1028 375 1093 267 1076 329 z m 549 182 b 285 375 421 182 329 253 l 813 375 b 549 182 782 260 683 182 z m 549 722 b 779 604 647 722 740 676 l 317 604 b 549 722 367 678 451 722 z m 547 1053 b 406 1190 474 1053 407 1103 l 243 1190 b 368 957 243 1096 293 990 l 729 957 b 854 1190 804 990 854 1096 l 692 1190 b 547 1053 689 1103 624 1053 z "},"Ė":{"ha":1099,"x_min":0,"x_max":0,"o":"m 1128 375 b 1133 446 1131 396 1133 421 b 897 892 1133 625 1039 828 l 201 892 b -35 446 60 828 -35 625 b 201 0 -35 268 60 64 l 992 0 b 1093 208 1051 39 1093 124 b 1028 375 1093 267 1076 329 z m 549 182 b 285 375 421 182 329 253 l 813 375 b 549 182 782 260 683 182 z m 549 722 b 779 604 647 722 740 676 l 317 604 b 549 722 367 678 451 722 z m 451 1092 b 549 996 451 1039 494 996 b 646 1092 603 996 646 1039 b 549 1190 646 1147 603 1190 b 451 1092 494 1190 451 1147 z "},"ė":{"ha":1099,"x_min":0,"x_max":0,"o":"m 1128 375 b 1133 446 1131 396 1133 421 b 897 892 1133 625 1039 828 l 201 892 b -35 446 60 828 -35 625 b 201 0 -35 268 60 64 l 992 0 b 1093 208 1051 39 1093 124 b 1028 375 1093 267 1076 329 z m 549 182 b 285 375 421 182 329 253 l 813 375 b 549 182 782 260 683 182 z m 549 722 b 779 604 647 722 740 676 l 317 604 b 549 722 367 678 451 722 z m 451 1092 b 549 996 451 1039 494 996 b 646 1092 603 996 646 1039 b 549 1190 646 1147 603 1190 b 451 1092 494 1190 451 1147 z "},"Ę":{"ha":1099,"x_min":0,"x_max":0,"o":"m 1128 375 b 1133 446 1131 396 1133 421 b 897 892 1133 625 1039 828 l 201 892 b -35 446 60 828 -35 625 b 201 0 -35 268 60 64 l 992 0 b 1093 208 1051 39 1093 124 b 1028 375 1093 267 1076 329 z m 549 182 b 285 375 421 182 329 253 l 813 375 b 549 182 782 260 683 182 z m 549 722 b 779 604 647 722 740 676 l 317 604 b 549 722 367 678 451 722 z m 693 -356 l 1071 -356 l 883 -39 z "},"ę":{"ha":1099,"x_min":0,"x_max":0,"o":"m 1128 375 b 1133 446 1131 396 1133 421 b 897 892 1133 625 1039 828 l 201 892 b -35 446 60 828 -35 625 b 201 0 -35 268 60 64 l 992 0 b 1093 208 1051 39 1093 124 b 1028 375 1093 267 1076 329 z m 549 182 b 285 375 421 182 329 253 l 813 375 b 549 182 782 260 683 182 z m 549 722 b 779 604 647 722 740 676 l 317 604 b 549 722 367 678 451 722 z m 693 -356 l 1071 -356 l 883 -39 z "},"Ě":{"ha":1099,"x_min":0,"x_max":0,"o":"m 1128 375 b 1133 446 1131 396 1133 421 b 897 892 1133 625 1039 828 l 201 892 b -35 446 60 828 -35 625 b 201 0 -35 268 60 64 l 992 0 b 1093 208 1051 39 1093 124 b 1028 375 1093 267 1076 329 z m 549 182 b 285 375 421 182 329 253 l 813 375 b 549 182 782 260 683 182 z m 549 722 b 779 604 647 722 740 676 l 317 604 b 549 722 367 678 451 722 z m 801 1190 l 294 1190 l 547 981 z "},"ě":{"ha":1099,"x_min":0,"x_max":0,"o":"m 1128 375 b 1133 446 1131 396 1133 421 b 897 892 1133 625 1039 828 l 201 892 b -35 446 60 828 -35 625 b 201 0 -35 268 60 64 l 992 0 b 1093 208 1051 39 1093 124 b 1028 375 1093 267 1076 329 z m 549 182 b 285 375 421 182 329 253 l 813 375 b 549 182 782 260 683 182 z m 549 722 b 779 604 647 722 740 676 l 317 604 b 549 722 367 678 451 722 z m 801 1190 l 294 1190 l 547 981 z "},"Ğ":{"ha":1121,"x_min":0,"x_max":0,"o":"m 1006 779 b 1135 892 1006 828 1050 878 l 201 892 b -35 446 60 828 -35 625 b 201 0 -35 268 60 64 l 456 0 b 306 -165 371 -10 306 -81 b 381 -318 306 -235 335 -283 l 846 -318 b 1004 28 949 -247 1004 -121 z m 733 297 b 514 204 672 236 592 204 b 271 467 376 204 271 306 b 490 711 271 619 367 711 b 733 429 660 711 733 575 z m 601 -117 b 474 0 543 -117 485 -74 l 617 0 b 733 63 664 17 703 39 l 733 22 b 601 -117 733 -54 683 -117 z m 558 1053 b 417 1190 485 1053 418 1103 l 254 1190 b 379 957 254 1096 304 990 l 740 957 b 865 1190 815 990 865 1096 l 703 1190 b 558 1053 700 1103 635 1053 z "},"ğ":{"ha":1121,"x_min":0,"x_max":0,"o":"m 1006 779 b 1135 892 1006 828 1050 878 l 201 892 b -35 446 60 828 -35 625 b 201 0 -35 268 60 64 l 456 0 b 306 -165 371 -10 306 -81 b 381 -318 306 -235 335 -283 l 846 -318 b 1004 28 949 -247 1004 -121 z m 733 297 b 514 204 672 236 592 204 b 271 467 376 204 271 306 b 490 711 271 619 367 711 b 733 429 660 711 733 575 z m 601 -117 b 474 0 543 -117 485 -74 l 617 0 b 733 63 664 17 703 39 l 733 22 b 601 -117 733 -54 683 -117 z m 558 1053 b 417 1190 485 1053 418 1103 l 254 1190 b 379 957 254 1096 304 990 l 740 957 b 865 1190 815 990 865 1096 l 703 1190 b 558 1053 700 1103 635 1053 z "},"Ġ":{"ha":1121,"x_min":0,"x_max":0,"o":"m 1006 779 b 1135 892 1006 828 1050 878 l 201 892 b -35 446 60 828 -35 625 b 201 0 -35 268 60 64 l 456 0 b 306 -165 371 -10 306 -81 b 381 -318 306 -235 335 -283 l 846 -318 b 1004 28 949 -247 1004 -121 z m 733 297 b 514 204 672 236 592 204 b 271 467 376 204 271 306 b 490 711 271 619 367 711 b 733 429 660 711 733 575 z m 601 -117 b 474 0 543 -117 485 -74 l 617 0 b 733 63 664 17 703 39 l 733 22 b 601 -117 733 -54 683 -117 z m 463 1092 b 560 996 463 1039 506 996 b 657 1092 614 996 657 1039 b 560 1190 657 1147 614 1190 b 463 1092 506 1190 463 1147 z "},"ġ":{"ha":1121,"x_min":0,"x_max":0,"o":"m 1006 779 b 1135 892 1006 828 1050 878 l 201 892 b -35 446 60 828 -35 625 b 201 0 -35 268 60 64 l 456 0 b 306 -165 371 -10 306 -81 b 381 -318 306 -235 335 -283 l 846 -318 b 1004 28 949 -247 1004 -121 z m 733 297 b 514 204 672 236 592 204 b 271 467 376 204 271 306 b 490 711 271 619 367 711 b 733 429 660 711 733 575 z m 601 -117 b 474 0 543 -117 485 -74 l 617 0 b 733 63 664 17 703 39 l 733 22 b 601 -117 733 -54 683 -117 z m 463 1092 b 560 996 463 1039 506 996 b 657 1092 614 996 657 1039 b 560 1190 657 1147 614 1190 b 463 1092 506 1190 463 1147 z "},"Ģ":{"ha":1121,"x_min":0,"x_max":0,"o":"m 1006 779 b 1135 892 1006 828 1050 878 l 201 892 b -35 446 60 828 -35 625 b 201 0 -35 268 60 64 l 456 0 b 306 -165 371 -10 306 -81 b 381 -318 306 -235 335 -283 l 846 -318 b 1004 28 949 -247 1004 -121 z m 733 297 b 514 204 672 236 592 204 b 271 467 376 204 271 306 b 490 711 271 619 367 711 b 733 429 660 711 733 575 z m 601 -117 b 474 0 543 -117 485 -74 l 617 0 b 733 63 664 17 703 39 l 733 22 b 601 -117 733 -54 683 -117 z m 754 1221 l 376 1221 l 564 904 z "},"ģ":{"ha":1121,"x_min":0,"x_max":0,"o":"m 1006 779 b 1135 892 1006 828 1050 878 l 201 892 b -35 446 60 828 -35 625 b 201 0 -35 268 60 64 l 456 0 b 306 -165 371 -10 306 -81 b 381 -318 306 -235 335 -283 l 846 -318 b 1004 28 949 -247 1004 -121 z m 733 297 b 514 204 672 236 592 204 b 271 467 376 204 271 306 b 490 711 271 619 367 711 b 733 429 660 711 733 575 z m 601 -117 b 474 0 543 -117 485 -74 l 617 0 b 733 63 664 17 703 39 l 733 22 b 601 -117 733 -54 683 -117 z m 754 1221 l 376 1221 l 564 904 z "},"Ħ":{"ha":1033,"x_min":0,"x_max":0,"o":"m 517 892 b 646 779 601 878 646 828 l 646 731 l 388 731 l 388 779 b 517 892 388 828 432 878 l -12 892 b 115 779 71 878 115 828 l 115 114 b -12 0 115 64 71 14 l 517 0 b 388 114 432 14 388 64 l 388 260 l 646 260 l 646 114 b 517 0 646 64 601 14 l 1046 0 b 918 114 963 14 918 64 l 918 779 b 1046 892 918 828 963 878 z m 388 436 l 388 575 l 646 575 l 646 436 z "},"ħ":{"ha":1033,"x_min":0,"x_max":0,"o":"m 517 892 b 646 779 601 878 646 828 l 646 731 l 388 731 l 388 779 b 517 892 388 828 432 878 l -12 892 b 115 779 71 878 115 828 l 115 114 b -12 0 115 64 71 14 l 517 0 b 388 114 432 14 388 64 l 388 260 l 646 260 l 646 114 b 517 0 646 64 601 14 l 1046 0 b 918 114 963 14 918 64 l 918 779 b 1046 892 918 828 963 878 z m 388 436 l 388 575 l 646 575 l 646 436 z "},"Ī":{"ha":503,"x_min":0,"x_max":0,"o":"m -12 892 b 115 779 71 878 115 828 l 115 114 b -12 0 115 64 71 14 l 517 0 b 388 114 432 14 388 64 l 388 779 b 517 892 388 828 432 878 z m -8 1046 l 511 1046 l 511 1167 l -8 1167 z "},"ī":{"ha":503,"x_min":0,"x_max":0,"o":"m -12 892 b 115 779 71 878 115 828 l 115 114 b -12 0 115 64 71 14 l 517 0 b 388 114 432 14 388 64 l 388 779 b 517 892 388 828 432 878 z m -8 1046 l 511 1046 l 511 1167 l -8 1167 z "},"Ĭ":{"ha":503,"x_min":0,"x_max":0,"o":"m -12 892 b 115 779 71 878 115 828 l 115 114 b -12 0 115 64 71 14 l 517 0 b 388 114 432 14 388 64 l 388 779 b 517 892 388 828 432 878 z m 250 1053 b 108 1190 176 1053 110 1103 l -54 1190 b 71 957 -54 1096 -4 990 l 432 957 b 557 1190 507 990 557 1096 l 394 1190 b 250 1053 392 1103 326 1053 z "},"ĭ":{"ha":503,"x_min":0,"x_max":0,"o":"m -12 892 b 115 779 71 878 115 828 l 115 114 b -12 0 115 64 71 14 l 517 0 b 388 114 432 14 388 64 l 388 779 b 517 892 388 828 432 878 z m 250 1053 b 108 1190 176 1053 110 1103 l -54 1190 b 71 957 -54 1096 -4 990 l 432 957 b 557 1190 507 990 557 1096 l 394 1190 b 250 1053 392 1103 326 1053 z "},"Į":{"ha":503,"x_min":0,"x_max":0,"o":"m -12 892 b 115 779 71 878 115 828 l 115 114 b -12 0 115 64 71 14 l 517 0 b 388 114 432 14 388 64 l 388 779 b 517 892 388 828 432 878 z m 63 -356 l 440 -356 l 253 -39 z "},"į":{"ha":503,"x_min":0,"x_max":0,"o":"m -12 892 b 115 779 71 878 115 828 l 115 114 b -12 0 115 64 71 14 l 517 0 b 388 114 432 14 388 64 l 388 779 b 517 892 388 828 432 878 z m 63 -356 l 440 -356 l 253 -39 z "},"İ":{"ha":503,"x_min":0,"x_max":0,"o":"m -12 892 b 115 779 71 878 115 828 l 115 114 b -12 0 115 64 71 14 l 517 0 b 388 114 432 14 388 64 l 388 779 b 517 892 388 828 432 878 z m 154 1092 b 251 996 154 1039 197 996 b 349 1092 306 996 349 1039 b 251 1190 349 1147 306 1190 b 154 1092 197 1190 154 1147 z "},"ı":{"ha":503,"x_min":0,"x_max":0,"o":"m -12 892 b 115 779 71 878 115 828 l 115 114 b -12 0 115 64 71 14 l 517 0 b 388 114 432 14 388 64 l 388 779 b 517 892 388 828 432 878 z "},"Ĳ":{"ha":1007,"x_min":0,"x_max":0,"o":"m -12 892 b 115 779 71 878 115 828 l 115 114 b -12 0 115 64 71 14 l 517 0 b 388 114 432 14 388 64 l 388 779 b 517 892 388 828 432 878 z m 490 892 b 618 779 574 878 618 828 l 618 22 b 488 -117 618 -54 569 -117 b 360 0 429 -117 371 -75 b 192 -165 267 -3 192 -75 b 267 -318 192 -235 221 -283 l 732 -318 b 890 28 835 -247 890 -121 l 890 779 b 1019 892 890 828 935 878 z "},"ĳ":{"ha":1007,"x_min":0,"x_max":0,"o":"m -12 892 b 115 779 71 878 115 828 l 115 114 b -12 0 115 64 71 14 l 517 0 b 388 114 432 14 388 64 l 388 779 b 517 892 388 828 432 878 z m 490 892 b 618 779 574 878 618 828 l 618 22 b 488 -117 618 -54 569 -117 b 360 0 429 -117 371 -75 b 192 -165 267 -3 192 -75 b 267 -318 192 -235 221 -283 l 732 -318 b 890 28 835 -247 890 -121 l 890 779 b 1019 892 890 828 935 878 z "},"Ķ":{"ha":1057,"x_min":0,"x_max":0,"o":"m 611 81 b 651 1 644 43 651 19 b 567 -94 651 -43 617 -82 l 1143 -94 b 964 65 1075 -54 1042 -24 l 625 457 l 876 733 b 1056 892 956 819 982 847 l -12 892 b 115 779 71 878 115 828 l 115 114 b -12 0 115 64 71 14 l 517 0 b 388 114 432 14 388 64 l 388 332 z m 388 779 b 514 890 388 826 431 876 b 594 796 563 878 594 840 b 564 725 594 775 582 749 l 388 535 z m 283 -356 l 661 -356 l 474 -39 z "},"ķ":{"ha":1057,"x_min":0,"x_max":0,"o":"m 611 81 b 651 1 644 43 651 19 b 567 -94 651 -43 617 -82 l 1143 -94 b 964 65 1075 -54 1042 -24 l 625 457 l 876 733 b 1056 892 956 819 982 847 l -12 892 b 115 779 71 878 115 828 l 115 114 b -12 0 115 64 71 14 l 517 0 b 388 114 432 14 388 64 l 388 332 z m 388 779 b 514 890 388 826 431 876 b 594 796 563 878 594 840 b 564 725 594 775 582 749 l 388 535 z m 283 -356 l 661 -356 l 474 -39 z "},"Ĺ":{"ha":810,"x_min":0,"x_max":0,"o":"m -12 892 b 115 779 71 878 115 828 l 115 114 b -12 0 115 64 71 14 l 810 0 l 810 347 b 681 229 794 288 765 229 l 388 229 l 388 779 b 517 892 388 828 432 878 z m 354 1190 l 292 981 l 644 1190 z "},"ĺ":{"ha":810,"x_min":0,"x_max":0,"o":"m -12 892 b 115 779 71 878 115 828 l 115 114 b -12 0 115 64 71 14 l 810 0 l 810 347 b 681 229 794 288 765 229 l 388 229 l 388 779 b 517 892 388 828 432 878 z m 354 1190 l 292 981 l 644 1190 z "},"Ļ":{"ha":810,"x_min":0,"x_max":0,"o":"m -12 892 b 115 779 71 878 115 828 l 115 114 b -12 0 115 64 71 14 l 810 0 l 810 347 b 681 229 794 288 765 229 l 388 229 l 388 779 b 517 892 388 828 432 878 z m 215 -356 l 593 -356 l 406 -39 z "},"ļ":{"ha":810,"x_min":0,"x_max":0,"o":"m -12 892 b 115 779 71 878 115 828 l 115 114 b -12 0 115 64 71 14 l 810 0 l 810 347 b 681 229 794 288 765 229 l 388 229 l 388 779 b 517 892 388 828 432 878 z m 215 -356 l 593 -356 l 406 -39 z "},"Ľ":{"ha":810,"x_min":0,"x_max":0,"o":"m -12 892 b 115 779 71 878 115 828 l 115 114 b -12 0 115 64 71 14 l 810 0 l 810 347 b 681 229 794 288 765 229 l 388 229 l 388 779 b 517 892 388 828 432 878 z m 797 1169 l 419 1169 l 607 853 z "},"ľ":{"ha":810,"x_min":0,"x_max":0,"o":"m -12 892 b 115 779 71 878 115 828 l 115 114 b -12 0 115 64 71 14 l 810 0 l 810 347 b 681 229 794 288 765 229 l 388 229 l 388 779 b 517 892 388 828 432 878 z m 797 1169 l 419 1169 l 607 853 z "},"Ŀ":{"ha":810,"x_min":0,"x_max":0,"o":"m -12 892 b 115 779 71 878 115 828 l 115 114 b -12 0 115 64 71 14 l 810 0 l 810 347 b 681 229 794 288 765 229 l 388 229 l 388 779 b 517 892 388 828 432 878 z m 450 519 b 547 424 450 467 493 424 b 644 519 601 424 644 467 b 547 618 644 575 601 618 b 450 519 493 618 450 575 z "},"ŀ":{"ha":810,"x_min":0,"x_max":0,"o":"m -12 892 b 115 779 71 878 115 828 l 115 114 b -12 0 115 64 71 14 l 810 0 l 810 347 b 681 229 794 288 765 229 l 388 229 l 388 779 b 517 892 388 828 432 878 z m 450 519 b 547 424 450 467 493 424 b 644 519 601 424 644 467 b 547 618 644 575 601 618 b 450 519 493 618 450 575 z "},"Ł":{"ha":810,"x_min":0,"x_max":0,"o":"m -12 892 b 115 779 71 878 115 828 l 115 114 b -12 0 115 64 71 14 l 810 0 l 810 347 b 681 229 794 288 765 229 l 388 229 l 388 540 l 700 668 l 700 807 l 388 679 l 388 779 b 517 892 388 828 432 878 z "},"ł":{"ha":810,"x_min":0,"x_max":0,"o":"m -12 892 b 115 779 71 878 115 828 l 115 114 b -12 0 115 64 71 14 l 810 0 l 810 347 b 681 229 794 288 765 229 l 388 229 l 388 540 l 700 668 l 700 807 l 388 679 l 388 779 b 517 892 388 828 432 878 z "},"Ń":{"ha":1040,"x_min":0,"x_max":0,"o":"m 517 892 l -12 892 b 115 779 71 878 115 828 l 115 114 b -12 0 115 64 71 14 l 517 0 b 388 114 432 14 388 64 l 388 375 l 924 -240 l 924 779 b 1053 892 924 828 968 878 l 524 892 b 653 779 608 878 653 828 l 653 474 l 388 779 b 517 892 388 828 432 878 z m 469 1190 l 407 981 l 760 1190 z "},"ń":{"ha":1040,"x_min":0,"x_max":0,"o":"m 517 892 l -12 892 b 115 779 71 878 115 828 l 115 114 b -12 0 115 64 71 14 l 517 0 b 388 114 432 14 388 64 l 388 375 l 924 -240 l 924 779 b 1053 892 924 828 968 878 l 524 892 b 653 779 608 878 653 828 l 653 474 l 388 779 b 517 892 388 828 432 878 z m 469 1190 l 407 981 l 760 1190 z "},"Ņ":{"ha":1040,"x_min":0,"x_max":0,"o":"m 517 892 l -12 892 b 115 779 71 878 115 828 l 115 114 b -12 0 115 64 71 14 l 517 0 b 388 114 432 14 388 64 l 388 375 l 924 -240 l 924 779 b 1053 892 924 828 968 878 l 524 892 b 653 779 608 878 653 828 l 653 474 l 388 779 b 517 892 388 828 432 878 z m 393 -356 l 771 -356 l 583 -39 z "},"ņ":{"ha":1040,"x_min":0,"x_max":0,"o":"m 517 892 l -12 892 b 115 779 71 878 115 828 l 115 114 b -12 0 115 64 71 14 l 517 0 b 388 114 432 14 388 64 l 388 375 l 924 -240 l 924 779 b 1053 892 924 828 968 878 l 524 892 b 653 779 608 878 653 828 l 653 474 l 388 779 b 517 892 388 828 432 878 z m 393 -356 l 771 -356 l 583 -39 z "},"Ň":{"ha":1040,"x_min":0,"x_max":0,"o":"m 517 892 l -12 892 b 115 779 71 878 115 828 l 115 114 b -12 0 115 64 71 14 l 517 0 b 388 114 432 14 388 64 l 388 375 l 924 -240 l 924 779 b 1053 892 924 828 968 878 l 524 892 b 653 779 608 878 653 828 l 653 474 l 388 779 b 517 892 388 828 432 878 z m 772 1190 l 265 1190 l 518 981 z "},"ň":{"ha":1040,"x_min":0,"x_max":0,"o":"m 517 892 l -12 892 b 115 779 71 878 115 828 l 115 114 b -12 0 115 64 71 14 l 517 0 b 388 114 432 14 388 64 l 388 375 l 924 -240 l 924 779 b 1053 892 924 828 968 878 l 524 892 b 653 779 608 878 653 828 l 653 474 l 388 779 b 517 892 388 828 432 878 z m 772 1190 l 265 1190 l 518 981 z "},"Ŋ":{"ha":1040,"x_min":0,"x_max":0,"o":"m 517 892 l -12 892 b 115 779 71 878 115 828 l 115 114 b -12 0 115 64 71 14 l 393 0 b 225 -165 301 -3 225 -75 b 301 -318 225 -235 254 -283 l 765 -318 b 924 28 869 -247 924 -121 l 924 779 b 1053 892 924 828 968 878 l 524 892 b 653 779 608 878 653 828 l 653 474 l 388 779 b 517 892 388 828 432 878 z m 517 0 b 388 114 432 14 388 64 l 388 375 l 653 69 l 653 22 b 521 -117 653 -54 603 -117 b 396 0 463 -117 407 -75 z "},"ŋ":{"ha":1040,"x_min":0,"x_max":0,"o":"m 517 892 l -12 892 b 115 779 71 878 115 828 l 115 114 b -12 0 115 64 71 14 l 393 0 b 225 -165 301 -3 225 -75 b 301 -318 225 -235 254 -283 l 765 -318 b 924 28 869 -247 924 -121 l 924 779 b 1053 892 924 828 968 878 l 524 892 b 653 779 608 878 653 828 l 653 474 l 388 779 b 517 892 388 828 432 878 z m 517 0 b 388 114 432 14 388 64 l 388 375 l 653 69 l 653 22 b 521 -117 653 -54 603 -117 b 396 0 463 -117 407 -75 z "},"Ō":{"ha":1099,"x_min":0,"x_max":0,"o":"m 1133 446 b 897 892 1133 625 1039 828 l 201 892 b -35 446 60 828 -35 625 b 201 0 -35 268 60 64 l 897 0 b 1133 446 1039 64 1133 268 z m 549 182 b 275 453 401 182 275 286 b 549 722 275 619 401 722 b 824 453 697 722 824 619 b 549 182 824 286 697 182 z m 289 1046 l 808 1046 l 808 1167 l 289 1167 z "},"ō":{"ha":1099,"x_min":0,"x_max":0,"o":"m 1133 446 b 897 892 1133 625 1039 828 l 201 892 b -35 446 60 828 -35 625 b 201 0 -35 268 60 64 l 897 0 b 1133 446 1039 64 1133 268 z m 549 182 b 275 453 401 182 275 286 b 549 722 275 619 401 722 b 824 453 697 722 824 619 b 549 182 824 286 697 182 z m 289 1046 l 808 1046 l 808 1167 l 289 1167 z "},"Ŏ":{"ha":1099,"x_min":0,"x_max":0,"o":"m 1133 446 b 897 892 1133 625 1039 828 l 201 892 b -35 446 60 828 -35 625 b 201 0 -35 268 60 64 l 897 0 b 1133 446 1039 64 1133 268 z m 549 182 b 275 453 401 182 275 286 b 549 722 275 619 401 722 b 824 453 697 722 824 619 b 549 182 824 286 697 182 z m 547 1053 b 406 1190 474 1053 407 1103 l 243 1190 b 368 957 243 1096 293 990 l 729 957 b 854 1190 804 990 854 1096 l 692 1190 b 547 1053 689 1103 624 1053 z "},"ŏ":{"ha":1099,"x_min":0,"x_max":0,"o":"m 1133 446 b 897 892 1133 625 1039 828 l 201 892 b -35 446 60 828 -35 625 b 201 0 -35 268 60 64 l 897 0 b 1133 446 1039 64 1133 268 z m 549 182 b 275 453 401 182 275 286 b 549 722 275 619 401 722 b 824 453 697 722 824 619 b 549 182 824 286 697 182 z m 547 1053 b 406 1190 474 1053 407 1103 l 243 1190 b 368 957 243 1096 293 990 l 729 957 b 854 1190 804 990 854 1096 l 692 1190 b 547 1053 689 1103 624 1053 z "},"Ő":{"ha":1099,"x_min":0,"x_max":0,"o":"m 1133 446 b 897 892 1133 625 1039 828 l 201 892 b -35 446 60 828 -35 625 b 201 0 -35 268 60 64 l 897 0 b 1133 446 1039 64 1133 268 z m 549 182 b 275 453 401 182 275 286 b 549 722 275 619 401 722 b 824 453 697 722 824 619 b 549 182 824 286 697 182 z m 371 1190 l 308 981 l 618 1165 l 563 981 l 915 1190 z "},"ő":{"ha":1099,"x_min":0,"x_max":0,"o":"m 1133 446 b 897 892 1133 625 1039 828 l 201 892 b -35 446 60 828 -35 625 b 201 0 -35 268 60 64 l 897 0 b 1133 446 1039 64 1133 268 z m 549 182 b 275 453 401 182 275 286 b 549 722 275 619 401 722 b 824 453 697 722 824 619 b 549 182 824 286 697 182 z m 371 1190 l 308 981 l 618 1165 l 563 981 l 915 1190 z "},"Œ":{"ha":1768,"x_min":0,"x_max":0,"o":"m 201 892 b -35 446 60 828 -35 625 b 201 0 -35 268 60 64 l 1661 0 b 1764 208 1721 39 1764 124 b 1699 375 1764 267 1747 329 l 1797 375 b 1803 446 1800 396 1803 421 b 1567 892 1803 625 1708 828 z m 549 182 b 275 453 401 182 275 286 b 549 722 275 619 401 722 b 824 453 697 722 824 619 b 549 182 824 286 697 182 z m 1219 182 b 954 375 1090 182 999 253 l 1483 375 b 1219 182 1453 260 1353 182 z m 1219 722 b 1450 604 1318 722 1411 676 l 988 604 b 1219 722 1038 678 1121 722 z "},"œ":{"ha":1768,"x_min":0,"x_max":0,"o":"m 201 892 b -35 446 60 828 -35 625 b 201 0 -35 268 60 64 l 1661 0 b 1764 208 1721 39 1764 124 b 1699 375 1764 267 1747 329 l 1797 375 b 1803 446 1800 396 1803 421 b 1567 892 1803 625 1708 828 z m 549 182 b 275 453 401 182 275 286 b 549 722 275 619 401 722 b 824 453 697 722 824 619 b 549 182 824 286 697 182 z m 1219 182 b 954 375 1090 182 999 253 l 1483 375 b 1219 182 1453 260 1353 182 z m 1219 722 b 1450 604 1318 722 1411 676 l 988 604 b 1219 722 1038 678 1121 722 z "},"Ŕ":{"ha":1119,"x_min":0,"x_max":0,"o":"m 675 81 b 715 1 708 43 715 19 b 631 -94 715 -43 681 -82 l 1207 -94 b 1028 65 1139 -54 1108 -22 l 790 325 b 885 556 854 393 885 472 b 640 892 885 696 794 842 l -12 892 b 115 779 71 878 115 828 l 115 114 b -12 0 115 64 71 14 l 517 0 b 388 114 432 14 388 64 l 388 701 l 415 701 b 610 524 531 701 610 625 b 454 329 610 421 550 358 z m 433 1190 l 371 981 l 724 1190 z "},"ŕ":{"ha":1119,"x_min":0,"x_max":0,"o":"m 675 81 b 715 1 708 43 715 19 b 631 -94 715 -43 681 -82 l 1207 -94 b 1028 65 1139 -54 1108 -22 l 790 325 b 885 556 854 393 885 472 b 640 892 885 696 794 842 l -12 892 b 115 779 71 878 115 828 l 115 114 b -12 0 115 64 71 14 l 517 0 b 388 114 432 14 388 64 l 388 701 l 415 701 b 610 524 531 701 610 625 b 454 329 610 421 550 358 z m 433 1190 l 371 981 l 724 1190 z "},"Ŗ":{"ha":1119,"x_min":0,"x_max":0,"o":"m 675 81 b 715 1 708 43 715 19 b 631 -94 715 -43 681 -82 l 1207 -94 b 1028 65 1139 -54 1108 -22 l 790 325 b 885 556 854 393 885 472 b 640 892 885 696 794 842 l -12 892 b 115 779 71 878 115 828 l 115 114 b -12 0 115 64 71 14 l 517 0 b 388 114 432 14 388 64 l 388 701 l 415 701 b 610 524 531 701 610 625 b 454 329 610 421 550 358 z m 319 -356 l 697 -356 l 510 -39 z "},"ŗ":{"ha":1119,"x_min":0,"x_max":0,"o":"m 675 81 b 715 1 708 43 715 19 b 631 -94 715 -43 681 -82 l 1207 -94 b 1028 65 1139 -54 1108 -22 l 790 325 b 885 556 854 393 885 472 b 640 892 885 696 794 842 l -12 892 b 115 779 71 878 115 828 l 115 114 b -12 0 115 64 71 14 l 517 0 b 388 114 432 14 388 64 l 388 701 l 415 701 b 610 524 531 701 610 625 b 454 329 610 421 550 358 z m 319 -356 l 697 -356 l 510 -39 z "},"Ř":{"ha":1119,"x_min":0,"x_max":0,"o":"m 675 81 b 715 1 708 43 715 19 b 631 -94 715 -43 681 -82 l 1207 -94 b 1028 65 1139 -54 1108 -22 l 790 325 b 885 556 854 393 885 472 b 640 892 885 696 794 842 l -12 892 b 115 779 71 878 115 828 l 115 114 b -12 0 115 64 71 14 l 517 0 b 388 114 432 14 388 64 l 388 701 l 415 701 b 610 524 531 701 610 625 b 454 329 610 421 550 358 z m 738 1190 l 231 1190 l 483 981 z "},"ř":{"ha":1119,"x_min":0,"x_max":0,"o":"m 675 81 b 715 1 708 43 715 19 b 631 -94 715 -43 681 -82 l 1207 -94 b 1028 65 1139 -54 1108 -22 l 790 325 b 885 556 854 393 885 472 b 640 892 885 696 794 842 l -12 892 b 115 779 71 878 115 828 l 115 114 b -12 0 115 64 71 14 l 517 0 b 388 114 432 14 388 64 l 388 701 l 415 701 b 610 524 531 701 610 625 b 454 329 610 421 550 358 z m 738 1190 l 231 1190 l 483 981 z "},"Ś":{"ha":883,"x_min":0,"x_max":0,"o":"m 849 0 b 940 229 890 47 940 122 b 729 549 940 376 885 481 b 347 614 653 582 429 596 b 283 692 304 624 283 651 b 400 768 283 754 346 768 b 832 622 565 768 733 707 b 929 768 885 638 929 704 b 869 892 929 819 904 860 l 22 892 b -37 704 -3 865 -37 790 b 78 468 -37 621 0 528 b 507 351 164 401 322 364 b 604 264 572 346 604 311 b 332 163 604 176 515 163 b 28 251 165 163 99 197 b -50 118 -11 225 -50 179 b -3 0 -50 61 -26 24 z m 392 1190 l 329 981 l 682 1190 z "},"ś":{"ha":883,"x_min":0,"x_max":0,"o":"m 849 0 b 940 229 890 47 940 122 b 729 549 940 376 885 481 b 347 614 653 582 429 596 b 283 692 304 624 283 651 b 400 768 283 754 346 768 b 832 622 565 768 733 707 b 929 768 885 638 929 704 b 869 892 929 819 904 860 l 22 892 b -37 704 -3 865 -37 790 b 78 468 -37 621 0 528 b 507 351 164 401 322 364 b 604 264 572 346 604 311 b 332 163 604 176 515 163 b 28 251 165 163 99 197 b -50 118 -11 225 -50 179 b -3 0 -50 61 -26 24 z m 392 1190 l 329 981 l 682 1190 z "},"Ş":{"ha":883,"x_min":0,"x_max":0,"o":"m 849 0 b 940 229 890 47 940 122 b 729 549 940 376 885 481 b 347 614 653 582 429 596 b 283 692 304 624 283 651 b 400 768 283 754 346 768 b 832 622 565 768 733 707 b 929 768 885 638 929 704 b 869 892 929 819 904 860 l 22 892 b -37 704 -3 865 -37 790 b 78 468 -37 621 0 528 b 507 351 164 401 322 364 b 604 264 572 346 604 311 b 332 163 604 176 515 163 b 28 251 165 163 99 197 b -50 118 -11 225 -50 179 b -3 0 -50 61 -26 24 z m 253 -356 l 631 -356 l 443 -39 z "},"ş":{"ha":883,"x_min":0,"x_max":0,"o":"m 849 0 b 940 229 890 47 940 122 b 729 549 940 376 885 481 b 347 614 653 582 429 596 b 283 692 304 624 283 651 b 400 768 283 754 346 768 b 832 622 565 768 733 707 b 929 768 885 638 929 704 b 869 892 929 819 904 860 l 22 892 b -37 704 -3 865 -37 790 b 78 468 -37 621 0 528 b 507 351 164 401 322 364 b 604 264 572 346 604 311 b 332 163 604 176 515 163 b 28 251 165 163 99 197 b -50 118 -11 225 -50 179 b -3 0 -50 61 -26 24 z m 253 -356 l 631 -356 l 443 -39 z "},"Š":{"ha":883,"x_min":0,"x_max":0,"o":"m 849 0 b 940 229 890 47 940 122 b 729 549 940 376 885 481 b 347 614 653 582 429 596 b 283 692 304 624 283 651 b 400 768 283 754 346 768 b 832 622 565 768 733 707 b 929 768 885 638 929 704 b 869 892 929 819 904 860 l 22 892 b -37 704 -3 865 -37 790 b 78 468 -37 621 0 528 b 507 351 164 401 322 364 b 604 264 572 346 604 311 b 332 163 604 176 515 163 b 28 251 165 163 99 197 b -50 118 -11 225 -50 179 b -3 0 -50 61 -26 24 z m 694 1190 l 188 1190 l 440 981 z "},"š":{"ha":883,"x_min":0,"x_max":0,"o":"m 849 0 b 940 229 890 47 940 122 b 729 549 940 376 885 481 b 347 614 653 582 429 596 b 283 692 304 624 283 651 b 400 768 283 754 346 768 b 832 622 565 768 733 707 b 929 768 885 638 929 704 b 869 892 929 819 904 860 l 22 892 b -37 704 -3 865 -37 790 b 78 468 -37 621 0 528 b 507 351 164 401 322 364 b 604 264 572 346 604 311 b 332 163 604 176 515 163 b 28 251 165 163 99 197 b -50 118 -11 225 -50 179 b -3 0 -50 61 -26 24 z m 694 1190 l 188 1190 l 440 981 z "},"Ţ":{"ha":783,"x_min":0,"x_max":0,"o":"m 128 0 l 656 0 b 528 114 572 14 528 64 l 528 663 l 656 663 b 783 544 740 663 768 604 l 783 892 l 0 892 l 0 544 b 129 663 15 604 43 663 l 256 663 l 256 114 b 150 4 256 68 219 24 l 150 6 b 149 4 149 6 149 4 z m 203 -356 l 581 -356 l 393 -39 z "},"ţ":{"ha":783,"x_min":0,"x_max":0,"o":"m 128 0 l 656 0 b 528 114 572 14 528 64 l 528 663 l 656 663 b 783 544 740 663 768 604 l 783 892 l 0 892 l 0 544 b 129 663 15 604 43 663 l 256 663 l 256 114 b 150 4 256 68 219 24 l 150 6 b 149 4 149 6 149 4 z m 203 -356 l 581 -356 l 393 -39 z "},"Ť":{"ha":783,"x_min":0,"x_max":0,"o":"m 128 0 l 656 0 b 528 114 572 14 528 64 l 528 663 l 656 663 b 783 544 740 663 768 604 l 783 892 l 0 892 l 0 544 b 129 663 15 604 43 663 l 256 663 l 256 114 b 150 4 256 68 219 24 l 150 6 b 149 4 149 6 149 4 z m 646 1190 l 139 1190 l 392 981 z "},"ť":{"ha":783,"x_min":0,"x_max":0,"o":"m 128 0 l 656 0 b 528 114 572 14 528 64 l 528 663 l 656 663 b 783 544 740 663 768 604 l 783 892 l 0 892 l 0 544 b 129 663 15 604 43 663 l 256 663 l 256 114 b 150 4 256 68 219 24 l 150 6 b 149 4 149 6 149 4 z m 646 1190 l 139 1190 l 392 981 z "},"Ŧ":{"ha":783,"x_min":0,"x_max":0,"o":"m 144 396 l 256 396 l 256 114 b 150 4 256 68 219 24 l 150 6 b 149 4 149 6 149 4 l 128 0 l 656 0 b 528 114 572 14 528 64 l 528 396 l 640 396 l 640 549 l 528 549 l 528 663 l 656 663 b 783 544 740 663 768 604 l 783 892 l 0 892 l 0 544 b 129 663 15 604 43 663 l 256 663 l 256 549 l 144 549 z "},"ŧ":{"ha":783,"x_min":0,"x_max":0,"o":"m 144 396 l 256 396 l 256 114 b 150 4 256 68 219 24 l 150 6 b 149 4 149 6 149 4 l 128 0 l 656 0 b 528 114 572 14 528 64 l 528 396 l 640 396 l 640 549 l 528 549 l 528 663 l 656 663 b 783 544 740 663 768 604 l 783 892 l 0 892 l 0 544 b 129 663 15 604 43 663 l 256 663 l 256 549 l 144 549 z "},"Ũ":{"ha":1033,"x_min":0,"x_max":0,"o":"m 388 779 b 517 892 388 828 432 878 l -12 892 b 115 779 71 878 115 828 l 115 332 b 319 0 115 167 193 54 l 713 0 b 918 332 839 54 918 167 l 918 779 b 1046 892 918 828 963 878 l 517 892 b 646 779 601 878 646 828 l 646 321 b 517 203 646 271 603 203 b 388 321 431 203 388 271 z m 642 990 b 793 1044 694 990 756 1008 l 793 1189 b 647 1103 764 1144 728 1103 b 393 1190 567 1103 499 1190 b 242 1135 338 1190 276 1171 l 242 992 b 386 1078 268 1039 306 1078 b 642 990 469 1078 536 990 z "},"ũ":{"ha":1033,"x_min":0,"x_max":0,"o":"m 388 779 b 517 892 388 828 432 878 l -12 892 b 115 779 71 878 115 828 l 115 332 b 319 0 115 167 193 54 l 713 0 b 918 332 839 54 918 167 l 918 779 b 1046 892 918 828 963 878 l 517 892 b 646 779 601 878 646 828 l 646 321 b 517 203 646 271 603 203 b 388 321 431 203 388 271 z m 642 990 b 793 1044 694 990 756 1008 l 793 1189 b 647 1103 764 1144 728 1103 b 393 1190 567 1103 499 1190 b 242 1135 338 1190 276 1171 l 242 992 b 386 1078 268 1039 306 1078 b 642 990 469 1078 536 990 z "},"Ū":{"ha":1033,"x_min":0,"x_max":0,"o":"m 388 779 b 517 892 388 828 432 878 l -12 892 b 115 779 71 878 115 828 l 115 332 b 319 0 115 167 193 54 l 713 0 b 918 332 839 54 918 167 l 918 779 b 1046 892 918 828 963 878 l 517 892 b 646 779 601 878 646 828 l 646 321 b 517 203 646 271 603 203 b 388 321 431 203 388 271 z m 257 1046 l 776 1046 l 776 1167 l 257 1167 z "},"ū":{"ha":1033,"x_min":0,"x_max":0,"o":"m 388 779 b 517 892 388 828 432 878 l -12 892 b 115 779 71 878 115 828 l 115 332 b 319 0 115 167 193 54 l 713 0 b 918 332 839 54 918 167 l 918 779 b 1046 892 918 828 963 878 l 517 892 b 646 779 601 878 646 828 l 646 321 b 517 203 646 271 603 203 b 388 321 431 203 388 271 z m 257 1046 l 776 1046 l 776 1167 l 257 1167 z "},"Ŭ":{"ha":1033,"x_min":0,"x_max":0,"o":"m 388 779 b 517 892 388 828 432 878 l -12 892 b 115 779 71 878 115 828 l 115 332 b 319 0 115 167 193 54 l 713 0 b 918 332 839 54 918 167 l 918 779 b 1046 892 918 828 963 878 l 517 892 b 646 779 601 878 646 828 l 646 321 b 517 203 646 271 603 203 b 388 321 431 203 388 271 z m 515 1053 b 374 1190 442 1053 375 1103 l 211 1190 b 336 957 211 1096 261 990 l 697 957 b 822 1190 772 990 822 1096 l 660 1190 b 515 1053 657 1103 592 1053 z "},"ŭ":{"ha":1033,"x_min":0,"x_max":0,"o":"m 388 779 b 517 892 388 828 432 878 l -12 892 b 115 779 71 878 115 828 l 115 332 b 319 0 115 167 193 54 l 713 0 b 918 332 839 54 918 167 l 918 779 b 1046 892 918 828 963 878 l 517 892 b 646 779 601 878 646 828 l 646 321 b 517 203 646 271 603 203 b 388 321 431 203 388 271 z m 515 1053 b 374 1190 442 1053 375 1103 l 211 1190 b 336 957 211 1096 261 990 l 697 957 b 822 1190 772 990 822 1096 l 660 1190 b 515 1053 657 1103 592 1053 z "},"Ů":{"ha":1033,"x_min":0,"x_max":0,"o":"m 388 779 b 517 892 388 828 432 878 l -12 892 b 115 779 71 878 115 828 l 115 332 b 319 0 115 167 193 54 l 713 0 b 918 332 839 54 918 167 l 918 779 b 1046 892 918 828 963 878 l 517 892 b 646 779 601 878 646 828 l 646 321 b 517 203 646 271 603 203 b 388 321 431 203 388 271 z m 694 1054 b 622 1190 694 1108 665 1171 l 411 1190 b 338 1054 368 1171 338 1108 b 411 918 338 999 368 936 l 622 918 b 694 1054 665 936 694 999 z m 517 974 b 432 1057 472 974 432 1004 b 517 1138 432 1107 472 1138 b 600 1057 561 1138 600 1107 b 517 974 600 1004 561 974 z "},"ů":{"ha":1033,"x_min":0,"x_max":0,"o":"m 388 779 b 517 892 388 828 432 878 l -12 892 b 115 779 71 878 115 828 l 115 332 b 319 0 115 167 193 54 l 713 0 b 918 332 839 54 918 167 l 918 779 b 1046 892 918 828 963 878 l 517 892 b 646 779 601 878 646 828 l 646 321 b 517 203 646 271 603 203 b 388 321 431 203 388 271 z m 694 1054 b 622 1190 694 1108 665 1171 l 411 1190 b 338 1054 368 1171 338 1108 b 411 918 338 999 368 936 l 622 918 b 694 1054 665 936 694 999 z m 517 974 b 432 1057 472 974 432 1004 b 517 1138 432 1107 472 1138 b 600 1057 561 1138 600 1107 b 517 974 600 1004 561 974 z "},"Ű":{"ha":1033,"x_min":0,"x_max":0,"o":"m 388 779 b 517 892 388 828 432 878 l -12 892 b 115 779 71 878 115 828 l 115 332 b 319 0 115 167 193 54 l 713 0 b 918 332 839 54 918 167 l 918 779 b 1046 892 918 828 963 878 l 517 892 b 646 779 601 878 646 828 l 646 321 b 517 203 646 271 603 203 b 388 321 431 203 388 271 z m 339 1190 l 276 981 l 586 1165 l 531 981 l 883 1190 z "},"ű":{"ha":1033,"x_min":0,"x_max":0,"o":"m 388 779 b 517 892 388 828 432 878 l -12 892 b 115 779 71 878 115 828 l 115 332 b 319 0 115 167 193 54 l 713 0 b 918 332 839 54 918 167 l 918 779 b 1046 892 918 828 963 878 l 517 892 b 646 779 601 878 646 828 l 646 321 b 517 203 646 271 603 203 b 388 321 431 203 388 271 z m 339 1190 l 276 981 l 586 1165 l 531 981 l 883 1190 z "},"Ų":{"ha":1033,"x_min":0,"x_max":0,"o":"m 388 779 b 517 892 388 828 432 878 l -12 892 b 115 779 71 878 115 828 l 115 332 b 319 0 115 167 193 54 l 713 0 b 918 332 839 54 918 167 l 918 779 b 1046 892 918 828 963 878 l 517 892 b 646 779 601 878 646 828 l 646 321 b 517 203 646 271 603 203 b 388 321 431 203 388 271 z m 328 -356 l 706 -356 l 518 -39 z "},"ų":{"ha":1033,"x_min":0,"x_max":0,"o":"m 388 779 b 517 892 388 828 432 878 l -12 892 b 115 779 71 878 115 828 l 115 332 b 319 0 115 167 193 54 l 713 0 b 918 332 839 54 918 167 l 918 779 b 1046 892 918 828 963 878 l 517 892 b 646 779 601 878 646 828 l 646 321 b 517 203 646 271 603 203 b 388 321 431 203 388 271 z m 328 -356 l 706 -356 l 518 -39 z "},"Ŵ":{"ha":1708,"x_min":0,"x_max":0,"o":"m 601 981 l 796 981 l 554 367 l 404 747 b 393 794 397 764 393 779 b 468 892 393 842 426 878 l -12 892 b 115 681 25 851 53 810 l 557 -240 l 853 396 l 1160 -240 l 1593 690 b 1721 892 1649 810 1679 850 l 1242 892 b 1318 796 1290 879 1318 842 b 1307 749 1318 781 1314 764 l 1157 367 l 915 981 l 1107 981 l 856 1190 z "},"ŵ":{"ha":1708,"x_min":0,"x_max":0,"o":"m 601 981 l 796 981 l 554 367 l 404 747 b 393 794 397 764 393 779 b 468 892 393 842 426 878 l -12 892 b 115 681 25 851 53 810 l 557 -240 l 853 396 l 1160 -240 l 1593 690 b 1721 892 1649 810 1679 850 l 1242 892 b 1318 796 1290 879 1318 842 b 1307 749 1318 781 1314 764 l 1157 367 l 915 981 l 1107 981 l 856 1190 z "},"Ŷ":{"ha":1106,"x_min":0,"x_max":0,"o":"m 639 892 b 715 796 688 879 715 842 b 704 749 715 781 711 764 l 554 367 l 404 747 b 393 794 397 764 393 779 b 468 892 393 842 426 878 l -12 892 b 115 681 25 851 54 810 l 411 60 b 214 -117 340 -83 286 -117 b 86 0 156 -117 97 -75 b -82 -165 -7 -3 -82 -75 b -7 -318 -82 -235 -53 -283 l 456 -318 b 683 32 554 -247 613 -121 l 990 690 b 1119 892 1046 810 1076 850 z m 299 981 l 806 981 l 553 1190 z "},"ŷ":{"ha":1106,"x_min":0,"x_max":0,"o":"m 639 892 b 715 796 688 879 715 842 b 704 749 715 781 711 764 l 554 367 l 404 747 b 393 794 397 764 393 779 b 468 892 393 842 426 878 l -12 892 b 115 681 25 851 54 810 l 411 60 b 214 -117 340 -83 286 -117 b 86 0 156 -117 97 -75 b -82 -165 -7 -3 -82 -75 b -7 -318 -82 -235 -53 -283 l 456 -318 b 683 32 554 -247 613 -121 l 990 690 b 1119 892 1046 810 1076 850 z m 299 981 l 806 981 l 553 1190 z "},"Ÿ":{"ha":1106,"x_min":0,"x_max":0,"o":"m 639 892 b 715 796 688 879 715 842 b 704 749 715 781 711 764 l 554 367 l 404 747 b 393 794 397 764 393 779 b 468 892 393 842 426 878 l -12 892 b 115 681 25 851 54 810 l 411 60 b 214 -117 340 -83 286 -117 b 86 0 156 -117 97 -75 b -82 -165 -7 -3 -82 -75 b -7 -318 -82 -235 -53 -283 l 456 -318 b 683 32 554 -247 613 -121 l 990 690 b 1119 892 1046 810 1076 850 z m 594 1092 b 692 996 594 1039 638 996 b 790 1092 746 996 790 1039 b 692 1190 790 1147 746 1190 b 594 1092 638 1190 594 1147 z m 314 1092 b 411 996 314 1039 358 996 b 510 1092 467 996 510 1039 b 411 1190 510 1147 467 1190 b 314 1092 358 1190 314 1147 z "},"Ź":{"ha":831,"x_min":0,"x_max":0,"o":"m -25 0 l 831 0 l 831 347 b 703 229 815 288 788 229 l 432 229 l 763 778 b 844 892 801 842 822 872 l 36 892 l 36 544 b 164 663 51 604 79 663 l 407 663 l 64 115 b -25 0 21 47 -1 18 z m 390 1190 l 328 981 l 681 1190 z "},"ź":{"ha":831,"x_min":0,"x_max":0,"o":"m -25 0 l 831 0 l 831 347 b 703 229 815 288 788 229 l 432 229 l 763 778 b 844 892 801 842 822 872 l 36 892 l 36 544 b 164 663 51 604 79 663 l 407 663 l 64 115 b -25 0 21 47 -1 18 z m 390 1190 l 328 981 l 681 1190 z "},"Ż":{"ha":831,"x_min":0,"x_max":0,"o":"m -25 0 l 831 0 l 831 347 b 703 229 815 288 788 229 l 432 229 l 763 778 b 844 892 801 842 822 872 l 36 892 l 36 544 b 164 663 51 604 79 663 l 407 663 l 64 115 b -25 0 21 47 -1 18 z m 343 1092 b 440 996 343 1039 386 996 b 538 1092 494 996 538 1039 b 440 1190 538 1147 494 1190 b 343 1092 386 1190 343 1147 z "},"ż":{"ha":831,"x_min":0,"x_max":0,"o":"m -25 0 l 831 0 l 831 347 b 703 229 815 288 788 229 l 432 229 l 763 778 b 844 892 801 842 822 872 l 36 892 l 36 544 b 164 663 51 604 79 663 l 407 663 l 64 115 b -25 0 21 47 -1 18 z m 343 1092 b 440 996 343 1039 386 996 b 538 1092 494 996 538 1039 b 440 1190 538 1147 494 1190 b 343 1092 386 1190 343 1147 z "},"Ž":{"ha":831,"x_min":0,"x_max":0,"o":"m -25 0 l 831 0 l 831 347 b 703 229 815 288 788 229 l 432 229 l 763 778 b 844 892 801 842 822 872 l 36 892 l 36 544 b 164 663 51 604 79 663 l 407 663 l 64 115 b -25 0 21 47 -1 18 z m 693 1190 l 186 1190 l 439 981 z "},"ž":{"ha":831,"x_min":0,"x_max":0,"o":"m -25 0 l 831 0 l 831 347 b 703 229 815 288 788 229 l 432 229 l 763 778 b 844 892 801 842 822 872 l 36 892 l 36 544 b 164 663 51 604 79 663 l 407 663 l 64 115 b -25 0 21 47 -1 18 z m 693 1190 l 186 1190 l 439 981 z "},"ƒ":{"ha":676,"x_min":0,"x_max":0,"o":"m 428 458 l 536 458 l 536 588 l 456 588 l 469 657 b 572 776 482 719 496 776 b 617 764 603 776 610 769 b 649 831 639 774 649 808 b 624 892 649 857 640 878 l 414 892 b 301 681 336 847 318 758 l 282 588 l 178 588 l 178 458 l 254 458 l 207 233 b 107 114 193 171 175 114 b 63 126 82 114 69 118 b 29 58 42 119 29 88 b 54 0 29 33 39 14 l 264 0 b 375 210 340 43 358 132 z "},"Ș":{"ha":883,"x_min":0,"x_max":0,"o":"m 849 0 b 940 229 890 47 940 122 b 729 549 940 376 885 481 b 347 614 653 582 429 596 b 283 692 304 624 283 651 b 400 768 283 754 346 768 b 832 622 565 768 733 707 b 929 768 885 638 929 704 b 869 892 929 819 904 860 l 22 892 b -37 704 -3 865 -37 790 b 78 468 -37 621 0 528 b 507 351 164 401 322 364 b 604 264 572 346 604 311 b 332 163 604 176 515 163 b 28 251 165 163 99 197 b -50 118 -11 225 -50 179 b -3 0 -50 61 -26 24 z m 253 -356 l 631 -356 l 443 -39 z "},"ș":{"ha":883,"x_min":0,"x_max":0,"o":"m 849 0 b 940 229 890 47 940 122 b 729 549 940 376 885 481 b 347 614 653 582 429 596 b 283 692 304 624 283 651 b 400 768 283 754 346 768 b 832 622 565 768 733 707 b 929 768 885 638 929 704 b 869 892 929 819 904 860 l 22 892 b -37 704 -3 865 -37 790 b 78 468 -37 621 0 528 b 507 351 164 401 322 364 b 604 264 572 346 604 311 b 332 163 604 176 515 163 b 28 251 165 163 99 197 b -50 118 -11 225 -50 179 b -3 0 -50 61 -26 24 z m 253 -356 l 631 -356 l 443 -39 z "},"Ț":{"ha":783,"x_min":0,"x_max":0,"o":"m 128 0 l 656 0 b 528 114 572 14 528 64 l 528 663 l 656 663 b 783 544 740 663 768 604 l 783 892 l 0 892 l 0 544 b 129 663 15 604 43 663 l 256 663 l 256 114 b 150 4 256 68 219 24 l 150 6 b 149 4 149 6 149 4 z m 203 -356 l 581 -356 l 393 -39 z "},"ț":{"ha":783,"x_min":0,"x_max":0,"o":"m 128 0 l 656 0 b 528 114 572 14 528 64 l 528 663 l 656 663 b 783 544 740 663 768 604 l 783 892 l 0 892 l 0 544 b 129 663 15 604 43 663 l 256 663 l 256 114 b 150 4 256 68 219 24 l 150 6 b 149 4 149 6 149 4 z m 203 -356 l 581 -356 l 393 -39 z "},"ˆ":{"ha":619,"x_min":0,"x_max":0,"o":"m 56 981 l 563 981 l 310 1190 z "},"ˇ":{"ha":619,"x_min":0,"x_max":0,"o":"m 563 1190 l 56 1190 l 308 981 z "},"˘":{"ha":732,"x_min":0,"x_max":0,"o":"m 364 1053 b 222 1190 290 1053 224 1103 l 60 1190 b 185 957 60 1096 110 990 l 546 957 b 671 1190 621 990 671 1096 l 508 1190 b 364 1053 506 1103 440 1053 z "},"˙":{"ha":317,"x_min":0,"x_max":0,"o":"m 61 1092 b 158 996 61 1039 104 996 b 256 1092 213 996 256 1039 b 158 1190 256 1147 213 1190 b 61 1092 104 1190 61 1147 z "},"˚":{"ha":497,"x_min":0,"x_max":0,"o":"m 426 1054 b 354 1190 426 1108 397 1171 l 143 1190 b 69 1054 100 1171 69 1108 b 143 918 69 999 100 936 l 354 918 b 426 1054 397 936 426 999 z m 249 974 b 164 1057 204 974 164 1004 b 249 1138 164 1107 204 1138 b 332 1057 293 1138 332 1107 b 249 974 332 1004 293 974 z "},"˛":{"ha":536,"x_min":0,"x_max":0,"o":"m 79 -356 l 457 -356 l 269 -39 z "},"˜":{"ha":689,"x_min":0,"x_max":0,"o":"m 469 990 b 621 1044 522 990 583 1008 l 621 1189 b 475 1103 592 1144 556 1103 b 221 1190 394 1103 326 1190 b 69 1135 165 1190 104 1171 l 69 992 b 214 1078 96 1039 133 1078 b 469 990 297 1078 364 990 z "},"˝":{"ha":744,"x_min":0,"x_max":0,"o":"m 131 1190 l 68 981 l 378 1165 l 322 981 l 675 1190 z "},"Δ":{"ha":1106,"x_min":0,"x_max":0,"o":"m -12 0 l 1119 0 b 990 211 1081 40 1053 82 l 549 1133 l 115 201 b -12 0 60 82 29 42 z m 551 510 l 656 256 l 447 256 z "},"Ω":{"ha":997,"x_min":0,"x_max":0,"o":"m 947 579 b 825 892 947 714 892 825 l 179 892 b 57 579 113 825 57 714 b 229 229 57 397 158 293 l 174 229 b 44 347 88 229 60 288 l 44 0 l 403 0 l 424 222 b 250 471 343 247 250 326 b 501 722 250 610 351 722 b 754 471 647 722 754 610 b 581 222 754 326 661 247 l 601 0 l 960 0 l 960 347 b 831 229 944 288 917 229 l 775 229 b 947 579 846 293 947 397 z "},"μ":{"ha":1033,"x_min":0,"x_max":0,"o":"m 517 -318 b 388 -206 432 -304 388 -254 l 388 0 l 713 0 b 918 332 839 54 918 167 l 918 779 b 1046 892 918 828 963 878 l 517 892 b 646 779 601 878 646 828 l 646 321 b 517 203 646 271 603 203 b 388 321 431 203 388 271 l 388 779 b 517 892 388 828 432 878 l -12 892 b 115 779 71 878 115 828 l 115 -206 b -12 -318 115 -254 71 -304 z "},"π":{"ha":933,"x_min":0,"x_max":0,"o":"m 182 704 b 71 625 128 704 71 701 l 71 81 b 182 0 71 7 128 0 b 290 81 238 0 290 7 l 290 544 l 499 544 l 499 301 b 719 0 499 167 501 0 b 897 135 825 0 897 46 b 875 196 897 164 888 189 b 813 179 864 189 853 179 b 717 329 722 179 717 250 l 717 624 b 679 704 717 676 700 704 z "},"Ẁ":{"ha":1708,"x_min":0,"x_max":0,"o":"m 546 1190 l 818 1036 l 554 367 l 404 747 b 393 794 397 764 393 779 b 468 892 393 842 426 878 l -12 892 b 115 681 25 851 53 810 l 557 -240 l 853 396 l 1160 -240 l 1593 690 b 1721 892 1649 810 1679 850 l 1242 892 b 1318 796 1290 879 1318 842 b 1307 749 1318 781 1314 764 l 1157 367 l 835 1190 z "},"ẁ":{"ha":1708,"x_min":0,"x_max":0,"o":"m 546 1190 l 818 1036 l 554 367 l 404 747 b 393 794 397 764 393 779 b 468 892 393 842 426 878 l -12 892 b 115 681 25 851 53 810 l 557 -240 l 853 396 l 1160 -240 l 1593 690 b 1721 892 1649 810 1679 850 l 1242 892 b 1318 796 1290 879 1318 842 b 1307 749 1318 781 1314 764 l 1157 367 l 835 1190 z "},"Ẃ":{"ha":1708,"x_min":0,"x_max":0,"o":"m 878 1190 l 554 367 l 404 747 b 393 794 397 764 393 779 b 468 892 393 842 426 878 l -12 892 b 115 681 25 851 53 810 l 557 -240 l 853 396 l 1160 -240 l 1593 690 b 1721 892 1649 810 1679 850 l 1242 892 b 1318 796 1290 879 1318 842 b 1307 749 1318 781 1314 764 l 1157 367 l 893 1036 l 1165 1190 z "},"ẃ":{"ha":1708,"x_min":0,"x_max":0,"o":"m 878 1190 l 554 367 l 404 747 b 393 794 397 764 393 779 b 468 892 393 842 426 878 l -12 892 b 115 681 25 851 53 810 l 557 -240 l 853 396 l 1160 -240 l 1593 690 b 1721 892 1649 810 1679 850 l 1242 892 b 1318 796 1290 879 1318 842 b 1307 749 1318 781 1314 764 l 1157 367 l 893 1036 l 1165 1190 z "},"Ẅ":{"ha":1708,"x_min":0,"x_max":0,"o":"m 1242 892 b 1318 796 1290 879 1318 842 b 1307 749 1318 781 1314 764 l 1157 367 l 857 1132 l 554 367 l 404 747 b 393 794 397 764 393 779 b 468 892 393 842 426 878 l -12 892 b 115 681 25 851 53 810 l 557 -240 l 853 396 l 1160 -240 l 1593 690 b 1721 892 1649 810 1679 850 z m 549 1092 b 646 996 549 1039 592 996 b 743 1092 700 996 743 1039 b 646 1190 743 1147 700 1190 b 549 1092 592 1190 549 1147 z m 968 1092 b 1065 996 968 1039 1011 996 b 1163 1092 1119 996 1163 1039 b 1065 1190 1163 1147 1119 1190 b 968 1092 1011 1190 968 1147 z "},"ẅ":{"ha":1708,"x_min":0,"x_max":0,"o":"m 1242 892 b 1318 796 1290 879 1318 842 b 1307 749 1318 781 1314 764 l 1157 367 l 857 1132 l 554 367 l 404 747 b 393 794 397 764 393 779 b 468 892 393 842 426 878 l -12 892 b 115 681 25 851 53 810 l 557 -240 l 853 396 l 1160 -240 l 1593 690 b 1721 892 1649 810 1679 850 z m 549 1092 b 646 996 549 1039 592 996 b 743 1092 700 996 743 1039 b 646 1190 743 1147 700 1190 b 549 1092 592 1190 549 1147 z m 968 1092 b 1065 996 968 1039 1011 996 b 1163 1092 1119 996 1163 1039 b 1065 1190 1163 1147 1119 1190 b 968 1092 1011 1190 968 1147 z "},"Ỳ":{"ha":1106,"x_min":0,"x_max":0,"o":"m 639 892 b 715 796 688 879 715 842 b 704 749 715 781 711 764 l 554 367 l 404 747 b 393 794 397 764 393 779 b 468 892 393 842 426 878 l -12 892 b 115 681 25 851 54 810 l 411 60 b 214 -117 340 -83 286 -117 b 86 0 156 -117 97 -75 b -82 -165 -7 -3 -82 -75 b -7 -318 -82 -235 -53 -283 l 456 -318 b 683 32 554 -247 613 -121 l 990 690 b 1119 892 1046 810 1076 850 z m 313 1190 l 665 981 l 601 1190 z "},"ỳ":{"ha":1106,"x_min":0,"x_max":0,"o":"m 639 892 b 715 796 688 879 715 842 b 704 749 715 781 711 764 l 554 367 l 404 747 b 393 794 397 764 393 779 b 468 892 393 842 426 878 l -12 892 b 115 681 25 851 54 810 l 411 60 b 214 -117 340 -83 286 -117 b 86 0 156 -117 97 -75 b -82 -165 -7 -3 -82 -75 b -7 -318 -82 -235 -53 -283 l 456 -318 b 683 32 554 -247 613 -121 l 990 690 b 1119 892 1046 810 1076 850 z m 313 1190 l 665 981 l 601 1190 z "},"–":{"ha":768,"x_min":0,"x_max":0,"o":"m 28 375 l 740 375 l 740 604 l 28 604 z "},"—":{"ha":1290,"x_min":0,"x_max":0,"o":"m 28 375 l 1263 375 l 1263 604 l 28 604 z "},"‘":{"ha":372,"x_min":0,"x_max":0,"o":"m 357 664 b 207 822 357 756 286 822 b 183 819 199 822 190 821 b 310 960 208 888 247 931 b 285 961 301 960 293 961 b 14 689 115 961 14 828 b 186 492 14 568 90 492 b 357 664 282 492 357 568 z "},"’":{"ha":372,"x_min":0,"x_max":0,"o":"m 14 750 b 164 593 14 658 85 593 b 188 594 172 593 181 594 b 61 456 163 526 124 485 b 89 454 71 454 79 454 b 357 725 257 454 357 586 b 185 922 357 846 281 922 b 14 750 89 922 14 846 z "},"‚":{"ha":372,"x_min":0,"x_max":0,"o":"m 14 171 b 164 13 14 79 85 13 b 188 15 172 13 181 14 b 61 -125 163 -54 124 -96 b 86 -126 69 -126 78 -126 b 357 146 256 -126 357 7 b 185 343 357 267 281 343 b 14 171 89 343 14 267 z "},"“":{"ha":744,"x_min":0,"x_max":0,"o":"m 357 664 b 207 822 357 756 286 822 b 183 819 199 822 190 821 b 310 960 208 888 247 931 b 285 961 301 960 293 961 b 14 689 115 961 14 828 b 186 492 14 568 90 492 b 357 664 282 492 357 568 z m 729 664 b 579 822 729 756 658 822 b 556 819 571 822 563 821 b 682 960 581 888 619 931 b 657 961 674 960 665 961 b 386 689 488 961 386 828 b 558 492 386 568 463 492 b 729 664 654 492 729 568 z "},"”":{"ha":744,"x_min":0,"x_max":0,"o":"m 14 750 b 164 593 14 658 85 593 b 188 594 172 593 181 594 b 61 456 163 526 124 485 b 89 454 71 454 79 454 b 357 725 257 454 357 586 b 185 922 357 846 281 922 b 14 750 89 922 14 846 z m 386 750 b 536 593 386 658 457 593 b 560 594 544 593 553 594 b 433 456 535 526 496 485 b 461 454 443 454 451 454 b 729 725 629 454 729 586 b 557 922 729 846 653 922 b 386 750 461 922 386 846 z "},"„":{"ha":744,"x_min":0,"x_max":0,"o":"m 14 171 b 164 13 14 79 85 13 b 188 15 172 13 181 14 b 61 -125 163 -54 124 -96 b 86 -126 69 -126 78 -126 b 357 146 256 -126 357 7 b 185 343 357 267 281 343 b 14 171 89 343 14 267 z m 386 171 b 536 13 386 79 457 13 b 560 15 544 13 553 14 b 433 -125 535 -54 496 -96 b 458 -126 442 -126 450 -126 b 729 146 628 -126 729 7 b 557 343 729 267 653 343 b 386 171 461 343 386 267 z "},"†":{"ha":674,"x_min":0,"x_max":0,"o":"m 260 892 l 260 721 l 89 721 l 89 568 l 260 568 l 260 0 l 413 0 l 413 568 l 585 568 l 585 721 l 413 721 l 413 892 z "},"‡":{"ha":674,"x_min":0,"x_max":0,"o":"m 260 892 l 260 721 l 89 721 l 89 568 l 260 568 l 260 324 l 89 324 l 89 171 l 260 171 l 260 0 l 413 0 l 413 171 l 585 171 l 585 324 l 413 324 l 413 568 l 585 568 l 585 721 l 413 721 l 413 892 z "},"•":{"ha":547,"x_min":0,"x_max":0,"o":"m 36 449 b 274 210 36 317 142 210 b 514 449 407 210 514 317 b 274 688 514 581 407 688 b 36 449 142 688 36 581 z "},"…":{"ha":1582,"x_min":0,"x_max":0,"o":"m 40 171 b 211 0 40 75 115 0 b 383 171 307 0 383 75 b 211 343 383 267 307 343 b 40 171 115 343 40 267 z m 619 171 b 790 0 619 75 694 0 b 963 171 886 0 963 75 b 790 343 963 267 886 343 b 619 171 694 343 619 267 z m 1197 171 b 1368 0 1197 75 1272 0 b 1540 171 1464 0 1540 75 b 1368 343 1540 267 1464 343 b 1197 171 1272 343 1197 267 z "},"‰":{"ha":1281,"x_min":0,"x_max":0,"o":"m 7 0 l 193 0 l 285 142 b 400 0 307 79 347 24 l 1103 0 b 1235 247 1181 36 1235 149 b 1101 494 1235 346 1181 457 l 514 494 l 774 892 l 588 892 l 496 751 b 382 890 474 813 433 867 l 8 890 b -126 643 -72 854 -126 742 b 8 396 -126 546 -72 432 l 264 396 z m 194 510 b 56 646 119 510 56 563 b 194 785 56 732 119 785 b 335 646 271 785 335 732 b 194 510 335 563 271 510 z m 588 114 b 449 250 513 114 449 165 b 588 389 449 335 513 389 b 728 250 664 389 728 335 b 588 114 728 165 664 114 z m 914 114 b 775 250 839 114 775 165 b 914 389 775 335 839 389 b 1054 250 990 389 1054 335 b 914 114 1054 165 990 114 z "},"‹":{"ha":575,"x_min":0,"x_max":0,"o":"m 486 208 l 486 776 l 88 493 z "},"›":{"ha":575,"x_min":0,"x_max":0,"o":"m 486 493 l 88 776 l 88 208 z "},"⁄":{"ha":379,"x_min":0,"x_max":0,"o":"m -212 0 l -26 0 l 554 892 l 368 892 z "},"⁰":{"ha":642,"x_min":0,"x_max":0,"o":"m 639 643 b 504 890 639 742 585 853 l 131 890 b -4 643 50 853 -4 742 b 131 396 -4 544 50 432 l 506 396 b 639 643 585 432 639 544 z m 317 510 b 178 646 242 510 178 561 b 317 785 178 731 242 785 b 457 646 393 785 457 731 b 317 510 457 561 393 510 z "},"⁴":{"ha":628,"x_min":0,"x_max":0,"o":"m -12 396 l 328 396 l 328 278 b 264 224 328 254 304 233 l 553 224 b 489 278 511 233 489 254 l 489 396 l 607 396 l 607 594 b 544 533 597 564 585 533 l 489 533 l 489 1035 z m 250 533 l 328 635 l 328 533 z "},"⁵":{"ha":579,"x_min":0,"x_max":0,"o":"m 267 338 b 149 403 219 338 176 356 b 49 306 93 401 49 357 b 85 224 49 264 69 239 l 454 224 b 588 472 533 261 588 372 b 464 714 588 567 538 675 l 464 890 l 14 890 b 75 821 47 883 75 867 b 74 803 75 817 75 808 l 39 571 b 254 618 97 604 158 618 b 406 475 347 618 406 560 b 267 338 406 390 343 338 z m 404 751 b 456 719 432 751 447 739 l 239 719 l 242 751 z "},"⁶":{"ha":618,"x_min":0,"x_max":0,"o":"m 328 882 b 243 871 297 882 269 881 b 529 1019 286 933 393 1003 l 214 1019 b -4 665 121 971 -4 851 b 104 396 -4 551 49 458 l 536 396 b 615 594 569 422 615 510 b 328 882 615 758 479 882 z m 303 511 b 190 624 242 511 190 554 b 303 736 190 692 242 736 b 417 624 364 736 417 692 b 303 511 417 554 364 511 z "},"⁷":{"ha":496,"x_min":0,"x_max":0,"o":"m 196 389 b 208 428 196 396 199 413 b 438 817 276 546 368 697 b 499 890 456 849 472 869 l 14 890 l 14 690 b 76 751 24 722 35 751 l 225 751 l 24 426 b -53 344 -1 388 -28 357 l 235 344 b 196 389 208 351 196 369 z "},"⁸":{"ha":583,"x_min":0,"x_max":0,"o":"m 501 756 b 425 890 501 811 471 861 l 153 890 b 75 756 106 861 75 811 b 121 646 75 711 92 675 b 6 442 51 604 6 528 b 150 224 6 344 65 261 l 426 224 b 572 442 513 261 572 344 b 456 646 572 528 526 604 b 501 756 486 675 501 711 z m 183 464 b 288 571 183 524 231 571 b 393 464 347 571 393 524 b 288 358 393 404 347 358 b 183 464 231 358 183 404 z m 224 743 b 288 810 224 781 253 810 b 353 743 326 810 353 781 b 288 682 353 710 326 682 b 224 743 253 682 224 710 z "},"⁹":{"ha":618,"x_min":0,"x_max":0,"o":"m 286 404 b 368 415 317 404 342 406 b 78 265 328 354 215 282 l 399 265 b 615 621 490 315 615 435 b 508 890 615 735 563 828 l 76 890 b -4 690 42 863 -4 776 b 286 404 -4 526 132 404 z m 311 554 b 196 665 249 554 196 597 b 311 778 196 736 249 778 b 425 665 372 778 425 736 b 311 554 425 597 372 554 z "},"₀":{"ha":642,"x_min":0,"x_max":0,"o":"m 639 247 b 504 494 639 346 585 457 l 131 494 b -4 247 50 457 -4 346 b 131 0 -4 149 50 36 l 506 0 b 639 247 585 36 639 149 z m 317 114 b 178 250 242 114 178 165 b 317 389 178 335 242 389 b 457 250 393 389 457 335 b 317 114 457 165 393 114 z "},"₁":{"ha":315,"x_min":0,"x_max":0,"o":"m 8 492 b 75 421 54 488 75 464 l 75 54 b 10 0 75 31 54 7 l 301 0 b 236 54 258 7 236 31 l 236 593 z "},"₂":{"ha":468,"x_min":0,"x_max":0,"o":"m 465 386 b 431 494 465 433 444 476 l 31 494 b -7 421 8 476 -7 451 b 54 332 -7 376 24 347 b 193 413 94 390 136 413 b 269 342 238 413 269 379 b 207 233 269 299 246 271 l 46 78 b -49 0 11 44 -19 19 l 449 0 l 449 196 b 388 138 440 167 426 138 l 301 138 b 465 386 385 197 465 278 z "},"₃":{"ha":485,"x_min":0,"x_max":0,"o":"m 417 421 b 478 494 436 453 450 471 l 14 494 l 14 294 b 75 356 22 326 35 356 l 208 356 l 115 210 b 160 217 142 217 151 217 b 300 79 240 217 300 151 b 160 -58 300 0 236 -58 b 43 7 115 -58 71 -37 b -58 -90 -12 6 -58 -39 b -19 -172 -58 -132 -37 -157 l 349 -172 b 481 65 411 -132 481 -49 b 343 297 481 178 410 258 z "},"₄":{"ha":628,"x_min":0,"x_max":0,"o":"m -12 0 l 328 0 l 328 -118 b 264 -172 328 -142 304 -162 l 553 -172 b 489 -118 511 -162 489 -142 l 489 0 l 607 0 l 607 199 b 544 138 597 168 585 138 l 489 138 l 489 639 z m 250 138 l 328 239 l 328 138 z "},"₅":{"ha":579,"x_min":0,"x_max":0,"o":"m 267 -58 b 149 7 219 -58 176 -40 b 49 -90 93 6 49 -39 b 85 -172 49 -132 69 -157 l 454 -172 b 588 76 533 -135 588 -24 b 464 318 588 171 538 279 l 464 494 l 14 494 b 75 425 47 488 75 471 b 74 407 75 421 75 413 l 39 175 b 254 222 97 208 158 222 b 406 79 347 222 406 164 b 267 -58 406 -6 343 -58 z m 404 356 b 456 324 432 356 447 343 l 239 324 l 242 356 z "},"₆":{"ha":618,"x_min":0,"x_max":0,"o":"m 328 486 b 243 475 297 486 269 485 b 529 624 286 538 393 607 l 214 624 b -4 269 121 575 -4 456 b 104 0 -4 156 49 63 l 536 0 b 615 199 569 26 615 114 b 328 486 615 363 479 486 z m 303 115 b 190 228 242 115 190 158 b 303 340 190 296 242 340 b 417 228 364 340 417 296 b 303 115 417 158 364 115 z "},"₇":{"ha":496,"x_min":0,"x_max":0,"o":"m 196 -7 b 208 32 196 0 199 17 b 438 421 276 150 368 301 b 499 494 456 453 472 474 l 14 494 l 14 294 b 76 356 24 326 35 356 l 225 356 l 24 31 b -53 -51 -1 -8 -28 -39 l 235 -51 b 196 -7 208 -44 196 -26 z "},"₈":{"ha":583,"x_min":0,"x_max":0,"o":"m 501 360 b 425 494 501 415 471 465 l 153 494 b 75 360 106 465 75 415 b 121 250 75 315 92 279 b 6 46 51 208 6 132 b 150 -172 6 -51 65 -135 l 426 -172 b 572 46 513 -135 572 -51 b 456 250 572 132 526 208 b 501 360 486 279 501 315 z m 183 68 b 288 175 183 128 231 175 b 393 68 347 175 393 128 b 288 -37 393 8 347 -37 b 183 68 231 -37 183 8 z m 224 347 b 288 414 224 385 253 414 b 353 347 326 414 353 385 b 288 286 353 314 326 286 b 224 347 253 286 224 314 z "},"₉":{"ha":618,"x_min":0,"x_max":0,"o":"m 286 8 b 368 19 317 8 342 10 b 78 -131 328 -42 215 -114 l 399 -131 b 615 225 490 -81 615 39 b 508 494 615 339 563 432 l 76 494 b -4 294 42 467 -4 381 b 286 8 -4 131 132 8 z m 311 158 b 196 269 249 158 196 201 b 311 382 196 340 249 382 b 425 269 372 382 425 340 b 311 158 425 201 372 158 z "},"€":{"ha":1007,"x_min":0,"x_max":0,"o":"m 21 601 l -31 510 l 69 510 b 67 446 68 488 67 467 b 68 403 67 432 67 417 l 21 403 l -31 311 l 83 311 b 301 0 115 175 194 47 l 981 0 b 1042 136 1008 24 1042 65 b 874 301 1042 224 965 301 b 650 182 825 215 743 182 b 411 311 549 182 460 228 l 657 311 l 708 403 l 379 403 b 376 453 378 418 376 435 b 381 510 376 472 378 490 l 760 510 l 810 601 l 417 601 b 650 722 467 678 553 722 b 869 622 731 722 821 688 b 901 618 881 619 890 618 b 1042 758 988 618 1042 683 b 976 892 1042 819 1022 868 l 301 892 b 88 601 200 846 124 729 z "},"℗":{"ha":1099,"x_min":0,"x_max":0,"o":"m 1133 446 b 897 892 1133 625 1039 828 l 201 892 b -35 446 60 828 -35 625 b 201 0 -35 268 60 64 l 897 0 b 1133 446 1039 64 1133 268 z m 549 63 b 442 115 474 63 442 76 l 442 224 b 579 188 488 197 533 188 b 857 456 746 188 857 292 b 553 735 857 628 724 735 b 301 626 475 735 353 707 l 301 143 b 154 453 211 208 154 317 b 549 842 154 693 336 842 b 944 453 763 842 944 693 b 549 63 944 211 763 63 z m 551 594 b 696 453 629 594 696 540 b 551 313 696 365 629 313 b 442 360 508 313 469 329 l 442 547 b 551 594 469 578 508 594 z "},"™":{"ha":1750,"x_min":0,"x_max":0,"o":"m 157 417 l 490 417 b 410 488 439 425 410 457 l 410 836 l 490 836 b 572 761 544 836 563 799 l 572 981 l 76 981 l 76 761 b 158 836 86 799 103 836 l 239 836 l 239 488 b 172 419 239 460 215 432 l 172 421 b 171 419 171 421 171 419 z m 1658 417 b 1579 544 1632 443 1614 469 l 1304 1133 l 1110 731 l 924 1133 l 644 550 b 564 417 606 469 588 442 l 868 417 b 821 479 842 425 821 449 b 826 508 821 488 824 499 l 922 749 l 1113 265 l 1303 749 l 1397 508 b 1404 478 1401 497 1404 486 b 1356 417 1404 449 1388 425 z "},"⅓":{"ha":981,"x_min":0,"x_max":0,"o":"m -125 888 b -58 817 -79 883 -58 860 l -58 450 b -124 396 -58 426 -79 403 l 168 396 b 103 450 125 403 103 426 l 103 989 z m -67 0 l 119 0 l 700 892 l 514 892 z m 872 421 b 933 494 892 453 906 471 l 469 494 l 469 294 b 531 356 478 326 490 356 l 664 356 l 571 210 b 615 217 597 217 607 217 b 756 79 696 217 756 151 b 615 -58 756 0 692 -58 b 499 7 571 -58 526 -37 b 397 -90 443 6 397 -39 b 436 -172 397 -132 418 -157 l 804 -172 b 936 65 867 -132 936 -49 b 799 297 936 178 865 258 z "},"⅔":{"ha":1183,"x_min":0,"x_max":0,"o":"m 388 782 b 353 890 388 829 367 872 l -47 890 b -85 817 -69 872 -85 847 b -24 728 -85 772 -54 743 b 115 808 17 786 58 808 b 192 738 160 808 192 775 b 129 629 192 694 168 667 l -32 474 b -126 396 -67 440 -97 415 l 371 396 l 371 592 b 310 533 363 563 349 533 l 224 533 b 388 782 307 593 388 674 z m 129 0 l 315 0 l 896 892 l 710 892 z m 1074 421 b 1135 494 1093 453 1107 471 l 671 494 l 671 294 b 732 356 679 326 692 356 l 865 356 l 772 210 b 817 217 799 217 808 217 b 957 79 897 217 957 151 b 817 -58 957 0 893 -58 b 700 7 772 -58 728 -37 b 599 -90 644 6 599 -39 b 638 -172 599 -132 619 -157 l 1006 -172 b 1138 65 1068 -132 1138 -49 b 1000 297 1138 178 1067 258 z "},"⅛":{"ha":956,"x_min":0,"x_max":0,"o":"m -125 888 b -58 817 -79 883 -58 860 l -58 450 b -124 396 -58 426 -79 403 l 168 396 b 103 450 125 403 103 426 l 103 989 z m -68 0 l 118 0 l 699 892 l 513 892 z m 839 360 b 763 494 839 415 808 465 l 490 494 b 413 360 443 465 413 415 b 458 250 413 315 429 279 b 343 46 389 208 343 132 b 488 -172 343 -51 403 -135 l 764 -172 b 910 46 850 -135 910 -51 b 793 250 910 132 864 208 b 839 360 824 279 839 315 z m 521 68 b 625 175 521 128 568 175 b 731 68 685 175 731 128 b 625 -37 731 8 685 -37 b 521 68 568 -37 521 8 z m 561 347 b 625 414 561 385 590 414 b 690 347 664 414 690 385 b 625 286 690 314 664 286 b 561 347 590 286 561 314 z "},"⅜":{"ha":1222,"x_min":0,"x_max":0,"o":"m 349 817 b 410 890 368 849 382 867 l -54 890 l -54 690 b 7 751 -46 722 -33 751 l 140 751 l 47 606 b 92 613 74 613 83 613 b 232 475 172 613 232 547 b 92 338 232 396 168 338 b -25 403 47 338 3 358 b -126 306 -81 401 -126 357 b -87 224 -126 264 -106 239 l 281 224 b 413 461 343 264 413 347 b 275 693 413 574 342 654 z m 204 0 l 390 0 l 971 892 l 785 892 z m 1106 360 b 1029 494 1106 415 1075 465 l 757 494 b 679 360 710 465 679 415 b 725 250 679 315 696 279 b 610 46 656 208 610 132 b 754 -172 610 -51 669 -135 l 1031 -172 b 1176 46 1117 -135 1176 -51 b 1060 250 1176 132 1131 208 b 1106 360 1090 279 1106 315 z m 788 68 b 892 175 788 128 835 175 b 997 68 951 175 997 128 b 892 -37 997 8 951 -37 b 788 68 835 -37 788 8 z m 828 347 b 892 414 828 385 857 414 b 957 347 931 414 957 385 b 892 286 957 314 931 286 b 828 347 857 286 828 314 z "},"⅝":{"ha":1242,"x_min":0,"x_max":0,"o":"m 126 338 b 8 403 79 338 36 356 b -92 306 -47 401 -92 357 b -56 224 -92 264 -71 239 l 314 224 b 447 472 393 261 447 372 b 324 714 447 567 397 675 l 324 890 l -126 890 b -65 821 -93 883 -65 867 b -67 803 -65 817 -65 808 l -101 571 b 114 618 -43 604 18 618 b 265 475 207 618 265 560 b 126 338 265 390 203 338 z m 264 751 b 315 719 292 751 307 739 l 99 719 l 101 751 z m 226 0 l 413 0 l 993 892 l 807 892 z m 1126 360 b 1050 494 1126 415 1096 465 l 778 494 b 700 360 731 465 700 415 b 746 250 700 315 717 279 b 631 46 676 208 631 132 b 775 -172 631 -51 690 -135 l 1051 -172 b 1197 46 1138 -135 1197 -51 b 1081 250 1197 132 1151 208 b 1126 360 1111 279 1126 315 z m 808 68 b 913 175 808 128 856 175 b 1018 68 972 175 1018 128 b 913 -37 1018 8 972 -37 b 808 68 856 -37 808 8 z m 849 347 b 913 414 849 385 878 414 b 978 347 951 414 978 385 b 913 286 978 314 951 286 b 849 347 878 286 849 314 z "},"⅞":{"ha":999,"x_min":0,"x_max":0,"o":"m 122 389 b 135 428 122 396 125 413 b 364 817 203 546 294 697 b 425 890 382 849 399 869 l -60 890 l -60 690 b 3 751 -50 722 -39 751 l 151 751 l -50 426 b -126 344 -75 388 -101 357 l 161 344 b 122 389 135 351 122 369 z m -42 0 l 144 0 l 725 892 l 539 892 z m 882 360 b 806 494 882 415 851 465 l 533 494 b 456 360 486 465 456 415 b 501 250 456 315 472 279 b 386 46 432 208 386 132 b 531 -172 386 -51 446 -135 l 807 -172 b 953 46 893 -135 953 -51 b 836 250 953 132 907 208 b 882 360 867 279 882 315 z m 564 68 b 668 175 564 128 611 175 b 774 68 728 175 774 128 b 668 -37 774 8 728 -37 b 564 68 611 -37 564 8 z m 604 347 b 668 414 604 385 633 414 b 733 347 707 414 733 385 b 668 286 733 314 707 286 b 604 347 633 286 604 314 z "},"∂":{"ha":878,"x_min":0,"x_max":0,"o":"m 631 458 b 375 600 601 518 550 600 b 44 285 229 600 44 504 b 217 0 44 151 108 50 l 556 0 b 815 563 732 79 815 292 b 658 892 815 688 769 824 l 274 892 b 244 842 254 878 244 861 b 307 767 244 803 274 767 b 475 797 354 767 381 797 b 644 576 586 797 644 706 b 631 458 644 540 640 500 z m 576 297 b 392 121 576 194 503 121 b 231 288 289 121 231 188 b 406 460 231 399 310 460 b 576 297 515 460 576 390 z "},"∏":{"ha":906,"x_min":0,"x_max":0,"o":"m 142 892 b 71 838 104 890 71 886 l 71 -264 b 147 -318 71 -315 110 -318 b 222 -264 185 -318 222 -315 l 222 744 l 686 744 l 686 -264 b 760 -318 686 -315 722 -318 b 836 -264 797 -318 836 -315 l 836 838 b 765 892 836 886 803 892 z "},"∑":{"ha":774,"x_min":0,"x_max":0,"o":"m 667 942 b 724 1019 713 942 724 979 b 667 1094 724 1058 713 1094 l 161 1094 b 78 1011 111 1094 78 1057 b 86 958 78 994 81 978 l 313 449 l 85 -65 b 74 -115 79 -79 74 -97 b 161 -200 74 -160 111 -200 l 667 -200 b 724 -121 713 -200 724 -162 b 667 -46 724 -81 713 -46 l 285 -46 l 476 401 b 486 451 485 415 486 433 b 476 503 486 468 485 488 l 283 942 z "},"−":{"ha":836,"x_min":0,"x_max":0,"o":"m 43 413 l 794 413 l 794 565 l 43 565 z "},"√":{"ha":657,"x_min":0,"x_max":0,"o":"m 628 832 b 631 846 629 838 631 842 b 549 894 631 874 599 894 b 493 861 518 894 501 886 l 274 236 l 226 363 b 160 426 217 394 193 426 l 74 426 b 26 358 38 426 26 394 b 74 293 26 322 38 293 l 108 293 l 208 36 b 274 0 218 7 240 0 b 339 36 303 0 328 7 z "},"∞":{"ha":1025,"x_min":0,"x_max":0,"o":"m 513 647 b 278 764 483 703 428 764 b 31 489 131 764 31 643 b 278 208 31 332 131 208 b 513 329 431 208 485 275 b 735 208 544 275 603 208 b 996 489 894 208 996 332 b 735 764 996 643 894 764 b 513 647 594 764 542 703 z m 313 629 b 435 489 392 629 435 565 b 313 344 435 413 392 344 b 188 489 231 344 188 413 b 313 629 188 565 231 629 z m 718 629 b 840 489 796 629 840 565 b 718 344 840 413 796 344 b 594 489 636 344 594 413 b 718 629 594 565 636 629 z "},"∫":{"ha":579,"x_min":0,"x_max":0,"o":"m 364 875 b 415 981 364 944 376 981 b 485 964 442 981 451 964 b 563 1040 528 964 563 996 b 415 1133 563 1104 486 1133 b 207 899 279 1133 207 1042 l 207 -60 b 158 -167 207 -131 196 -167 b 88 -150 131 -167 119 -150 b 11 -225 46 -150 11 -181 b 158 -318 11 -287 88 -318 b 364 -83 293 -318 364 -226 z "},"≈":{"ha":836,"x_min":0,"x_max":0,"o":"m 589 217 b 794 283 661 217 744 239 l 794 457 b 596 353 754 403 706 353 b 419 415 532 353 481 388 b 251 457 365 440 315 457 b 46 390 178 457 94 435 l 46 218 b 243 322 82 275 133 322 b 589 217 356 322 446 217 z m 588 522 b 793 589 660 522 743 544 l 793 763 b 594 658 753 708 704 658 b 418 721 531 658 479 693 b 250 763 364 746 314 763 b 44 696 176 763 93 740 l 44 524 b 242 628 81 581 132 628 b 588 522 354 628 444 522 z "},"≠":{"ha":836,"x_min":0,"x_max":0,"o":"m 35 0 l 221 0 l 381 247 l 794 247 l 794 400 l 481 400 l 596 579 l 794 579 l 794 732 l 697 732 l 801 892 l 615 892 l 511 732 l 43 732 l 43 579 l 410 579 l 294 400 l 43 400 l 43 247 l 194 247 z "},"≤":{"ha":836,"x_min":0,"x_max":0,"o":"m 43 579 l 43 400 l 794 158 l 794 326 l 242 489 l 794 653 l 794 821 z m 43 -51 l 794 -51 l 794 101 l 43 101 z "},"≥":{"ha":836,"x_min":0,"x_max":0,"o":"m 43 821 l 43 653 l 594 489 l 43 326 l 43 158 l 794 400 l 794 579 z m 43 -51 l 794 -51 l 794 101 l 43 101 z "},"◊":{"ha":719,"x_min":0,"x_max":0,"o":"m 461 892 l 257 892 l 46 446 l 257 0 l 461 0 l 672 446 z m 360 738 l 486 446 l 360 154 l 232 446 z "},"":{"ha":1975,"x_min":0,"x_max":0,"o":"m 1189 1 b 1231 81 1189 32 1204 50 l 1385 254 l 1528 81 b 1567 1 1560 42 1567 18 b 1483 -94 1567 -43 1533 -82 l 2061 -94 b 1883 65 1994 -54 1961 -24 l 1563 433 l 1808 733 b 1986 892 1882 824 1914 847 l 1428 892 b 1511 796 1476 879 1511 842 b 1479 725 1511 775 1499 749 l 1399 625 l 1315 725 b 1283 796 1293 751 1283 774 b 1367 892 1283 842 1318 879 l 789 892 b 967 733 854 850 888 821 l 1217 436 l 1000 189 l 549 1133 l 138 247 b -12 0 61 82 28 42 l 468 0 b 392 96 418 13 392 50 b 401 144 392 111 394 128 l 401 146 l 703 146 l 718 114 b 757 4 746 56 757 29 b 683 -94 757 -44 724 -81 l 1274 -94 b 1189 1 1224 -82 1189 -43 z m 551 540 l 628 350 l 474 350 z "},"":{"ha":1949,"x_min":0,"x_max":0,"o":"m 1265 -94 b 1189 1 1215 -82 1189 -44 b 1206 54 1189 10 1193 25 l 1243 146 l 1544 146 b 1554 99 1551 129 1554 113 b 1481 0 1554 50 1521 14 l 1961 0 b 1810 260 1926 33 1907 57 l 1392 1133 l 960 206 l 761 433 l 1007 733 b 1185 892 1081 824 1113 847 l 625 892 b 710 796 675 879 710 842 b 678 725 710 775 697 749 l 597 625 l 514 725 b 482 796 492 751 482 774 b 565 892 482 842 517 879 l -12 892 b 165 733 53 850 89 824 l 415 436 l 90 65 b -87 -94 13 -24 -21 -50 l 471 -94 b 388 1 422 -82 388 -43 b 429 81 388 32 403 50 l 583 254 l 726 81 b 765 1 758 40 764 18 b 682 -94 765 -43 732 -82 z m 1394 540 l 1471 350 l 1317 350 z "},"":{"ha":1971,"x_min":0,"x_max":0,"o":"m 1289 -94 b 1211 1 1239 -82 1211 -44 b 1229 63 1211 10 1214 29 l 1267 146 l 1567 146 b 1578 99 1574 129 1578 113 b 1504 0 1578 50 1544 14 l 1983 0 b 1832 260 1951 33 1929 57 l 1414 1133 l 954 146 l 790 325 b 885 556 854 393 885 472 b 640 892 885 696 794 842 l -12 892 b 115 779 71 878 115 828 l 115 114 b -12 0 115 64 71 14 l 517 0 b 388 114 432 14 388 64 l 388 701 l 415 701 b 610 524 531 701 610 625 b 454 329 610 421 550 358 l 675 81 b 715 1 708 43 715 19 b 631 -94 715 -43 681 -82 z m 1417 540 l 1493 350 l 1339 350 z "},"":{"ha":1831,"x_min":0,"x_max":0,"o":"m 1149 -94 b 1072 1 1099 -82 1072 -44 b 1099 86 1071 29 1083 53 l 1126 146 l 1428 146 b 1438 99 1433 129 1438 113 b 1364 0 1438 50 1404 14 l 1844 0 b 1692 260 1811 33 1789 57 l 1274 1133 l 842 206 l 625 457 l 876 733 b 1056 892 956 819 982 847 l -12 892 b 115 779 71 878 115 828 l 115 114 b -12 0 115 64 71 14 l 517 0 b 388 114 432 14 388 64 l 388 332 l 611 81 b 651 1 644 43 651 19 b 567 -94 651 -43 617 -82 z m 388 779 b 514 890 388 826 431 876 b 594 796 563 878 594 840 b 564 725 594 775 582 749 l 388 535 z m 1276 540 l 1353 350 l 1199 350 z "},"":{"ha":2840,"x_min":0,"x_max":0,"o":"m 2054 1 b 2096 81 2054 32 2069 50 l 2250 254 l 2393 81 b 2432 1 2425 40 2431 18 b 2349 -94 2432 -43 2399 -82 l 2926 -94 b 2749 65 2860 -54 2826 -24 l 2428 433 l 2674 733 b 2851 892 2747 824 2779 847 l 2292 892 b 2376 796 2342 879 2376 842 b 2344 725 2376 775 2364 749 l 2264 625 l 2181 725 b 2149 796 2158 751 2149 774 b 2232 892 2149 842 2183 879 l 1654 892 b 1832 733 1719 850 1756 824 l 2082 436 l 1867 190 l 1414 1133 l 954 146 l 790 325 b 885 556 854 393 885 472 b 640 892 885 696 794 842 l -12 892 b 115 779 71 878 115 828 l 115 114 b -12 0 115 64 71 14 l 517 0 b 388 114 432 14 388 64 l 388 701 l 415 701 b 610 524 531 701 610 625 b 454 329 610 421 550 358 l 675 81 b 715 1 708 43 715 19 b 631 -94 715 -43 681 -82 l 1289 -94 b 1211 1 1239 -82 1211 -44 b 1229 63 1211 10 1214 29 l 1267 146 l 1567 146 l 1606 63 b 1624 4 1618 36 1624 17 b 1550 -94 1624 -44 1590 -81 l 2138 -94 b 2054 1 2089 -82 2054 -43 z m 1417 540 l 1493 350 l 1339 350 z "},"":{"ha":2700,"x_min":0,"x_max":0,"o":"m 1914 1 b 1956 81 1914 32 1929 50 l 2110 254 l 2253 81 b 2292 1 2285 42 2292 18 b 2208 -94 2292 -43 2258 -82 l 2786 -94 b 2608 65 2719 -54 2686 -24 l 2288 433 l 2533 733 b 2711 892 2607 824 2639 847 l 2153 892 b 2236 796 2201 879 2236 842 b 2204 725 2236 775 2224 749 l 2124 625 l 2040 725 b 2008 796 2018 751 2008 774 b 2092 892 2008 842 2043 879 l 1514 892 b 1692 733 1579 850 1615 824 l 1942 436 l 1725 189 l 1274 1133 l 842 206 l 625 457 l 876 733 b 1056 892 956 819 982 847 l -12 892 b 115 779 71 878 115 828 l 115 114 b -12 0 115 64 71 14 l 517 0 b 388 114 432 14 388 64 l 388 332 l 611 81 b 651 1 644 43 651 19 b 567 -94 651 -43 617 -82 l 1149 -94 b 1072 1 1099 -82 1072 -44 b 1099 86 1071 29 1083 53 l 1126 146 l 1428 146 l 1458 79 b 1482 -1 1476 39 1482 24 b 1408 -94 1482 -44 1449 -81 l 1999 -94 b 1914 1 1949 -82 1914 -43 z m 388 779 b 514 890 388 826 431 876 b 594 796 563 878 594 840 b 564 725 594 775 582 749 l 388 535 z m 1276 540 l 1353 350 l 1199 350 z "},"":{"ha":2750,"x_min":0,"x_max":0,"o":"m 2068 -94 b 1992 1 2018 -82 1992 -44 b 2011 69 1992 18 1997 39 l 2044 146 l 2346 146 b 2356 99 2353 129 2356 113 b 2282 0 2356 50 2322 14 l 2763 0 b 2611 260 2729 33 2708 57 l 2193 1133 l 1761 204 l 1563 433 l 1808 733 b 1986 892 1882 824 1914 847 l 1428 892 b 1511 796 1476 879 1511 842 b 1479 725 1511 775 1499 749 l 1399 625 l 1315 725 b 1283 796 1293 751 1283 774 b 1367 892 1283 842 1318 879 l 789 892 b 967 733 854 850 888 821 l 1217 436 l 1000 189 l 549 1133 l 138 247 b -12 0 61 82 26 42 l 468 0 b 392 96 418 13 392 50 b 401 144 392 111 394 128 l 401 146 l 703 146 l 718 114 b 757 4 746 56 757 29 b 683 -94 757 -44 724 -81 l 1274 -94 b 1189 1 1224 -82 1189 -43 b 1231 81 1189 32 1204 50 l 1385 254 l 1528 81 b 1567 1 1560 40 1565 18 b 1483 -94 1567 -43 1533 -82 z m 551 540 l 628 350 l 474 350 z m 2196 540 l 2272 350 l 2118 350 z "}}}
